SplineFontDB: 3.0
FontName: ABCcursive
FullName: ABC cursive
FamilyName: ABC cursive
Weight: Book
Copyright: Copyright (c) Aline & Aldric, 2003-2014. All rights reserved.
Version: 2.5
ItalicAngle: 0
UnderlinePosition: -136
UnderlineWidth: 20
Ascent: 819
Descent: 205
sfntRevision: 0x00021999
LayerCount: 3
Layer: 0 1 "Arri+AOgA-re"  1
Layer: 1 1 "Avant"  0
Layer: 2 0 "Arri+AOgA-re 2"  1
XUID: [1021 260 1643313717 10553508]
FSType: 0
OS2Version: 3
OS2_WeightWidthSlopeOnly: 0
OS2_UseTypoMetrics: 1
CreationTime: 1158407400
ModificationTime: 1415207580
PfmFamily: 65
TTFWeight: 400
TTFWidth: 5
LineGap: 0
VLineGap: 0
Panose: 3 0 0 0 0 0 0 0 0 0
OS2TypoAscent: 963
OS2TypoAOffset: 0
OS2TypoDescent: -645
OS2TypoDOffset: 0
OS2TypoLinegap: 0
OS2WinAscent: 1143
OS2WinAOffset: 0
OS2WinDescent: 650
OS2WinDOffset: 0
HheadAscent: 963
HheadAOffset: 0
HheadDescent: -646
HheadDOffset: 0
OS2SubXSize: 717
OS2SubYSize: 666
OS2SubXOff: 0
OS2SubYOff: 146
OS2SupXSize: 717
OS2SupYSize: 666
OS2SupXOff: 0
OS2SupYOff: 464
OS2StrikeYSize: 51
OS2StrikeYPos: 256
OS2FamilyClass: 2565
OS2Vendor: 'AA  '
OS2CodePages: 20000000.80940000
OS2UnicodeRanges: 80000027.00001842.00000000.00000000
MarkAttachClasses: 1
DEI: 91125
TtTable: prep
PUSHW_1
 10
CALL
PUSHW_1
 0
CALL
EndTTInstrs
TtTable: fpgm
PUSHW_1
 0
FDEF
MPPEM
PUSHW_1
 9
LT
IF
PUSHB_2
 1
 1
INSTCTRL
EIF
PUSHW_1
 511
SCANCTRL
PUSHW_1
 68
SCVTCI
PUSHW_2
 9
 3
SDS
SDB
ENDF
PUSHW_1
 1
FDEF
DUP
DUP
RCVT
ROUND[Black]
WCVTP
PUSHB_1
 1
ADD
ENDF
PUSHW_1
 2
FDEF
PUSHW_1
 1
LOOPCALL
POP
ENDF
PUSHW_1
 3
FDEF
DUP
GC[cur]
PUSHB_1
 3
CINDEX
GC[cur]
GT
IF
SWAP
EIF
DUP
ROLL
DUP
ROLL
MD[grid]
ABS
ROLL
DUP
GC[cur]
DUP
ROUND[Grey]
SUB
ABS
PUSHB_1
 4
CINDEX
GC[cur]
DUP
ROUND[Grey]
SUB
ABS
GT
IF
SWAP
NEG
ROLL
EIF
MDAP[rnd]
DUP
PUSHB_1
 0
GTEQ
IF
ROUND[Black]
DUP
PUSHB_1
 0
EQ
IF
POP
PUSHB_1
 64
EIF
ELSE
ROUND[Black]
DUP
PUSHB_1
 0
EQ
IF
POP
PUSHB_1
 64
NEG
EIF
EIF
MSIRP[no-rp0]
ENDF
PUSHW_1
 4
FDEF
DUP
GC[cur]
PUSHB_1
 4
CINDEX
GC[cur]
GT
IF
SWAP
ROLL
EIF
DUP
GC[cur]
DUP

StartChar: .notdef
Encoding: 65536 -1 0
Width: 512
Flags: W
LayerCount: 3
Fore
SplineSet
65 0 m 1,0,-1
 65 819 l 1,1,-1
 449 819 l 1,2,-1
 449 0 l 1,3,-1
 65 0 l 1,0,-1
128 65 m 1,4,-1
 384 65 l 1,5,-1
 384 756 l 1,6,-1
 128 756 l 1,7,-1
 128 65 l 1,4,-1
EndSplineSet
Validated: 1
EndChar

StartChar: exclam
Encoding: 33 33 5
Width: 275
GlyphClass: 2
Flags: W
LayerCount: 3
Fore
SplineSet
175 40 m 256,0,1
 175 21 175 21 161 7.5 c 128,-1,2
 147 -6 147 -6 128 -6 c 256,3,4
 109 -6 109 -6 95.5 7 c 128,-1,5
 82 20 82 20 82 40 c 0,6,7
 82 59 82 59 95.5 72 c 128,-1,8
 109 85 109 85 128 85 c 256,9,10
 147 85 147 85 161 72 c 128,-1,11
 175 59 175 59 175 40 c 256,0,1
148 169 m 2,12,13
 148 149 148 149 126 148 c 0,14,15
 106 148 106 148 105 169 c 1,16,-1
 105 771 l 2,17,18
 105 791 105 791 126 792 c 1,19,20
 149 792 149 792 148 771 c 1,21,-1
 148 169 l 2,12,13
EndSplineSet
Validated: 1
EndChar

StartChar: quotedbl
Encoding: 34 34 6
Width: 250
GlyphClass: 2
Flags: W
LayerCount: 3
Fore
SplineSet
87 565 m 2,0,1
 87 546 87 546 66 546 c 0,2,3
 46 546 46 546 45 565 c 1,4,-1
 45 694 l 2,5,6
 45 713 45 713 66 714 c 1,7,8
 88 714 88 714 87 694 c 1,9,-1
 87 565 l 2,0,1
163 565 m 2,10,11
 163 546 163 546 141 546 c 0,12,13
 121 546 121 546 121 565 c 2,14,-1
 121 694 l 2,15,16
 121 713 121 713 141 714 c 1,17,18
 163 714 163 714 163 694 c 2,19,-1
 163 565 l 2,10,11
EndSplineSet
Validated: 1
EndChar

StartChar: numbersign
Encoding: 35 35 7
Width: 485
GlyphClass: 2
Flags: W
LayerCount: 3
Fore
SplineSet
308 420 m 1,0,-1
 189 420 l 1,1,-1
 189 307 l 1,2,-1
 308 307 l 1,3,-1
 308 420 l 1,0,-1
460 287 m 0,4,5
 460 265 460 265 438 265 c 2,6,-1
 350 265 l 1,7,-1
 350 179 l 2,8,9
 350 159 350 159 329 159 c 0,10,11
 309 159 309 159 308 179 c 1,12,-1
 308 265 l 1,13,-1
 189 265 l 1,14,-1
 189 179 l 2,15,16
 189 159 189 159 168 159 c 0,17,18
 148 159 148 159 147 179 c 1,19,-1
 147 265 l 1,20,-1
 57 265 l 2,21,22
 37 265 37 265 37 287 c 0,23,24
 37 307 37 307 57 307 c 2,25,-1
 147 307 l 1,26,-1
 147 420 l 1,27,-1
 57 420 l 2,28,29
 37 420 37 420 37 440 c 256,30,31
 37 460 37 460 57 461 c 1,32,-1
 147 461 l 1,33,-1
 147 546 l 2,34,35
 147 566 147 566 168 566 c 0,36,37
 190 566 190 566 189 546 c 1,38,-1
 189 461 l 1,39,-1
 308 461 l 1,40,-1
 308 546 l 2,41,42
 308 566 308 566 329 566 c 0,43,44
 351 566 351 566 350 546 c 1,45,-1
 350 461 l 1,46,-1
 438 461 l 2,47,48
 460 461 460 461 460 440 c 0,49,50
 460 420 460 420 438 420 c 2,51,-1
 350 420 l 1,52,-1
 350 307 l 1,53,-1
 438 307 l 2,54,55
 460 307 460 307 460 287 c 0,4,5
EndSplineSet
Validated: 1
EndChar

StartChar: dollar
Encoding: 36 36 8
Width: 428
GlyphClass: 2
Flags: W
LayerCount: 3
Fore
SplineSet
251 30 m 1,0,1
 273 31 273 31 298 37 c 128,-1,2
 323 43 323 43 345.5 56.5 c 128,-1,3
 368 70 368 70 384 90 c 1,4,5
 403 116 403 116 403 140 c 0,6,7
 403 143 403 143 403 146 c 2,8,-1
 403 151 l 2,9,10
 403 153 403 153 403 155 c 128,-1,11
 403 157 403 157 403 159 c 2,12,-1
 403 162 l 1,13,14
 405 173 405 173 380 206 c 0,15,16
 351 244 351 244 251 274 c 1,17,-1
 251 30 l 1,0,1
198 585 m 1,18,19
 172 583 172 583 148.5 576.5 c 128,-1,20
 125 570 125 570 102 557 c 256,21,22
 79 544 79 544 63 520.5 c 128,-1,23
 47 497 47 497 43 468 c 0,24,25
 43 466 43 466 43 464 c 128,-1,26
 43 462 43 462 43 460 c 2,27,-1
 43 457 l 1,28,29
 43 454 l 0,30,31
 43 452 43 452 43 450 c 0,32,33
 43 423 43 423 80 391 c 0,34,35
 120 357 120 357 198 335 c 1,36,-1
 198 585 l 1,18,19
198 284 m 1,37,38
 171 293 171 293 145 303.5 c 128,-1,39
 119 314 119 314 93 326 c 0,40,41
 47 349 47 349 21 381 c 128,-1,42
 -5 413 -5 413 -6 462 c 1,43,44
 -3 502 -3 502 12 531 c 0,45,46
 19 546 19 546 35 562 c 128,-1,47
 51 578 51 578 74 591.5 c 128,-1,48
 97 605 97 605 128 615.5 c 128,-1,49
 159 626 159 626 198 629 c 1,50,-1
 199 676 l 2,51,52
 200 698 200 698 221 698 c 0,53,54
 222 698 222 698 223 698 c 0,55,56
 247 698 247 698 248 676 c 2,57,-1
 249 627 l 1,58,59
 326 625 326 625 376.5 588.5 c 128,-1,60
 427 552 427 552 449 484 c 0,61,62
 450 481 450 481 450 474 c 0,63,64
 451 455 451 455 433 455 c 2,65,66
 428 455 l 0,67,68
 426 455 426 455 424 455 c 2,69,-1
 421 455 l 1,70,71
 420 454 420 454 418 454 c 0,72,73
 409 456 409 456 399 481 c 1,74,75
 394 487 394 487 390 501 c 1,76,77
 384 514 384 514 377 526.5 c 128,-1,78
 370 539 370 539 355.5 549.5 c 128,-1,79
 341 560 341 560 316 568.5 c 128,-1,80
 291 577 291 577 249 583 c 1,81,-1
 249 325 l 1,82,83
 276 316 276 316 302 305.5 c 128,-1,84
 328 295 328 295 353 284 c 1,85,86
 402 260 402 260 425.5 228 c 128,-1,87
 449 196 449 196 453 145 c 1,88,89
 450 103 450 103 434 74 c 128,-1,90
 418 45 418 45 392 26 c 128,-1,91
 366 7 366 7 330 -3.5 c 128,-1,92
 294 -14 294 -14 251 -19 c 1,93,-1
 250 -70 l 1,94,95
 247 -94 247 -94 226 -94 c 0,96,97
 225 -94 225 -94 224 -94 c 0,98,99
 201 -94 201 -94 199 -70 c 1,100,-1
 198 -18 l 1,101,102
 142 -13 142 -13 105.5 0 c 128,-1,103
 69 13 69 13 48 34 c 1,104,105
 29 56 29 56 18 75 c 128,-1,106
 7 94 7 94 -2 122 c 0,107,108
 -3 127 -3 127 -3 131 c 0,109,110
 -3 149 -3 149 15 151 c 1,111,112
 17 151 l 2,113,114
 18 151 l 2,115,-1
 19 151 l 2,116,117
 20 151 20 151 21 151 c 128,-1,118
 22 151 22 151 23 151 c 0,119,120
 38 151 38 151 48 125 c 0,121,122
 50 122 50 122 52 117.5 c 128,-1,123
 54 113 54 113 56 106 c 1,124,125
 73 73 73 73 88 63 c 0,126,127
 104 53 104 53 131 44.5 c 128,-1,128
 158 36 158 36 198 31 c 1,129,-1
 198 284 l 1,37,38
EndSplineSet
Validated: 33
EndChar

StartChar: percent
Encoding: 37 37 9
Width: 465
GlyphClass: 2
Flags: W
LayerCount: 3
Fore
SplineSet
430 92 m 0,0,1
 430 116 430 116 411.5 134.5 c 128,-1,2
 393 153 393 153 370 153 c 0,3,4
 346 153 346 153 328 134.5 c 128,-1,5
 310 116 310 116 310 92 c 0,6,7
 310 65 310 65 326.5 44 c 128,-1,8
 343 23 343 23 370 23 c 256,9,10
 397 23 397 23 413.5 44 c 128,-1,11
 430 65 430 65 430 92 c 0,0,1
173 556 m 0,12,13
 173 580 173 580 155 598 c 128,-1,14
 137 616 137 616 114 616 c 0,15,16
 88 616 88 616 70.5 598 c 128,-1,17
 53 580 53 580 53 556 c 0,18,19
 53 529 53 529 70 508 c 128,-1,20
 87 487 87 487 114 487 c 256,21,22
 141 487 141 487 157 508 c 128,-1,23
 173 529 173 529 173 556 c 0,12,13
464 92 m 0,24,25
 464 72 464 72 457 53 c 128,-1,26
 450 34 450 34 437 19.5 c 128,-1,27
 424 5 424 5 406.5 -3 c 128,-1,28
 389 -11 389 -11 370 -11 c 0,29,30
 350 -11 350 -11 332.5 -3 c 128,-1,31
 315 5 315 5 302.5 19.5 c 128,-1,32
 290 34 290 34 282.5 53 c 128,-1,33
 275 72 275 72 275 92 c 0,34,35
 275 110 275 110 283 126.5 c 128,-1,36
 291 143 291 143 304 156.5 c 128,-1,37
 317 170 317 170 334 177.5 c 128,-1,38
 351 185 351 185 370 185 c 128,-1,39
 389 185 389 185 406 177.5 c 128,-1,40
 423 170 423 170 436 157 c 128,-1,41
 449 144 449 144 456.5 127 c 128,-1,42
 464 110 464 110 464 92 c 0,24,25
386 630 m 1,43,44
 325 474 325 474 279 362 c 128,-1,45
 233 250 233 250 201 173 c 1,46,-1
 156 57 l 2,47,48
 145 30 145 30 140 15 c 1,49,50
 126 -13 126 -13 117 -13 c 2,51,52
 116 -13 l 0,53,54
 98 -13 98 -13 97 4 c 1,55,56
 116 53 116 53 135.5 102 c 128,-1,57
 155 151 155 151 174 200 c 1,58,-1
 253 392 l 2,59,60
 289 482 289 482 308 528 c 128,-1,61
 327 574 327 574 328 578 c 0,62,63
 334 592 334 592 337.5 601 c 128,-1,64
 341 610 341 610 343 618 c 1,65,66
 359 647 359 647 368 647 c 0,67,68
 386 647 386 647 386 630 c 1,43,44
208 556 m 0,69,70
 208 536 208 536 201 517 c 128,-1,71
 194 498 194 498 181 484 c 128,-1,72
 168 470 168 470 150.5 462 c 128,-1,73
 133 454 133 454 114 454 c 0,74,75
 94 454 94 454 76.5 462 c 128,-1,76
 59 470 59 470 46.5 484 c 128,-1,77
 34 498 34 498 26.5 517 c 128,-1,78
 19 536 19 536 19 556 c 0,79,80
 19 574 19 574 27 591 c 128,-1,81
 35 608 35 608 47.5 621 c 128,-1,82
 60 634 60 634 77.5 641.5 c 128,-1,83
 95 649 95 649 114 649 c 128,-1,84
 133 649 133 649 150.5 642 c 128,-1,85
 168 635 168 635 181 622 c 128,-1,86
 194 609 194 609 201 592 c 128,-1,87
 208 575 208 575 208 556 c 0,69,70
EndSplineSet
Validated: 1
EndChar

StartChar: ampersand
Encoding: 38 38 10
Width: 432
GlyphClass: 2
Flags: W
LayerCount: 3
Fore
SplineSet
296 71 m 1,0,1
 213 179 213 179 141 336 c 1,2,3
 114 317 114 317 95 301.5 c 128,-1,4
 76 286 76 286 65 272 c 1,5,6
 28 230 28 230 28 182 c 0,7,8
 28 116 28 116 73 69 c 0,9,10
 119 22 119 22 185 22 c 0,11,12
 248 22 248 22 296 71 c 1,0,1
239 488 m 0,13,14
 239 516 239 516 222.5 539 c 128,-1,15
 206 562 206 562 179 562 c 0,16,17
 153 562 153 562 137 537 c 1,18,19
 123 513 123 513 123 487 c 0,20,21
 123 476 123 476 126 463 c 0,22,23
 134 436 134 436 141 415.5 c 128,-1,24
 148 395 148 395 154 382 c 1,25,26
 161 387 161 387 167.5 392 c 128,-1,27
 174 397 174 397 182 402 c 0,28,29
 239 443 239 443 239 488 c 0,13,14
449 285 m 0,30,31
 449 279 449 279 442 274 c 1,32,33
 418 247 418 247 383 247 c 0,34,35
 377 247 377 247 370 248 c 1,36,37
 371 237 371 237 371.5 225 c 128,-1,38
 372 213 372 213 372 202 c 0,39,40
 372 121 372 121 336 70 c 1,41,42
 372 28 372 28 397 22 c 0,43,44
 413 18 413 18 414 5 c 1,45,46
 414 -10 414 -10 397 -10 c 0,47,48
 385 -10 385 -10 375 -4 c 0,49,50
 367 0 367 0 358.5 5 c 128,-1,51
 350 10 350 10 343 18 c 0,52,53
 339 22 339 22 332.5 29 c 128,-1,54
 326 36 326 36 316 46 c 1,55,56
 264 -10 264 -10 185 -10 c 256,57,58
 106 -10 106 -10 51 46 c 256,59,60
 -4 102 -4 102 -4 182 c 0,61,62
 -4 237 -4 237 38 289 c 1,63,64
 71 326 71 326 128 365 c 1,65,66
 118 392 118 392 112 406.5 c 128,-1,67
 106 421 106 421 104 426 c 0,68,69
 91 463 91 463 91 487 c 0,70,71
 91 507 91 507 97 526.5 c 128,-1,72
 103 546 103 546 115 560.5 c 128,-1,73
 127 575 127 575 143 584 c 128,-1,74
 159 593 159 593 179 593 c 0,75,76
 198 593 198 593 215 584 c 128,-1,77
 232 575 232 575 244.5 561 c 128,-1,78
 257 547 257 547 263.5 528 c 128,-1,79
 270 509 270 509 270 488 c 0,80,81
 270 420 270 420 167 353 c 1,82,83
 237 205 237 205 316 96 c 1,84,85
 340 135 340 135 340 199 c 0,86,87
 340 218 340 218 338.5 233 c 128,-1,88
 337 248 337 248 335 259 c 1,89,90
 306 275 306 275 297 275 c 0,91,92
 290 275 290 275 276 265 c 0,93,94
 263 255 263 255 254 255 c 0,95,96
 239 255 239 255 239 270 c 0,97,98
 239 276 239 276 248 285 c 1,99,100
 281 306 281 306 296 306 c 2,101,102
 297 306 l 0,103,104
 311 306 311 306 319 302 c 0,105,106
 326 298 326 298 333 295 c 128,-1,107
 340 292 340 292 347 289 c 0,108,109
 363 280 363 280 375 280 c 0,110,111
 395 280 395 280 412 290 c 2,112,-1
 424 297 l 2,113,114
 428 300 428 300 432 300 c 0,115,116
 449 300 449 300 449 285 c 0,30,31
EndSplineSet
Validated: 1
EndChar

StartChar: quotesingle
Encoding: 39 39 11
Width: 177
GlyphClass: 2
Flags: W
LayerCount: 3
Fore
SplineSet
88 565 m 2,0,1
 88 546 88 546 67 546 c 0,2,3
 47 546 47 546 46 565 c 1,4,-1
 46 693 l 2,5,6
 46 712 46 712 67 713 c 1,7,8
 89 713 89 713 88 693 c 1,9,-1
 88 565 l 2,0,1
EndSplineSet
Validated: 1
EndChar

StartChar: parenleft
Encoding: 40 40 12
Width: 242
GlyphClass: 2
Flags: W
LayerCount: 3
Fore
SplineSet
197 -164 m 0,0,1
 197 -184 197 -184 175 -184 c 0,2,3
 165 -184 165 -184 159 -176 c 0,4,5
 91 -100 91 -100 40 55 c 0,6,7
 -7 195 -7 195 -7 313 c 0,8,9
 -7 432 -7 432 40 570 c 1,10,11
 87 715 87 715 159 802 c 0,12,13
 166 811 166 811 175 811 c 0,14,15
 197 811 197 811 197 790 c 0,16,17
 197 786 197 786 189 772 c 0,18,19
 174 746 174 746 162.5 727.5 c 128,-1,20
 151 709 151 709 142 695 c 1,21,22
 35 504 35 504 35 316 c 2,23,24
 35 313 l 0,25,26
 35 91 35 91 173 -119 c 0,27,28
 197 -155 197 -155 197 -164 c 0,0,1
EndSplineSet
Validated: 1
EndChar

StartChar: parenright
Encoding: 41 41 13
Width: 242
GlyphClass: 2
Flags: W
LayerCount: 3
Fore
SplineSet
251 313 m 256,0,1
 251 193 251 193 204 55 c 0,2,3
 151 -101 151 -101 84 -176 c 0,4,5
 78 -184 78 -184 68 -184 c 0,6,7
 46 -184 46 -184 46 -164 c 0,8,9
 46 -159 46 -159 50 -152 c 0,10,11
 208 92 208 92 208 313 c 0,12,13
 208 533 208 533 50 777 c 0,14,15
 46 784 46 784 46 790 c 0,16,17
 46 811 46 811 66 811 c 0,18,19
 67 811 67 811 68 811 c 0,20,21
 76 811 76 811 84 802 c 0,22,23
 154 717 154 717 204 570 c 0,24,25
 251 433 251 433 251 313 c 256,0,1
EndSplineSet
Validated: 1
EndChar

StartChar: asterisk
Encoding: 42 42 14
Width: 556
GlyphClass: 2
Flags: W
LayerCount: 3
Fore
SplineSet
131 72 m 0,0,1
 111 72 111 72 111 92 c 1,2,3
 112 101 112 101 117 106 c 2,4,-1
 248 232 l 1,5,-1
 127 357 l 1,6,7
 122 365 122 365 122 373 c 0,8,9
 124 392 124 392 141 392 c 0,10,11
 142 392 142 392 143 392 c 0,12,13
 151 392 151 392 158 386 c 2,14,-1
 278 262 l 1,15,-1
 409 388 l 2,16,17
 414 393 414 393 422 393 c 0,18,19
 441 392 441 392 442 373 c 0,20,21
 442 365 442 365 436 358 c 2,22,-1
 306 232 l 1,23,-1
 428 106 l 1,24,25
 433 98 433 98 433 92 c 0,26,27
 433 72 433 72 413 72 c 0,28,29
 404 72 404 72 397 78 c 2,30,-1
 276 204 l 1,31,-1
 145 78 l 2,32,33
 139 72 139 72 131 72 c 0,0,1
EndSplineSet
Validated: 1
EndChar

StartChar: plus
Encoding: 43 43 15
Width: 721
GlyphClass: 2
Flags: W
LayerCount: 3
Fore
SplineSet
577 255 m 256,0,1
 577 235 577 235 555 234 c 1,2,-1
 374 234 l 1,3,-1
 374 61 l 2,4,5
 374 41 374 41 352 41 c 0,6,7
 332 41 332 41 332 61 c 2,8,-1
 332 234 l 1,9,-1
 151 234 l 2,10,11
 132 234 132 234 131 255 c 0,12,13
 131 275 131 275 151 275 c 2,14,-1
 332 275 l 1,15,-1
 332 451 l 2,16,17
 332 471 332 471 352 471 c 0,18,19
 374 471 374 471 374 451 c 2,20,-1
 374 275 l 1,21,-1
 555 275 l 2,22,23
 577 275 577 275 577 255 c 256,0,1
EndSplineSet
Validated: 1
EndChar

StartChar: comma
Encoding: 44 44 16
Width: 132
GlyphClass: 2
Flags: W
LayerCount: 3
Fore
SplineSet
85 58 m 0,0,1
 85 23 85 23 76 -14 c 0,2,3
 61 -74 61 -74 24 -113 c 0,4,5
 -17 -157 -17 -157 -75 -157 c 0,6,7
 -95 -157 -95 -157 -95 -137 c 0,8,9
 -95 -118 -95 -118 -75 -118 c 0,10,11
 -56 -118 -56 -118 -38 -109 c 1,12,13
 3 -85 3 -85 24 -36 c 0,14,15
 43 6 43 6 43 58 c 0,16,17
 43 77 43 77 63 78 c 1,18,19
 85 77 85 77 85 58 c 0,0,1
EndSplineSet
Validated: 1
EndChar

StartChar: hyphen
Encoding: 45 45 17
AltUni2: 002010.ffffffff.0
Width: 485
GlyphClass: 2
Flags: W
LayerCount: 3
Fore
SplineSet
383 251 m 0,0,1
 383 232 383 232 362 231 c 1,2,-1
 100 231 l 2,3,4
 81 231 81 231 81 251 c 0,5,6
 81 269 81 269 100 269 c 2,7,-1
 362 269 l 2,8,9
 383 269 383 269 383 251 c 0,0,1
EndSplineSet
Validated: 1
EndChar

StartChar: period
Encoding: 46 46 18
Width: 141
GlyphClass: 2
Flags: W
LayerCount: 3
Fore
SplineSet
118 33 m 256,0,1
 118 17 118 17 103.5 5.5 c 128,-1,2
 89 -6 89 -6 72 -6 c 0,3,4
 54 -6 54 -6 39.5 4.5 c 128,-1,5
 25 15 25 15 25 33 c 0,6,7
 25 50 25 50 39 61 c 128,-1,8
 53 72 53 72 72 72 c 0,9,10
 89 72 89 72 103.5 60.5 c 128,-1,11
 118 49 118 49 118 33 c 256,0,1
EndSplineSet
Validated: 1
EndChar

StartChar: slash
Encoding: 47 47 19
Width: 485
GlyphClass: 2
Flags: W
LayerCount: 3
Fore
SplineSet
355 769 m 1,0,1
 354 768 354 768 354 767 c 2,2,-1
 171 2 l 1,3,4
 166 -13 166 -13 152 -13 c 0,5,6
 130 -13 130 -13 130 7 c 1,7,-1
 313 777 l 2,8,9
 317 792 317 792 334 793 c 1,10,11
 356 793 356 793 355 771 c 1,12,-1
 355 769 l 1,0,1
EndSplineSet
Validated: 1
EndChar

StartChar: zero
Encoding: 48 48 20
Width: 538
GlyphClass: 2
Flags: W
LayerCount: 3
Fore
SplineSet
518 318 m 0,0,1
 518 284 518 284 513 252 c 0,2,3
 507 213 507 213 499 187 c 0,4,5
 472 99 472 99 417 47 c 1,6,7
 350 -19 350 -19 269 -19 c 0,8,9
 268 -19 268 -19 267 -19 c 0,10,11
 209 -19 209 -19 162 10.5 c 128,-1,12
 115 40 115 40 79 96 c 1,13,14
 50 144 50 144 33 202 c 128,-1,15
 16 260 16 260 16 318 c 0,16,17
 16 354 16 354 22 389 c 128,-1,18
 28 424 28 424 39 457 c 0,19,20
 66 538 66 538 120 593 c 1,21,22
 186 655 186 655 268 655 c 0,23,24
 314 655 314 655 348 638 c 0,25,26
 431 599 431 599 476 505 c 0,27,28
 496 464 496 464 507 415.5 c 128,-1,29
 518 367 518 367 518 318 c 0,0,1
470 318 m 0,30,31
 470 385 470 385 451 443 c 0,32,33
 440 479 440 479 424.5 507.5 c 128,-1,34
 409 536 409 536 385 559 c 0,35,36
 335 609 335 609 268 609 c 0,37,38
 236 609 236 609 205 596 c 0,39,40
 132 563 132 563 96 478 c 1,41,42
 79 441 79 441 70.5 402.5 c 128,-1,43
 62 364 62 364 62 318 c 0,44,45
 62 266 62 266 75.5 218.5 c 128,-1,46
 89 171 89 171 112 127 c 1,47,48
 142 79 142 79 181.5 53 c 128,-1,49
 221 27 221 27 267 27 c 0,50,51
 301 27 301 27 331 43 c 1,52,53
 405 78 405 78 437 159 c 1,54,55
 470 232 470 232 470 318 c 0,30,31
EndSplineSet
Validated: 1
EndChar

StartChar: one
Encoding: 49 49 21
Width: 328
GlyphClass: 2
Flags: W
LayerCount: 3
Fore
SplineSet
255 6 m 2,0,1
 255 -16 255 -16 233 -16 c 0,2,3
 232 -16 232 -16 231 -16 c 0,4,5
 207 -16 207 -16 207 4 c 0,6,7
 207 5 207 5 207 6 c 2,8,-1
 206 559 l 1,9,10
 179 525 179 525 155.5 497 c 128,-1,11
 132 469 132 469 112.5 449 c 128,-1,12
 93 429 93 429 79.5 418.5 c 128,-1,13
 66 408 66 408 60 408 c 0,14,15
 38 408 38 408 38 429 c 0,16,17
 38 441 38 441 44 447 c 0,18,19
 79 483 79 483 102.5 509.5 c 128,-1,20
 126 536 126 536 138 553 c 1,21,22
 163 583 163 583 181.5 606 c 128,-1,23
 200 629 200 629 211 645 c 1,24,25
 220 655 220 655 231 655 c 0,26,27
 253 655 253 655 253 631 c 2,28,-1
 255 6 l 2,0,1
EndSplineSet
Validated: 1
EndChar

StartChar: two
Encoding: 50 50 22
Width: 497
GlyphClass: 2
Flags: W
LayerCount: 3
Fore
SplineSet
468 6 m 0,0,1
 468 -16 468 -16 445 -16 c 0,2,3
 444 -16 444 -16 443 -16 c 2,4,-1
 70 -16 l 2,5,6
 47 -16 47 -16 47 6 c 0,7,8
 47 96 47 96 140 189 c 0,9,10
 154 202 154 202 167.5 214 c 128,-1,11
 181 226 181 226 194 238 c 0,12,13
 233 274 233 274 263.5 301 c 128,-1,14
 294 328 294 328 311 342 c 1,15,-1
 311 341 l 1,16,17
 399 423 399 423 399 492 c 0,18,19
 399 516 399 516 386.5 538.5 c 128,-1,20
 374 561 374 561 353 579 c 1,21,22
 333 593 333 593 308.5 601.5 c 128,-1,23
 284 610 284 610 255 610 c 0,24,25
 178 610 178 610 128 554 c 1,26,27
 77 500 77 500 77 421 c 0,28,29
 77 399 77 399 54 399 c 0,30,31
 32 399 32 399 32 421 c 0,32,33
 32 517 32 517 96 586 c 128,-1,34
 160 655 160 655 252 655 c 2,35,36
 255 655 l 0,37,38
 331 655 331 655 385 612 c 0,39,40
 446 563 446 563 446 492 c 0,41,42
 446 411 446 411 357 324 c 1,43,44
 302 275 302 275 261.5 238 c 128,-1,45
 221 201 221 201 191 177 c 1,46,-1
 191 178 l 1,47,48
 147 137 147 137 123.5 101 c 128,-1,49
 100 65 100 65 94 29 c 1,50,-1
 443 29 l 2,51,52
 468 29 468 29 468 6 c 0,0,1
EndSplineSet
Validated: 1
EndChar

StartChar: three
Encoding: 51 51 23
Width: 503
GlyphClass: 2
Flags: W
LayerCount: 3
Fore
SplineSet
288 334 m 0,0,1
 314 334 314 334 337 343 c 1,2,3
 310 351 310 351 284 351 c 0,4,5
 280 351 280 351 274.5 350.5 c 128,-1,6
 269 350 269 350 264 349 c 0,7,8
 254 347 254 347 254 344 c 0,9,10
 254 342 254 342 258 340.5 c 128,-1,11
 262 339 262 339 267.5 337.5 c 128,-1,12
 273 336 273 336 279 335 c 128,-1,13
 285 334 285 334 288 334 c 0,0,1
481 208 m 0,14,15
 481 116 481 116 410 48 c 0,16,17
 340 -19 340 -19 249 -19 c 2,18,19
 246 -19 l 0,20,21
 161 -19 161 -19 94 33 c 1,22,23
 25 89 25 89 25 174 c 0,24,25
 25 175 25 175 25 176 c 0,26,27
 25 199 25 199 47 199 c 0,28,29
 72 199 72 199 72 176 c 0,30,31
 72 110 72 110 126 68 c 0,32,33
 152 49 152 49 182.5 38 c 128,-1,34
 213 27 213 27 246 27 c 0,35,36
 317 27 317 27 378 80 c 1,37,38
 435 134 435 134 435 208 c 0,39,40
 435 242 435 242 422 268.5 c 128,-1,41
 409 295 409 295 384 315 c 1,42,43
 344 288 344 288 292 288 c 0,44,45
 290 288 290 288 288 288 c 0,46,47
 263 288 263 288 239 302 c 0,48,49
 207 320 207 320 207 344 c 0,50,51
 207 369 207 369 236 385 c 0,52,53
 245 390 245 390 257 393.5 c 128,-1,54
 269 397 269 397 284 397 c 0,55,56
 311 397 311 397 334 391.5 c 128,-1,57
 357 386 357 386 381 373 c 1,58,59
 401 395 401 395 410.5 420 c 128,-1,60
 420 445 420 445 420 477 c 0,61,62
 420 532 420 532 365 572 c 1,63,-1
 366 572 l 1,64,65
 313 610 313 610 254 610 c 0,66,67
 206 610 206 610 161.5 585.5 c 128,-1,68
 117 561 117 561 92 520 c 1,69,70
 76 490 76 490 62 490 c 0,71,72
 40 490 40 490 40 511 c 0,73,74
 40 520 40 520 42 523 c 0,75,76
 55 553 55 553 77.5 577.5 c 128,-1,77
 100 602 100 602 128.5 619.5 c 128,-1,78
 157 637 157 637 189 646 c 128,-1,79
 221 655 221 655 254 655 c 0,80,81
 293 655 293 655 329 643 c 128,-1,82
 365 631 365 631 396 607 c 1,83,84
 429 580 429 580 447.5 548 c 128,-1,85
 466 516 466 516 466 477 c 0,86,87
 466 439 466 439 454.5 407.5 c 128,-1,88
 443 376 443 376 419 348 c 1,89,90
 452 319 452 319 466.5 286.5 c 128,-1,91
 481 254 481 254 481 208 c 0,14,15
EndSplineSet
Validated: 1
EndChar

StartChar: four
Encoding: 52 52 24
Width: 506
GlyphClass: 2
Flags: W
LayerCount: 3
Fore
SplineSet
477 217 m 0,0,1
 476 196 476 196 457 196 c 0,2,3
 455 196 455 196 454 196 c 0,4,5
 428 194 428 194 395 194 c 128,-1,6
 362 194 362 194 323 196 c 1,7,-1
 323 6 l 2,8,9
 323 -16 323 -16 300 -16 c 0,10,11
 299 -16 299 -16 298 -16 c 0,12,13
 275 -16 275 -16 275 6 c 2,14,-1
 275 196 l 1,15,16
 239 198 239 198 183 198 c 128,-1,17
 127 198 127 198 51 196 c 0,18,19
 50 196 50 196 49 196 c 0,20,21
 27 196 27 196 27 214 c 0,22,23
 27 225 27 225 31 229 c 1,24,25
 88 328 88 328 151 436 c 0,26,27
 264 630 264 630 271 644 c 0,28,29
 276 655 276 655 291 655 c 0,30,31
 316 655 316 655 316 634 c 0,32,33
 316 633 316 633 316 632 c 0,34,35
 316 627 316 627 312 621 c 0,36,37
 256 525 256 525 201.5 432 c 128,-1,38
 147 339 147 339 91 243 c 1,39,40
 128 244 128 244 160 244 c 0,41,42
 241 243 241 243 275 241 c 1,43,-1
 275 324 l 2,44,45
 275 347 275 347 296 347 c 0,46,47
 297 347 297 347 298 347 c 0,48,49
 323 347 323 347 323 324 c 2,50,-1
 323 239 l 1,51,52
 351 238 351 238 378 238 c 0,53,54
 424 239 424 239 453 240 c 0,55,56
 477 240 477 240 477 219 c 0,57,58
 477 218 477 218 477 217 c 0,0,1
EndSplineSet
Validated: 1
EndChar

StartChar: five
Encoding: 53 53 25
Width: 510
GlyphClass: 2
Flags: W
LayerCount: 3
Fore
SplineSet
480 213 m 0,0,1
 480 115 480 115 413 48 c 256,2,3
 346 -19 346 -19 252 -19 c 2,4,5
 249 -19 l 0,6,7
 161 -19 161 -19 96 42 c 1,8,9
 33 105 33 105 33 194 c 0,10,11
 33 216 33 216 53 216 c 0,12,13
 54 216 54 216 55 216 c 0,14,15
 79 216 79 216 79 194 c 0,16,17
 79 125 79 125 129 76 c 1,18,19
 181 27 181 27 249 27 c 0,20,21
 325 27 325 27 379 81 c 256,22,23
 433 135 433 135 433 213 c 0,24,25
 433 280 433 280 375 329 c 1,26,27
 348 349 348 349 315 360.5 c 128,-1,28
 282 372 282 372 246 372 c 0,29,30
 188 372 188 372 155.5 357.5 c 128,-1,31
 123 343 123 343 96 322 c 1,32,33
 88 312 88 312 79 312 c 0,34,35
 55 312 55 312 55 332 c 1,36,37
 56 334 56 334 56 337 c 0,38,39
 56 350 56 350 62 416 c 0,40,41
 64 438 64 438 64 464 c 2,42,-1
 64 473 l 2,43,44
 64 528 64 528 53 612 c 1,45,46
 53 655 53 655 80 655 c 0,47,48
 173 652 173 652 255.5 652 c 128,-1,49
 338 652 338 652 410 655 c 0,50,51
 433 655 433 655 433 633 c 0,52,53
 433 609 433 609 410 609 c 1,54,55
 331 605 331 605 240 605 c 0,56,57
 177 605 177 605 103 607 c 1,58,59
 114 533 114 533 114 466 c 0,60,61
 114 426 114 426 110 391 c 1,62,63
 164 419 164 419 233 419 c 2,64,-1
 246 419 l 1,65,66
 337 418 337 418 407 364 c 1,67,68
 480 302 480 302 480 213 c 0,0,1
EndSplineSet
Validated: 1
EndChar

StartChar: six
Encoding: 54 54 26
Width: 495
GlyphClass: 2
Flags: W
LayerCount: 3
Fore
SplineSet
442 133 m 0,0,1
 423 51 423 51 347 9 c 1,2,3
 296 -17 296 -17 244 -17 c 0,4,5
 217 -17 217 -17 190 -10 c 1,6,7
 75 15 75 15 37 124 c 0,8,9
 24 162 24 162 24 209 c 1,10,11
 25 255 25 255 35 304 c 1,12,13
 48 387 48 387 101 476 c 0,14,15
 152 562 152 562 241 610 c 0,16,17
 295 639 295 639 355 639 c 0,18,19
 377 639 377 639 399 635 c 1,20,21
 418 630 418 630 418 616 c 0,22,23
 418 612 418 612 417 608 c 0,24,25
 414 589 414 589 391 589 c 1,26,27
 376 591 376 591 361 591 c 0,28,29
 304 591 304 591 250 561 c 1,30,31
 129 486 129 486 87 323 c 1,32,33
 129 363 129 363 174 375 c 0,34,35
 204 383 204 383 233 383 c 1,36,37
 259 382 259 382 280 377 c 0,38,39
 364 359 364 359 413 286 c 0,40,41
 437 250 437 250 444 213 c 1,42,43
 446 210 446 210 448 180 c 0,44,45
 448 178 448 178 448 175 c 0,46,47
 448 157 448 157 442 133 c 0,0,1
397 143 m 0,48,49
 401 161 401 161 401 178 c 0,50,51
 401 223 401 223 374 262 c 0,52,53
 337 316 337 316 269 332 c 0,54,55
 249 336 249 336 229 336 c 0,56,57
 185 336 185 336 148 314 c 1,58,59
 118 298 118 298 100.5 274 c 128,-1,60
 83 250 83 250 75 219 c 0,61,62
 71 202 71 202 71 186 c 0,63,64
 71 143 71 143 97 102 c 1,65,-1
 98 103 l 1,66,67
 117 76 117 76 142.5 59 c 128,-1,68
 168 42 168 42 201 35 c 0,69,70
 219 31 219 31 238 31 c 0,71,72
 242 31 242 31 246 31 c 2,73,-1
 262 32 l 1,74,75
 294 36 294 36 324 50 c 1,76,77
 383 82 383 82 397 143 c 0,48,49
EndSplineSet
Validated: 1
EndChar

StartChar: seven
Encoding: 55 55 27
Width: 543
GlyphClass: 2
Flags: W
LayerCount: 3
Fore
SplineSet
528 634 m 0,0,1
 528 628 528 628 524 621 c 2,2,-1
 344 352 l 1,3,4
 358 351 358 351 373 351 c 0,5,6
 408 351 408 351 446 356 c 1,7,8
 471 356 471 356 471 333 c 0,9,10
 471 316 471 316 451 310 c 1,11,12
 409 305 409 305 362 305 c 0,13,14
 338 305 338 305 313 306 c 1,15,16
 260 227 260 227 208 150 c 128,-1,17
 156 73 156 73 102 -6 c 0,18,19
 95 -16 95 -16 84 -16 c 0,20,21
 61 -16 61 -16 61 6 c 0,22,23
 61 9 61 9 62 11 c 0,24,25
 62 13 62 13 62.5 14.5 c 128,-1,26
 63 16 63 16 63 18 c 1,27,-1
 258 309 l 1,28,29
 217 311 217 311 178 311 c 0,30,31
 149 311 149 311 122 310 c 0,32,33
 98 310 98 310 98 333 c 0,34,35
 98 357 98 357 132 357 c 2,36,37
 135 357 l 0,38,39
 148 357 148 357 161 357 c 2,40,-1
 289 353 l 1,41,42
 334 419 334 419 374 480 c 128,-1,43
 414 541 414 541 459 606 c 1,44,45
 367 602 367 602 275 602 c 0,46,47
 156 602 156 602 38 609 c 1,48,49
 14 609 14 609 14 633 c 128,-1,50
 14 657 14 657 54 657 c 0,51,52
 57 657 57 657 60 657 c 0,53,54
 197 649 197 649 315 649 c 0,55,56
 417 649 417 649 505 655 c 0,57,58
 506 655 506 655 507 655 c 0,59,60
 528 655 528 655 528 634 c 0,0,1
EndSplineSet
Validated: 1
EndChar

StartChar: eight
Encoding: 56 56 28
Width: 503
GlyphClass: 2
Flags: W
LayerCount: 3
Fore
SplineSet
475 172 m 0,0,1
 475 131 475 131 456.5 96 c 128,-1,2
 438 61 438 61 406 35 c 1,3,4
 340 -16 340 -16 254 -16 c 0,5,6
 235 -16 235 -16 216 -13.5 c 128,-1,7
 197 -11 197 -11 176 -5 c 0,8,9
 147 3 147 3 120.5 19 c 128,-1,10
 94 35 94 35 74 53 c 1,11,12
 27 100 27 100 27 162 c 0,13,14
 27 222 27 222 59 270 c 128,-1,15
 91 318 91 318 146 341 c 1,16,17
 102 365 102 365 82 402 c 128,-1,18
 62 439 62 439 62 487 c 0,19,20
 62 557 62 557 119 607 c 0,21,22
 173 655 173 655 248 655 c 256,23,24
 323 655 323 655 378 607 c 1,25,26
 435 559 435 559 435 484 c 0,27,28
 435 391 435 391 345 342 c 1,29,30
 414 315 414 315 444.5 273.5 c 128,-1,31
 475 232 475 232 475 172 c 0,0,1
389 484 m 0,32,33
 389 511 389 511 378 533.5 c 128,-1,34
 367 556 367 556 346 573 c 0,35,36
 324 590 324 590 299.5 599.5 c 128,-1,37
 275 609 275 609 248 609 c 0,38,39
 192 609 192 609 151 574 c 0,40,41
 108 538 108 538 108 487 c 0,42,43
 108 447 108 447 129.5 417 c 128,-1,44
 151 387 151 387 189 372 c 1,45,46
 221 361 221 361 269 360 c 0,47,48
 287 360 287 360 316 373.5 c 128,-1,49
 345 387 345 387 367 416.5 c 128,-1,50
 389 446 389 446 389 484 c 0,32,33
429 172 m 0,51,52
 429 268 429 268 308 305 c 1,53,54
 274 312 274 312 239 312 c 1,55,-1
 216 311 l 2,56,57
 155 308 155 308 115 265 c 1,58,59
 74 224 74 224 74 162 c 0,60,61
 74 128 74 128 91 104 c 0,62,63
 143 30 143 30 251 30 c 2,64,65
 254 30 l 0,66,67
 322 30 322 30 372 68 c 1,68,69
 429 109 429 109 429 172 c 0,51,52
EndSplineSet
Validated: 1
EndChar

StartChar: nine
Encoding: 57 57 29
Width: 499
GlyphClass: 2
Flags: W
LayerCount: 3
Fore
SplineSet
439 298 m 0,0,1
 428 135 428 135 355 54 c 1,2,3
 295 -4 295 -4 193 -4 c 0,4,5
 135 -4 135 -4 63 15 c 0,6,7
 41 20 41 20 41 37 c 0,8,9
 41 43 41 43 44 50 c 0,10,11
 49 67 49 67 74 70 c 1,12,13
 140 49 140 49 193 49 c 0,14,15
 272 49 272 49 326 95 c 1,16,17
 382 161 382 161 395 307 c 1,18,19
 377 287 377 287 365 279 c 0,20,21
 340 262 340 262 306 251 c 0,22,23
 270 239 270 239 233 239 c 0,24,25
 212 239 212 239 191 243 c 0,26,27
 108 259 108 259 59 326 c 1,28,-1
 59 325 l 1,29,30
 30 361 30 361 23 400 c 0,31,32
 20 417 20 417 20 435 c 0,33,34
 20 458 20 458 25 482 c 0,35,36
 40 562 40 562 116 607 c 1,37,38
 168 639 168 639 227 639 c 0,39,40
 248 639 248 639 270 635 c 0,41,42
 290 631 290 631 310.5 623 c 128,-1,43
 331 615 331 615 347 605 c 0,44,45
 377 588 377 588 399 556.5 c 128,-1,46
 421 525 421 525 431 489 c 1,47,48
 442 441 442 441 442 374 c 0,49,50
 442 339 442 339 439 298 c 0,0,1
394 406 m 0,51,52
 397 421 397 421 397 435 c 0,53,54
 397 481 397 481 367 521 c 1,55,56
 328 576 328 576 261 591 c 0,57,58
 246 594 246 594 230 594 c 1,59,-1
 139 567 l 1,60,61
 83 535 83 535 71 473 c 0,62,63
 68 456 68 456 68 439 c 0,64,65
 68 392 68 392 95 352 c 1,66,67
 135 301 135 301 200 287 c 0,68,69
 217 284 217 284 233 284 c 1,70,-1
 322 307 l 1,71,-1
 322 306 l 1,72,73
 382 341 382 341 394 406 c 0,51,52
EndSplineSet
Validated: 1
EndChar

StartChar: colon
Encoding: 58 58 30
Width: 303
GlyphClass: 2
Flags: W
LayerCount: 3
Fore
SplineSet
178 38 m 256,0,1
 178 20 178 20 164 7 c 128,-1,2
 150 -6 150 -6 131 -6 c 0,3,4
 113 -6 113 -6 99 6.5 c 128,-1,5
 85 19 85 19 85 38 c 0,6,7
 85 56 85 56 99 69 c 128,-1,8
 113 82 113 82 131 82 c 256,9,10
 149 82 149 82 163.5 69 c 128,-1,11
 178 56 178 56 178 38 c 256,0,1
178 242 m 256,12,13
 178 224 178 224 164 211 c 128,-1,14
 150 198 150 198 131 198 c 0,15,16
 113 198 113 198 99 210.5 c 128,-1,17
 85 223 85 223 85 242 c 0,18,19
 85 260 85 260 99 273.5 c 128,-1,20
 113 287 113 287 131 287 c 256,21,22
 149 287 149 287 163.5 273.5 c 128,-1,23
 178 260 178 260 178 242 c 256,12,13
EndSplineSet
Validated: 1
EndChar

StartChar: semicolon
Encoding: 59 59 31
Width: 125
GlyphClass: 2
Flags: W
LayerCount: 3
Fore
SplineSet
85 65 m 0,0,1
 85 29 85 29 76 -9 c 0,2,3
 62 -66 62 -66 25 -110 c 1,4,5
 -16 -157 -16 -157 -75 -157 c 0,6,7
 -95 -157 -95 -157 -95 -136 c 0,8,9
 -95 -116 -95 -116 -75 -116 c 256,10,11
 -55 -116 -55 -116 -37 -106 c 0,12,13
 2 -82 2 -82 24 -32 c 0,14,15
 43 11 43 11 43 65 c 0,16,17
 43 85 43 85 63 85 c 0,18,19
 85 85 85 85 85 65 c 0,0,1
104 241 m 256,20,21
 104 223 104 223 90.5 209.5 c 128,-1,22
 77 196 77 196 58 196 c 256,23,24
 39 196 39 196 25 208.5 c 128,-1,25
 11 221 11 221 11 241 c 0,26,27
 11 260 11 260 25 273.5 c 128,-1,28
 39 287 39 287 58 287 c 0,29,30
 76 287 76 287 90 273 c 128,-1,31
 104 259 104 259 104 241 c 256,20,21
EndSplineSet
Validated: 1
EndChar

StartChar: less
Encoding: 60 60 32
Width: 484
GlyphClass: 2
Flags: W
LayerCount: 3
Fore
SplineSet
292 165 m 0,0,1
 292 145 292 145 269 144 c 0,2,3
 260 144 260 144 253 154 c 2,4,-1
 104 347 l 2,5,6
 101 350 101 350 101 359 c 256,7,8
 101 368 101 368 104 372 c 2,9,-1
 253 565 l 2,10,11
 259 573 259 573 269 573 c 0,12,13
 292 573 292 573 292 553 c 0,14,15
 292 547 292 547 287 542 c 2,16,-1
 146 359 l 1,17,-1
 287 178 l 2,18,19
 292 170 292 170 292 165 c 0,0,1
EndSplineSet
Validated: 1
EndChar

StartChar: equal
Encoding: 61 61 33
Width: 889
GlyphClass: 2
Flags: W
LayerCount: 3
Fore
SplineSet
669 178 m 0,0,1
 669 159 669 159 647 159 c 2,2,-1
 244 159 l 2,3,4
 224 159 224 159 223 178 c 0,5,6
 223 196 223 196 244 197 c 1,7,-1
 647 197 l 1,8,9
 669 196 669 196 669 178 c 0,0,1
669 287 m 0,10,11
 669 269 669 269 647 268 c 1,12,-1
 243 268 l 2,13,14
 224 268 224 268 223 287 c 0,15,16
 223 306 223 306 243 306 c 2,17,-1
 647 306 l 2,18,19
 669 306 669 306 669 287 c 0,10,11
EndSplineSet
Validated: 1
EndChar

StartChar: greater
Encoding: 62 62 34
Width: 484
GlyphClass: 2
Flags: W
LayerCount: 3
Fore
SplineSet
385 362 m 0,0,1
 385 355 385 355 381 351 c 2,2,-1
 231 157 l 2,3,4
 225 149 225 149 215 148 c 1,5,6
 194 148 194 148 194 167 c 0,7,8
 194 177 194 177 198 181 c 2,9,-1
 338 362 l 1,10,-1
 198 545 l 2,11,12
 194 549 194 549 194 557 c 0,13,14
 194 577 194 577 215 578 c 0,15,16
 225 578 225 578 231 569 c 2,17,-1
 381 375 l 2,18,19
 385 370 385 370 385 362 c 0,0,1
EndSplineSet
Validated: 1
EndChar

StartChar: question
Encoding: 63 63 35
Width: 545
GlyphClass: 2
Flags: W
LayerCount: 3
Fore
SplineSet
274 40 m 256,0,1
 274 22 274 22 260.5 8 c 128,-1,2
 247 -6 247 -6 228 -6 c 128,-1,3
 209 -6 209 -6 195 7 c 128,-1,4
 181 20 181 20 181 40 c 0,5,6
 181 59 181 59 195 72 c 128,-1,7
 209 85 209 85 228 85 c 0,8,9
 246 85 246 85 260 71.5 c 128,-1,10
 274 58 274 58 274 40 c 256,0,1
481 594 m 0,11,12
 481 554 481 554 467 522 c 1,13,14
 443 472 443 472 383 431 c 0,15,16
 333 396 333 396 294 360 c 1,17,18
 251 322 251 322 251 246 c 0,19,20
 251 197 251 197 252 171 c 0,21,22
 252 147 252 147 227 147 c 0,23,24
 207 147 207 147 207 171 c 0,25,26
 209 232 209 232 209 246 c 0,27,28
 209 326 209 326 249 371 c 0,29,30
 256 379 256 379 277 400 c 128,-1,31
 298 421 298 421 345 455 c 0,32,33
 387 485 387 485 411 512 c 1,34,35
 439 546 439 546 439 591 c 2,36,37
 439 594 l 0,38,39
 439 669 439 669 374 712 c 0,40,41
 314 751 314 751 237 751 c 0,42,43
 158 751 158 751 101 713 c 0,44,45
 36 670 36 670 36 596 c 0,46,47
 36 595 36 595 36 594 c 0,48,49
 36 574 36 574 14 573 c 0,50,51
 -6 573 -6 573 -6 594 c 0,52,53
 -6 643 -6 643 15 680 c 0,54,55
 47 735 47 735 111 765 c 0,56,57
 170 792 170 792 237 792 c 0,58,59
 280 792 280 792 325 779 c 0,60,61
 393 760 393 760 435 714 c 0,62,63
 481 663 481 663 481 594 c 0,11,12
EndSplineSet
Validated: 1
EndChar

StartChar: at
Encoding: 64 64 36
Width: 595
GlyphClass: 2
Flags: W
LayerCount: 3
Fore
SplineSet
385 308 m 256,0,1
 385 327 385 327 378.5 344.5 c 128,-1,2
 372 362 372 362 359.5 375.5 c 128,-1,3
 347 389 347 389 330 396.5 c 128,-1,4
 313 404 313 404 294 404 c 0,5,6
 276 404 276 404 259.5 396.5 c 128,-1,7
 243 389 243 389 230.5 375.5 c 128,-1,8
 218 362 218 362 211 345 c 128,-1,9
 204 328 204 328 204 308 c 0,10,11
 204 289 204 289 210.5 271.5 c 128,-1,12
 217 254 217 254 229.5 240.5 c 128,-1,13
 242 227 242 227 258 219.5 c 128,-1,14
 274 212 274 212 294 212 c 0,15,16
 313 212 313 212 330 219.5 c 128,-1,17
 347 227 347 227 359.5 240.5 c 128,-1,18
 372 254 372 254 378.5 271.5 c 128,-1,19
 385 289 385 289 385 308 c 256,0,1
559 311 m 0,20,21
 559 261 559 261 531 223 c 0,22,23
 498 180 498 180 453 180 c 0,24,25
 400 180 400 180 387 225 c 1,26,27
 350 180 350 180 294 180 c 0,28,29
 243 180 243 180 208 218 c 0,30,31
 172 257 172 257 172 308 c 256,32,33
 172 359 172 359 207 397 c 0,34,35
 243 436 243 436 294 436 c 0,36,37
 349 436 349 436 385 394 c 1,38,-1
 385 406 l 2,39,40
 385 409 385 409 385 412 c 0,41,42
 385 433 385 433 399 433 c 2,43,44
 400 433 l 0,45,46
 416 433 416 433 417 418 c 1,47,-1
 417 245 l 2,48,49
 417 212 417 212 453 212 c 0,50,51
 487 212 487 212 508 246 c 0,52,53
 526 275 526 275 526 311 c 0,54,55
 526 403 526 403 459 468 c 1,56,57
 393 534 393 534 298 534 c 0,58,59
 206 534 206 534 138 469 c 0,60,61
 71 405 71 405 71 314 c 2,62,-1
 71 311 l 2,63,64
 71 220 71 220 137 154 c 128,-1,65
 203 88 203 88 298 88 c 0,66,67
 314 88 314 88 314 73 c 0,68,69
 314 57 314 57 298 56 c 1,70,71
 193 56 193 56 116 130 c 0,72,73
 39 205 39 205 39 311 c 0,74,75
 39 416 39 416 115 490 c 1,76,77
 190 565 190 565 298 565 c 0,78,79
 404 565 404 565 481 492 c 0,80,81
 559 417 559 417 559 311 c 0,20,21
EndSplineSet
Validated: 1
EndChar

StartChar: A
Encoding: 65 65 37
Width: 903
GlyphClass: 2
Flags: W
LayerCount: 3
Fore
SplineSet
512 749 m 0,0,1
 512 812 512 812 506 845 c 0,2,3
 492 912 492 912 458 912 c 2,4,5
 457 912 l 0,6,7
 414 912 414 912 395 848 c 1,8,9
 387 825 387 825 384 800 c 128,-1,10
 381 775 381 775 381 748 c 0,11,12
 381 733 381 733 380.5 709.5 c 128,-1,13
 380 686 380 686 379 653 c 0,14,15
 378 621 378 621 377.5 598 c 128,-1,16
 377 575 377 575 377 560 c 1,17,18
 420 550 420 550 449 542 c 128,-1,19
 478 534 478 534 499 527 c 1,20,21
 506 604 506 604 509 659 c 128,-1,22
 512 714 512 714 512 749 c 0,0,1
885 201 m 0,23,24
 885 112 885 112 824 48 c 0,25,26
 764 -15 764 -15 678 -15 c 0,27,28
 561 -15 561 -15 516 110 c 0,29,30
 502 149 502 149 495.5 204.5 c 128,-1,31
 489 260 489 260 489 335 c 0,32,33
 489 388 489 388 496 477 c 1,34,35
 456 488 456 488 426 496 c 128,-1,36
 396 504 396 504 377 509 c 1,37,-1
 377 403 l 1,38,39
 378 387 378 387 378 370 c 0,40,41
 378 329 378 329 374 289 c 1,42,43
 364 155 364 155 314 78 c 0,44,45
 255 -15 255 -15 130 -15 c 0,46,47
 107 -15 107 -15 92 -11 c 0,48,49
 14 7 14 7 14 66 c 0,50,51
 14 96 14 96 35.5 116.5 c 128,-1,52
 57 137 57 137 87 137 c 0,53,54
 112 137 112 137 112 112 c 0,55,56
 112 94 112 94 87 87 c 0,57,58
 62 79 62 79 62 66 c 0,59,60
 62 57 62 57 72 49 c 1,61,62
 88 33 88 33 130 33 c 0,63,64
 255 33 255 33 298 156 c 1,65,66
 327 233 327 233 327 385 c 2,67,-1
 327 516 l 1,68,-1
 321 516 l 1,69,70
 318 517 318 517 313 517 c 0,71,72
 302 517 302 517 288.5 513 c 128,-1,73
 275 509 275 509 261 502 c 0,74,75
 233 487 233 487 231 486 c 1,76,77
 207 486 207 486 207 508 c 0,78,79
 207 516 207 516 209.5 520.5 c 128,-1,80
 212 525 212 525 216 530 c 0,81,82
 252 566 252 566 312 566 c 0,83,84
 319 566 319 566 327 565 c 1,85,86
 327 580 327 580 327.5 603 c 128,-1,87
 328 626 328 626 329 656 c 0,88,89
 330 687 330 687 330.5 709.5 c 128,-1,90
 331 732 331 732 331 748 c 0,91,92
 331 826 331 826 357 885 c 0,93,94
 391 963 391 963 457 963 c 0,95,96
 495 963 495 963 515 938 c 1,97,98
 562 888 562 888 562 743 c 0,99,100
 562 713 562 713 561 685 c 128,-1,101
 560 657 560 657 558 630 c 2,102,-1
 548 518 l 1,103,104
 556 517 556 517 564 516.5 c 128,-1,105
 572 516 572 516 582 516 c 0,106,107
 605 516 605 516 632 538 c 0,108,109
 661 561 661 561 667 561 c 2,110,111
 668 561 l 0,112,113
 692 561 692 561 692 537 c 0,114,115
 692 527 692 527 684 518 c 0,116,117
 632 466 632 466 582 466 c 0,118,119
 573 466 573 466 563.5 467 c 128,-1,120
 554 468 554 468 544 469 c 1,121,122
 542 425 542 425 540.5 389 c 128,-1,123
 539 353 539 353 539 326 c 0,124,125
 539 265 539 265 543 219.5 c 128,-1,126
 547 174 547 174 556 142 c 0,127,128
 589 33 589 33 676 33 c 0,129,130
 677 33 677 33 678 33 c 0,131,132
 744 33 744 33 790 82 c 0,133,134
 836 132 836 132 836 201 c 0,135,136
 836 225 836 225 819.5 244 c 128,-1,137
 803 263 803 263 779 263 c 0,138,139
 763 263 763 263 757 256 c 0,140,141
 755 254 755 254 744 226 c 1,142,143
 740 210 740 210 723 210 c 0,144,145
 699 210 699 210 699 234 c 0,146,147
 699 267 699 267 722.5 289.5 c 128,-1,148
 746 312 746 312 779 312 c 0,149,150
 802 312 802 312 821 303.5 c 128,-1,151
 840 295 840 295 854 279.5 c 128,-1,152
 868 264 868 264 876.5 244 c 128,-1,153
 885 224 885 224 885 201 c 0,23,24
EndSplineSet
Validated: 1
EndChar

StartChar: B
Encoding: 66 66 38
Width: 912
GlyphClass: 2
Flags: W
LayerCount: 3
Fore
SplineSet
634 505 m 1,0,1
 591 510 591 510 570 512.5 c 128,-1,2
 549 515 549 515 547 515 c 0,3,4
 512 515 512 515 512 498 c 0,5,6
 512 490 512 490 525 484.5 c 128,-1,7
 538 479 538 479 547 479 c 0,8,9
 596 479 596 479 634 505 c 1,0,1
495 871 m 0,10,11
 495 847 495 847 471 847 c 0,12,13
 470 847 470 847 469 847 c 0,14,15
 450 847 450 847 437 775 c 1,16,17
 425 690 425 690 425 571 c 2,18,-1
 425 531 l 1,19,-1
 425 493 l 1,20,-1
 425 468 l 2,21,22
 425 455 425 455 426 438 c 0,23,24
 427 424 427 424 427 410 c 2,25,-1
 427 385 l 1,26,-1
 427 347 l 2,27,28
 427 190 427 190 382 102 c 0,29,30
 323 -14 323 -14 182 -14 c 0,31,32
 181 -14 181 -14 180 -14 c 0,33,34
 172 -14 172 -14 162.5 -13 c 128,-1,35
 153 -12 153 -12 142 -10 c 0,36,37
 63 8 63 8 63 67 c 0,38,39
 63 98 63 98 85.5 120.5 c 128,-1,40
 108 143 108 143 137 143 c 0,41,42
 162 143 162 143 162 118 c 0,43,44
 162 105 162 105 156 100 c 1,45,46
 142 95 142 95 128 89 c 128,-1,47
 114 83 114 83 114 67 c 0,48,49
 114 56 114 56 122 50 c 1,50,51
 138 34 138 34 180 34 c 0,52,53
 298 34 298 34 345 139 c 0,54,55
 376 210 376 210 376 347 c 0,56,57
 376 364 376 364 375 391.5 c 128,-1,58
 374 419 374 419 373 456 c 0,59,60
 372 474 372 474 372 489 c 2,61,-1
 372 520 l 1,62,-1
 372 565 l 1,63,-1
 372 613 l 1,64,65
 375 748 375 748 401 825 c 0,66,67
 426 896 426 896 469 896 c 0,68,69
 495 896 495 896 495 871 c 0,10,11
894 267 m 0,70,71
 894 148 894 148 815 67 c 0,72,73
 737 -14 737 -14 617 -14 c 0,74,75
 538 -14 538 -14 488 41 c 0,76,77
 436 97 436 97 436 176 c 0,78,79
 436 230 436 230 475 272 c 0,80,81
 512 312 512 312 571 312 c 0,82,83
 597 312 597 312 597 289 c 0,84,85
 597 263 597 263 571 263 c 0,86,87
 535 263 535 263 510 238 c 128,-1,88
 485 213 485 213 485 176 c 0,89,90
 485 118 485 118 522 78 c 1,91,92
 559 34 559 34 617 34 c 0,93,94
 715 34 715 34 779 100 c 0,95,96
 845 167 845 167 845 267 c 0,97,98
 845 336 845 336 799 397 c 0,99,100
 757 452 757 452 689 484 c 1,101,102
 678 472 678 472 661 462.5 c 128,-1,103
 644 453 644 453 624.5 446 c 128,-1,104
 605 439 605 439 585 435 c 128,-1,105
 565 431 565 431 547 431 c 0,106,107
 518 431 518 431 490 450 c 1,108,109
 457 474 457 474 458 498 c 1,110,111
 458 526 458 526 490 546 c 0,112,113
 518 563 518 563 547 563 c 0,114,115
 579 563 579 563 611 558.5 c 128,-1,116
 643 554 643 554 676 543 c 1,117,118
 735 612 735 612 735 700 c 0,119,120
 735 747 735 747 707 792 c 0,121,122
 631 914 631 914 420 914 c 2,123,-1
 417 914 l 2,124,125
 343 914 343 914 273 891 c 0,126,127
 188 862 188 862 130 804 c 0,128,129
 65 739 65 739 65 655 c 0,130,131
 65 616 65 616 100 584 c 1,132,133
 138 554 138 554 173 554 c 0,134,135
 214 554 214 554 241 594 c 1,136,137
 264 631 264 631 264 669 c 0,138,139
 264 696 264 696 286 696 c 0,140,141
 287 696 287 696 288 696 c 0,142,143
 314 696 314 696 313 672 c 1,144,145
 313 606 313 606 275 559 c 1,146,147
 235 505 235 505 173 505 c 0,148,149
 116 505 116 505 65 550 c 0,150,151
 16 594 16 594 15 652 c 1,152,153
 15 795 15 795 150 885 c 1,154,155
 269 963 269 963 417 963 c 0,156,157
 448 963 448 963 478.5 959.5 c 128,-1,158
 509 956 509 956 542 948 c 0,159,160
 646 926 646 926 709 867 c 1,161,162
 785 800 785 800 784 700 c 1,163,164
 784 597 784 597 725 522 c 1,165,166
 894 433 894 433 894 267 c 0,70,71
EndSplineSet
Validated: 33
EndChar

StartChar: C
Encoding: 67 67 39
Width: 688
GlyphClass: 2
Flags: W
LayerCount: 3
Fore
SplineSet
569 833 m 0,0,1
 569 848 569 848 564.5 862.5 c 128,-1,2
 560 877 560 877 551.5 888.5 c 128,-1,3
 543 900 543 900 531 907 c 128,-1,4
 519 914 519 914 504 914 c 0,5,6
 438 914 438 914 385 881 c 1,7,8
 243 789 243 789 182 562 c 1,9,10
 210 554 210 554 232 554 c 0,11,12
 262 554 262 554 291.5 559 c 128,-1,13
 321 564 321 564 351 574 c 1,14,15
 443 601 443 601 504 669 c 0,16,17
 569 741 569 741 569 833 c 0,0,1
659 193 m 0,18,19
 659 103 659 103 584 41 c 1,20,21
 513 -14 513 -14 420 -14 c 0,22,23
 283 -14 283 -14 191 101 c 0,24,25
 109 205 109 205 109 350 c 0,26,27
 109 405 109 405 113 450 c 128,-1,28
 117 495 117 495 126 534 c 1,29,30
 17 599 17 599 17 737 c 0,31,32
 17 835 17 835 98 901 c 1,33,34
 175 962 175 962 275 963 c 0,35,36
 301 963 301 963 301 938 c 0,37,38
 301 914 301 914 275 914 c 0,39,40
 195 914 195 914 133 867 c 0,41,42
 66 816 66 816 67 737 c 1,43,44
 67 640 67 640 136 586 c 1,45,46
 144 619 144 619 156.5 651.5 c 128,-1,47
 169 684 169 684 184 718 c 1,48,49
 237 824 237 824 310 888 c 1,50,51
 398 963 398 963 504 963 c 0,52,53
 530 963 530 963 551 952.5 c 128,-1,54
 572 942 572 942 587.5 924 c 128,-1,55
 603 906 603 906 612 882.5 c 128,-1,56
 621 859 621 859 621 833 c 0,57,58
 621 691 621 691 497 594 c 1,59,60
 381 506 381 506 232 506 c 0,61,62
 215 506 215 506 200.5 508.5 c 128,-1,63
 186 511 186 511 172 515 c 1,64,65
 165 478 165 478 162 437.5 c 128,-1,66
 159 397 159 397 159 353 c 0,67,68
 159 324 159 324 163 296 c 128,-1,69
 167 268 167 268 176 241 c 0,70,71
 204 154 204 154 264 96 c 1,72,73
 330 34 330 34 420 34 c 0,74,75
 492 34 492 34 549 76 c 1,76,77
 610 123 610 123 610 193 c 0,78,79
 610 220 610 220 591.5 241.5 c 128,-1,80
 573 263 573 263 547 263 c 0,81,82
 536 263 536 263 529 262 c 128,-1,83
 522 261 522 261 517.5 257.5 c 128,-1,84
 513 254 513 254 509.5 247.5 c 128,-1,85
 506 241 506 241 501 230 c 0,86,87
 495 216 495 216 480 216 c 0,88,89
 454 216 454 216 455 242 c 1,90,91
 455 274 455 274 485 295 c 0,92,93
 510 312 510 312 547 312 c 0,94,95
 594 312 594 312 627 276 c 0,96,97
 659 241 659 241 659 193 c 0,18,19
EndSplineSet
Validated: 33
EndChar

StartChar: D
Encoding: 68 68 40
Width: 865
GlyphClass: 2
Flags: W
LayerCount: 3
Fore
SplineSet
237 54 m 1,0,1
 169 84 169 84 136 84 c 0,2,3
 109 84 109 84 97 80 c 1,4,5
 69 74 69 74 70 58 c 1,6,7
 70 34 70 34 131 34 c 0,8,9
 133 34 133 34 136 34 c 0,10,11
 191 34 191 34 237 54 c 1,0,1
845 507 m 0,12,13
 845 302 845 302 765 160 c 0,14,15
 668 -14 668 -14 477 -14 c 0,16,17
 385 -14 385 -14 290 30 c 1,18,19
 228 -14 228 -14 136 -14 c 0,20,21
 121 -14 121 -14 99 -11 c 1,22,23
 19 4 19 4 19 58 c 0,24,25
 19 94 19 94 60 117 c 1,26,27
 98 134 98 134 136 134 c 0,28,29
 181 134 181 134 284 86 c 1,30,31
 376 169 376 169 376 345 c 0,32,33
 376 365 376 365 375.5 394 c 128,-1,34
 375 423 375 423 374 462 c 256,35,36
 373 501 373 501 372.5 530 c 128,-1,37
 372 559 372 559 372 579 c 2,38,-1
 372 625 l 1,39,40
 375 758 375 758 399.5 826 c 128,-1,41
 424 894 424 894 467 894 c 0,42,43
 493 894 493 894 493 869 c 0,44,45
 493 845 493 845 469 845 c 0,46,47
 468 845 468 845 467 845 c 0,48,49
 448 845 448 845 437 780 c 1,50,51
 429 741 429 741 426 694.5 c 128,-1,52
 423 648 423 648 423 595 c 2,53,-1
 423 560 l 2,54,55
 423 543 423 543 423.5 515.5 c 128,-1,56
 424 488 424 488 425 453 c 0,57,58
 426 417 426 417 426.5 390.5 c 128,-1,59
 427 364 427 364 427 345 c 0,60,61
 427 164 427 164 332 65 c 1,62,63
 367 49 367 49 403 41.5 c 128,-1,64
 439 34 439 34 477 34 c 0,65,66
 645 34 645 34 728 196 c 1,67,68
 795 329 795 329 795 507 c 0,69,70
 795 673 795 673 674 794 c 0,71,72
 554 914 554 914 390 914 c 2,73,-1
 387 914 l 2,74,75
 269 914 269 914 173 843 c 1,76,77
 69 764 69 764 69 647 c 0,78,79
 69 621 69 621 76 594 c 0,80,81
 104 486 104 486 186 486 c 0,82,83
 220 486 220 486 241 507 c 0,84,85
 299 562 299 562 299 678 c 0,86,87
 299 702 299 702 321 702 c 0,88,89
 322 702 322 702 323 702 c 0,90,91
 347 702 347 702 347 680 c 0,92,93
 347 674 347 674 347 667 c 0,94,95
 347 654 347 654 346 640 c 0,96,97
 344 620 344 620 340 598 c 0,98,99
 328 535 328 535 292 488 c 1,100,101
 252 438 252 438 186 438 c 0,102,103
 109 438 109 438 63 507 c 1,104,105
 19 566 19 566 19 647 c 0,106,107
 19 782 19 782 138 877 c 0,108,109
 247 963 247 963 387 963 c 0,110,111
 571 963 571 963 709 828 c 0,112,113
 845 695 845 695 845 507 c 0,12,13
EndSplineSet
Validated: 33
EndChar

StartChar: E
Encoding: 69 69 41
Width: 658
GlyphClass: 2
Flags: W
LayerCount: 3
Fore
SplineSet
434 588 m 0,0,1
 434 597 434 597 406 597 c 2,2,-1
 398 597 l 2,3,4
 390 597 390 597 383.5 596.5 c 128,-1,5
 377 596 377 596 370 595 c 2,6,-1
 340 591 l 1,7,8
 358 573 358 573 398 572 c 1,9,10
 434 573 434 573 434 588 c 0,0,1
542 852 m 0,11,12
 542 914 542 914 472 914 c 0,13,14
 443 914 443 914 415 905 c 0,15,16
 324 875 324 875 278 796 c 1,17,18
 261 763 261 763 260 735 c 1,19,-1
 260 721 l 1,20,-1
 260 714 l 2,21,22
 260 710 260 710 261 707 c 1,23,24
 352 712 352 712 430 741 c 0,25,26
 542 782 542 782 542 852 c 0,11,12
640 202 m 0,27,28
 640 114 640 114 564 47 c 1,29,30
 491 -14 491 -14 402 -14 c 0,31,32
 264 -14 264 -14 172 97 c 1,33,34
 87 207 87 207 87 346 c 0,35,36
 87 433 87 433 128.5 502 c 128,-1,37
 170 571 170 571 247 608 c 1,38,39
 228 636 228 636 219 658 c 1,40,41
 143 664 143 664 87 695 c 0,42,43
 13 736 13 736 13 802 c 0,44,45
 13 869 13 869 101 920 c 1,46,47
 178 963 178 963 250 963 c 0,48,49
 276 963 276 963 275 939 c 1,50,51
 275 914 275 914 250 914 c 0,52,53
 201 914 201 914 137 882 c 0,54,55
 62 844 62 844 62 802 c 0,56,57
 62 777 62 777 79 762 c 1,58,59
 118 722 118 722 210 710 c 1,60,61
 208 712 208 712 208 715 c 2,62,-1
 208 722 l 1,63,64
 214 783 214 783 232 820 c 0,65,66
 249 856 249 856 298 895 c 0,67,68
 382 963 382 963 472 963 c 0,69,70
 527 963 527 963 559 935 c 128,-1,71
 591 907 591 907 591 852 c 0,72,73
 591 799 591 799 557 764 c 0,74,75
 467 670 467 670 274 658 c 1,76,77
 282 636 282 636 292 629 c 1,78,79
 345 647 345 647 396 647 c 0,80,81
 430 647 430 647 456 634 c 1,82,83
 490 620 490 620 489 592 c 1,84,85
 489 559 489 559 458 540 c 1,86,87
 428 523 428 523 396 522 c 1,88,89
 335 522 335 522 282 569 c 1,90,91
 213 539 213 539 174.5 479 c 128,-1,92
 136 419 136 419 136 346 c 0,93,94
 136 225 136 225 207 133 c 1,95,96
 285 34 285 34 402 34 c 0,97,98
 474 34 474 34 530 84 c 1,99,100
 589 134 589 134 590 202 c 0,101,102
 590 226 590 226 573.5 245 c 128,-1,103
 557 264 557 264 534 264 c 0,104,105
 495 264 495 264 483 241 c 1,106,107
 474 218 474 218 462 218 c 0,108,109
 433 218 433 218 433 252 c 0,110,111
 433 279 433 279 471 298 c 1,112,113
 505 313 505 313 534 313 c 0,114,115
 578 313 578 313 608 280 c 0,116,117
 640 245 640 245 640 202 c 0,27,28
EndSplineSet
Validated: 33
EndChar

StartChar: F
Encoding: 70 70 42
Width: 733
GlyphClass: 2
Flags: W
LayerCount: 3
Fore
SplineSet
534 637 m 0,0,1
 534 663 534 663 526 663 c 0,2,3
 519 663 519 663 516 654 c 0,4,5
 512 645 512 645 509.5 632.5 c 128,-1,6
 507 620 507 620 507 603 c 128,-1,7
 507 586 507 586 513 573 c 1,8,9
 534 603 534 603 534 637 c 0,0,1
635 540 m 0,10,11
 635 529 635 529 624 520 c 1,12,13
 595 500 595 500 547 500 c 0,14,15
 533 500 533 500 519 505 c 1,16,17
 501 488 501 488 476 473.5 c 128,-1,18
 451 459 451 459 420 451 c 1,19,20
 421 424 421 424 421.5 398 c 128,-1,21
 422 372 422 372 422 346 c 0,22,23
 422 196 422 196 378 104 c 1,24,25
 318 -17 318 -17 185 -17 c 0,26,27
 184 -17 184 -17 183 -17 c 0,28,29
 161 -17 161 -17 144 -13 c 0,30,31
 111 -6 111 -6 89 14.5 c 128,-1,32
 67 35 67 35 67 65 c 0,33,34
 67 94 67 94 88.5 113.5 c 128,-1,35
 110 133 110 133 138 133 c 0,36,37
 165 133 165 133 165 110 c 0,38,39
 165 92 165 92 140 84 c 0,40,41
 116 76 116 76 116 66 c 0,42,43
 116 55 116 55 125 48 c 1,44,45
 141 32 141 32 183 32 c 0,46,47
 294 32 294 32 340 139 c 0,48,49
 372 212 372 212 372 346 c 2,50,-1
 372 392 l 1,51,52
 371 400 371 400 371 408 c 2,53,-1
 371 420 l 1,54,-1
 371 439 l 1,55,56
 363 437 363 437 349.5 436 c 128,-1,57
 336 435 336 435 321 435 c 0,58,59
 305 435 305 435 280 444 c 0,60,61
 251 454 251 454 251 470 c 0,62,63
 251 495 251 495 275 495 c 0,64,65
 283 495 283 495 298 489.5 c 128,-1,66
 313 484 313 484 321 484 c 0,67,68
 352 484 352 484 369 488 c 1,69,-1
 369 546 l 2,70,71
 369 716 369 716 391 806 c 0,72,73
 413 892 413 892 459 892 c 0,74,75
 485 892 485 892 485 868 c 0,76,77
 485 843 485 843 461 843 c 0,78,79
 460 843 460 843 459 843 c 0,80,81
 440 843 440 843 430 780 c 0,82,83
 418 706 418 706 418 602 c 2,84,-1
 418 570 l 1,85,-1
 420 503 l 1,86,87
 454 513 454 513 479 536 c 1,88,89
 457 562 457 562 457 599 c 0,90,91
 457 639 457 639 471 671 c 0,92,93
 489 712 489 712 522 712 c 0,94,95
 549 712 549 712 566.5 690.5 c 128,-1,96
 584 669 584 669 584 642 c 0,97,98
 584 593 584 593 556 550 c 1,99,100
 561 551 561 551 567.5 552.5 c 128,-1,101
 574 554 574 554 584 558 c 1,102,103
 598 566 598 566 608 566 c 0,104,105
 609 566 609 566 610 566 c 0,106,107
 635 566 635 566 635 540 c 0,10,11
721 905 m 0,108,109
 721 881 721 881 696 881 c 0,110,111
 695 881 695 881 694 881 c 0,112,113
 646 881 646 881 552 897 c 0,114,115
 503 906 503 906 467.5 910 c 128,-1,116
 432 914 432 914 409 914 c 0,117,118
 299 914 299 914 188 850 c 1,119,120
 62 776 62 776 62 675 c 0,121,122
 62 622 62 622 91 590 c 1,123,124
 121 551 121 551 170 551 c 0,125,126
 202 551 202 551 220 569 c 0,127,128
 266 616 266 616 266 725 c 0,129,130
 266 751 266 751 292 751 c 0,131,132
 317 751 317 751 316 725 c 1,133,134
 316 690 316 690 310 652 c 0,135,136
 299 589 299 589 268 549 c 0,137,138
 231 503 231 503 170 503 c 0,139,140
 100 503 100 503 57 552 c 0,141,142
 13 602 13 602 13 675 c 0,143,144
 13 801 13 801 153 888 c 0,145,146
 274 963 274 963 409 963 c 0,147,148
 458 963 458 963 552 946 c 0,149,150
 646 930 646 930 694 930 c 0,151,152
 721 930 721 930 721 905 c 0,108,109
EndSplineSet
Validated: 33
EndChar

StartChar: G
Encoding: 71 71 43
Width: 671
GlyphClass: 2
Flags: W
LayerCount: 3
Fore
SplineSet
547 -216 m 1,0,1
 547 -179 l 0,2,3
 547 -69 547 -69 546 -54 c 1,4,5
 308 -158 308 -158 308 -386 c 0,6,7
 308 -448 308 -448 322 -507 c 1,8,9
 353 -597 353 -597 432 -597 c 0,10,11
 535 -597 535 -597 545 -455 c 1,12,-1
 547 -216 l 1,0,1
545 835 m 0,13,14
 545 850 545 850 540.5 864.5 c 128,-1,15
 536 879 536 879 527.5 890 c 128,-1,16
 519 901 519 901 507.5 908 c 128,-1,17
 496 915 496 915 481 915 c 0,18,19
 416 915 416 915 364 882 c 0,20,21
 226 792 226 792 168 570 c 1,22,23
 190 563 190 563 217 563 c 0,24,25
 341 563 341 563 438 636 c 1,26,27
 545 715 545 715 545 835 c 0,13,14
700 28 m 128,-1,29
 700 20 700 20 692 16 c 0,30,31
 640 -13 640 -13 588 -38 c 1,32,33
 594 -127 594 -127 592 -455 c 1,34,35
 590 -506 590 -506 572 -547 c 1,36,37
 535 -645 535 -645 432 -645 c 0,38,39
 380 -645 380 -645 338 -611 c 128,-1,40
 296 -577 296 -577 276 -525 c 1,41,42
 260 -459 260 -459 260 -384 c 0,43,44
 260 -133 260 -133 542 -2 c 1,45,-1
 536 75 l 1,46,47
 484 2 484 2 399 2 c 0,48,49
 264 2 264 2 176 118 c 1,50,51
 95 220 95 220 95 362 c 0,52,53
 95 412 95 412 99 458.5 c 128,-1,54
 103 505 103 505 113 543 c 1,55,56
 60 576 60 576 34 629 c 1,57,58
 7 680 7 680 7 742 c 0,59,60
 7 837 7 837 85 902 c 1,61,62
 161 962 161 962 258 963 c 0,63,64
 283 963 283 963 283 939 c 256,65,66
 283 915 283 915 258 915 c 0,67,68
 179 915 179 915 120 869 c 0,69,70
 55 818 55 818 55 742 c 0,71,72
 55 646 55 646 123 594 c 1,73,74
 163 739 163 739 245 841 c 1,75,76
 348 963 348 963 481 963 c 0,77,78
 530 963 530 963 562 925 c 0,79,80
 594 886 594 886 594 835 c 0,81,82
 594 697 594 697 472 602 c 0,83,84
 362 516 362 516 217 516 c 0,85,86
 198 516 198 516 183 518 c 128,-1,87
 168 520 168 520 158 523 c 1,88,89
 151 487 151 487 147.5 446.5 c 128,-1,90
 144 406 144 406 144 362 c 0,91,92
 144 334 144 334 148.5 307.5 c 128,-1,93
 153 281 153 281 162 253 c 0,94,95
 188 167 188 167 248 113 c 1,96,97
 314 52 314 52 399 51 c 0,98,99
 455 51 455 51 494 101 c 1,100,101
 527 146 527 146 527 203 c 2,102,-1
 527 206 l 2,103,-1
 526 296 l 2,104,105
 526 321 526 321 551 321 c 0,106,107
 575 321 575 321 575 298 c 0,108,109
 575 297 575 297 575 296 c 0,110,111
 575 174 575 174 585 10 c 1,112,113
 622 25 622 25 671 50 c 1,114,115
 684 58 684 58 692 47 c 128,-1,28
 700 36 700 36 700 28 c 128,-1,29
EndSplineSet
Validated: 33
EndChar

StartChar: H
Encoding: 72 72 44
Width: 1010
GlyphClass: 2
Flags: W
LayerCount: 3
Fore
SplineSet
522 883 m 0,0,1
 567 883 567 883 567 898.5 c 128,-1,2
 567 914 567 914 522 914 c 0,3,4
 496 914 496 914 473 888 c 1,5,6
 509 883 509 883 522 883 c 0,0,1
621 560 m 1,7,8
 901 657 901 657 901 811 c 0,9,10
 901 847 901 847 891 871 c 1,11,12
 877 910 877 910 850 910 c 0,13,14
 796 910 796 910 754 871 c 0,15,16
 658 784 658 784 621 560 c 1,7,8
451 845 m 1,17,18
 426 778 426 778 426 675 c 2,19,-1
 426 487 l 1,20,21
 440 492 440 492 451 497.5 c 128,-1,22
 462 503 462 503 470 505 c 1,23,24
 469 509 469 509 469 512 c 2,25,-1
 469 566 l 2,26,27
 469 609 469 609 495 609 c 256,28,29
 521 609 521 609 520 584 c 1,30,-1
 520 553 l 1,31,32
 519 548 519 548 519 543 c 2,33,-1
 519 521 l 1,34,-1
 567 540 l 1,35,36
 582 688 582 688 643 807 c 1,37,38
 720 961 720 961 850 961 c 0,39,40
 900 961 900 961 928 909 c 0,41,42
 951 868 951 868 950 812 c 1,43,44
 950 657 950 657 742 557 c 0,45,46
 688 531 688 531 614 506 c 1,47,48
 612 477 612 477 612 452 c 128,-1,49
 612 427 612 427 615 386 c 0,50,51
 630 221 630 221 684 121 c 1,52,53
 728 34 728 34 791.5 34 c 128,-1,54
 855 34 855 34 899 84 c 1,55,56
 941 135 941 135 941 202 c 0,57,58
 941 226 941 226 925 245 c 128,-1,59
 909 264 909 264 888 264 c 128,-1,60
 867 264 867 264 862 256 c 0,61,62
 861 255 861 255 850 226 c 1,63,64
 846 210 846 210 828 210 c 0,65,66
 803 210 803 210 803 240 c 0,67,68
 803 269 803 269 828 290 c 1,69,70
 852 312 852 312 880 312 c 0,71,72
 882 312 882 312 883 313 c 1,73,74
 910 312 910 312 928 304 c 0,75,76
 948 296 948 296 961 281 c 0,77,78
 992 247 992 247 991 202 c 1,79,80
 991 113 991 113 934 49.5 c 128,-1,81
 877 -14 877 -14 788 -14 c 0,82,83
 669 -14 669 -14 610 170 c 1,84,85
 562 316 562 316 562 453 c 2,86,-1
 562 479 l 2,87,88
 562 484 562 484 563 487 c 1,89,90
 537 476 537 476 522 472 c 1,91,-1
 522 378 l 2,92,93
 522 350 522 350 496 350 c 0,94,95
 471 350 471 350 471 393 c 2,96,-1
 471 432 l 1,97,98
 472 437 472 437 472 444 c 2,99,-1
 472 454 l 1,100,101
 464 450 464 450 449 444.5 c 128,-1,102
 434 439 434 439 427 436 c 1,103,-1
 427 372 l 1,104,105
 428 361 428 361 428 350 c 2,106,-1
 428 305 l 2,107,108
 428 171 428 171 380 86 c 0,109,110
 323 -14 323 -14 194 -14 c 0,111,112
 171 -14 171 -14 156 -10 c 0,113,114
 77 8 77 8 77 67 c 0,115,116
 77 97 77 97 98.5 117.5 c 128,-1,117
 120 138 120 138 147.5 138 c 128,-1,118
 175 138 175 138 175 113 c 0,119,120
 175 95 175 95 151.5 87.5 c 128,-1,121
 128 80 128 80 128 67 c 0,122,123
 128 34 128 34 189.5 34 c 128,-1,124
 251 34 251 34 287 59 c 0,125,126
 378 120 378 120 378 305 c 2,127,-1
 378 359 l 1,128,129
 377 367 377 367 377 375 c 2,130,-1
 377 413 l 1,131,132
 358 405 358 405 348 399 c 1,133,134
 324 390 324 390 322 390 c 0,135,136
 298 390 298 390 298 415 c 256,137,138
 298 440 298 440 376 467 c 1,139,-1
 376 675 l 2,140,141
 376 791 376 791 400 861 c 1,142,143
 286 915 286 915 255 915 c 0,144,145
 230 915 230 915 193 907 c 1,146,147
 67 873 67 873 67 780 c 0,148,149
 67 744 67 744 91.5 713.5 c 128,-1,150
 116 683 116 683 148 683 c 128,-1,151
 180 683 180 683 203 701 c 128,-1,152
 226 719 226 719 226 746 c 128,-1,153
 226 773 226 773 251 773 c 0,154,155
 278 773 278 773 278 748 c 0,156,157
 278 701 278 701 239 667 c 1,158,159
 199 635 199 635 145.5 635 c 128,-1,160
 92 635 92 635 54 678 c 1,161,162
 17 722 17 722 17 780 c 0,163,164
 17 863 17 863 91.5 913.5 c 128,-1,165
 166 964 166 964 255 964 c 0,166,167
 268 964 268 964 296 958 c 1,168,-1
 371 928 l 2,169,170
 403 916 403 916 423 906 c 1,171,172
 460 962 460 962 522 963 c 0,173,174
 535 963 535 963 553 959 c 0,175,176
 617 944 617 944 617 899 c 0,177,178
 617 867 617 867 586.5 850.5 c 128,-1,179
 556 834 556 834 520 834 c 128,-1,180
 484 834 484 834 451 845 c 1,17,18
EndSplineSet
Validated: 33
EndChar

StartChar: I
Encoding: 73 73 45
Width: 631
GlyphClass: 2
Flags: W
LayerCount: 3
Fore
SplineSet
568 897 m 0,0,1
 568 913 568 913 523 913 c 0,2,3
 496 913 496 913 474 888 c 1,4,5
 500 882 500 882 523 882 c 0,6,7
 528 882 528 882 534.5 882.5 c 128,-1,8
 541 883 541 883 549 884 c 0,9,10
 568 888 568 888 568 897 c 0,0,1
618 897 m 0,11,12
 618 866 618 866 585 848 c 0,13,14
 571 841 571 841 556 837 c 128,-1,15
 541 833 541 833 523 833 c 0,16,17
 484 833 484 833 452 844 c 1,18,19
 427 773 427 773 427 674 c 2,20,-1
 427 597 l 1,21,22
 427 546 l 0,23,24
 427 519 427 519 428 488 c 256,25,26
 429 457 429 457 429 431 c 2,27,28
 429 381 l 2,29,-1
 429 305 l 2,30,31
 429 171 429 171 381 86 c 0,32,33
 324 -14 324 -14 196 -14 c 0,34,35
 187 -14 187 -14 177 -13 c 128,-1,36
 167 -12 167 -12 158 -10 c 0,37,38
 79 8 79 8 79 67 c 0,39,40
 79 97 79 97 100.5 117 c 128,-1,41
 122 137 122 137 152 137 c 0,42,43
 177 137 177 137 177 115 c 0,44,45
 177 95 177 95 153 87 c 1,46,47
 130 81 130 81 130 67 c 0,48,49
 130 34 130 34 196 34 c 0,50,51
 251 34 251 34 289 59 c 0,52,53
 379 121 379 121 379 305 c 2,54,-1
 379 381 l 1,55,56
 379 431 l 0,57,58
 379 458 379 458 378 488 c 0,59,60
 377 519 377 519 377 546 c 2,61,62
 377 597 l 2,63,-1
 377 674 l 2,64,65
 377 732 377 732 383.5 778 c 128,-1,66
 390 824 390 824 402 860 c 1,67,68
 378 871 378 871 360 879 c 128,-1,69
 342 887 342 887 330 893 c 0,70,71
 283 914 283 914 259 914 c 0,72,73
 258 914 258 914 257 914 c 0,74,75
 242 914 242 914 226.5 912 c 128,-1,76
 211 910 211 910 195 906 c 0,77,78
 69 872 69 872 69 779 c 0,79,80
 69 743 69 743 91 715 c 0,81,82
 117 683 117 683 152 683 c 0,83,84
 183 683 183 683 205.5 701 c 128,-1,85
 228 719 228 719 228 748 c 0,86,87
 228 773 228 773 250 773 c 0,88,89
 251 773 251 773 252 773 c 0,90,91
 279 773 279 773 279 748 c 0,92,93
 279 699 279 699 241 667 c 0,94,95
 202 635 202 635 152 635 c 0,96,97
 95 635 95 635 56 678 c 1,98,99
 19 721 19 721 19 779 c 0,100,101
 19 862 19 862 99 916 c 0,102,103
 168 962 168 962 257 963 c 0,104,105
 268 963 268 963 297 957 c 1,106,107
 340 941 340 941 371 928 c 128,-1,108
 402 915 402 915 424 905 c 1,109,110
 462 961 462 961 523 962 c 0,111,112
 536 962 536 962 554 958 c 0,113,114
 618 943 618 943 618 897 c 0,11,12
EndSplineSet
Validated: 1
EndChar

StartChar: J
Encoding: 74 74 46
Width: 573
GlyphClass: 2
Flags: W
LayerCount: 3
Fore
SplineSet
374 -45 m 1,0,1
 179 -91 179 -91 155 -331 c 1,2,3
 149 -486 149 -486 196 -563 c 1,4,5
 228 -598 228 -598 263 -598 c 0,6,7
 318 -598 318 -598 348 -528 c 1,8,9
 375 -450 375 -450 375 -412 c 2,10,-1
 374 -45 l 1,0,1
543 899 m 0,11,12
 543 914 543 914 499 914 c 0,13,14
 473 914 473 914 451 889 c 1,15,16
 475 885 475 885 498 885 c 0,17,18
 511 885 511 885 523 886 c 0,19,20
 543 889 543 889 543 899 c 0,11,12
421 -35 m 1,21,-1
 423 -412 l 2,22,23
 423 -494 423 -494 385 -563 c 0,24,25
 339 -645 339 -645 263 -645 c 256,26,27
 187 -645 187 -645 141 -568 c 0,28,29
 106 -510 106 -510 106 -382 c 0,30,31
 106 -364 106 -364 106 -346 c 0,32,33
 117 -53 117 -53 372 -1 c 1,34,35
 365 154 365 154 360.5 336 c 128,-1,36
 356 518 356 518 356 679 c 0,37,38
 356 794 356 794 381 861 c 1,39,40
 357 872 357 872 312 894 c 0,41,42
 269 915 269 915 241 915 c 0,43,44
 240 915 240 915 239 915 c 0,45,46
 149 911 149 911 94 864 c 0,47,48
 74 847 74 847 64.5 826.5 c 128,-1,49
 55 806 55 806 55 782 c 0,50,51
 57 707 57 707 136 689 c 1,52,53
 166 689 166 689 188.5 706 c 128,-1,54
 211 723 211 723 211 752 c 0,55,56
 211 775 211 775 232 775 c 0,57,58
 233 775 233 775 234 775 c 0,59,60
 260 775 260 775 260 752 c 0,61,62
 260 705 260 705 222 673 c 1,63,64
 187 641 187 641 136 641 c 0,65,66
 80 641 80 641 43 682 c 1,67,68
 7 724 7 724 7 782 c 0,69,70
 7 864 7 864 84 916 c 1,71,72
 150 962 150 962 239 963 c 1,73,-1
 242 963 l 2,74,75
 244 963 244 963 245 963 c 0,76,77
 280 963 280 963 328 940 c 0,78,79
 380 916 380 916 401 905 c 1,80,81
 438 961 438 961 499 962 c 0,82,83
 535 962 535 962 560 948 c 0,84,85
 592 929 592 929 592 899 c 0,86,87
 592 866 592 866 560 850 c 1,88,89
 530 837 530 837 494 837 c 0,90,91
 463 837 463 837 429 847 c 1,92,93
 417 812 417 812 411.5 770 c 128,-1,94
 406 728 406 728 406 679 c 0,95,96
 406 289 406 289 418 5 c 1,97,98
 541 24 541 24 563 44 c 0,99,100
 571 51 571 51 582 53 c 0,101,102
 592 55 592 55 600 38 c 0,103,104
 604 29 604 29 595 18 c 0,105,106
 573 -7 573 -7 421 -35 c 1,21,-1
EndSplineSet
Validated: 33
EndChar

StartChar: K
Encoding: 75 75 47
Width: 1015
GlyphClass: 2
Flags: W
LayerCount: 3
Fore
SplineSet
563 496 m 1,0,1
 536 505 536 505 509 505 c 0,2,3
 475 505 475 505 475 497 c 0,4,5
 475 490 475 490 489 484 c 0,6,7
 497 480 497 480 509 480 c 0,8,9
 539 481 539 481 563 496 c 1,0,1
560 897 m 0,10,11
 560 913 560 913 515 913 c 0,12,13
 485 913 485 913 464 888 c 1,14,15
 493 882 493 882 515 882 c 0,16,17
 521 882 521 882 526.5 882.5 c 128,-1,18
 532 883 532 883 540 884 c 1,19,20
 560 890 560 890 560 897 c 0,10,11
609 897 m 0,21,22
 609 866 609 866 577 848 c 0,23,24
 563 841 563 841 547.5 837 c 128,-1,25
 532 833 532 833 515 833 c 0,26,27
 481 833 481 833 441 844 c 1,28,29
 420 784 420 784 420 684 c 0,30,31
 420 679 420 679 420 675 c 2,32,-1
 421 304 l 2,33,34
 421 166 421 166 374 88 c 1,35,36
 316 -14 316 -14 188 -14 c 0,37,38
 180 -14 180 -14 170.5 -13 c 128,-1,39
 161 -12 161 -12 151 -10 c 0,40,41
 73 8 73 8 73 67 c 0,42,43
 73 97 73 97 94.5 119.5 c 128,-1,44
 116 142 116 142 145 142 c 0,45,46
 170 142 170 142 170 118 c 0,47,48
 170 105 170 105 164 100 c 1,49,50
 150 94 150 94 136 88.5 c 128,-1,51
 122 83 122 83 122 67 c 0,52,53
 122 52 122 52 150 41 c 0,54,55
 168 34 168 34 188 34 c 0,56,57
 244 34 244 34 282 58 c 1,58,59
 371 123 371 123 371 304 c 2,60,-1
 370 675 l 2,61,62
 370 784 370 784 398 860 c 1,63,64
 390 862 390 862 382 866 c 128,-1,65
 374 870 374 870 365 874 c 2,66,-1
 323 892 l 2,67,68
 276 913 276 913 252 913 c 0,69,70
 251 913 251 913 250 913 c 0,71,72
 226 913 226 913 188 905 c 0,73,74
 141 895 141 895 103 863 c 0,75,76
 62 828 62 828 62 779 c 0,77,78
 62 761 62 761 68.5 743.5 c 128,-1,79
 75 726 75 726 86 713 c 128,-1,80
 97 700 97 700 112 692 c 128,-1,81
 127 684 127 684 145 684 c 0,82,83
 175 684 175 684 197.5 701.5 c 128,-1,84
 220 719 220 719 220 748 c 0,85,86
 220 773 220 773 244 773 c 0,87,88
 245 773 245 773 246 773 c 0,89,90
 270 773 270 773 270 750 c 0,91,92
 270 723 270 723 260.5 702.5 c 128,-1,93
 251 682 251 682 234 667 c 128,-1,94
 217 652 217 652 194 644 c 128,-1,95
 171 636 171 636 145 636 c 0,96,97
 89 636 89 636 50 678 c 1,98,99
 12 723 12 723 12 779 c 0,100,101
 12 862 12 862 92 916 c 0,102,103
 160 962 160 962 250 963 c 0,104,105
 270 963 270 963 291 956 c 1,106,107
 335 939 335 939 366 925.5 c 128,-1,108
 397 912 397 912 418 904 c 1,109,110
 455 962 455 962 515 963 c 0,111,112
 549 963 549 963 577 947 c 0,113,114
 609 929 609 929 609 897 c 0,21,22
997 201 m 0,115,116
 997 112 997 112 938 49 c 1,117,118
 881 -14 881 -14 793 -14 c 0,119,120
 721 -14 721 -14 673 46 c 0,121,122
 628 103 628 103 628 177 c 2,123,-1
 628 220 l 1,124,-1
 628 249 l 2,125,126
 628 264 628 264 629 282 c 1,127,-1
 629 386 l 2,128,129
 629 437 629 437 606 466 c 1,130,131
 564 431 564 431 509 431 c 0,132,133
 482 431 482 431 452 450 c 0,134,135
 421 469 421 469 421 496 c 0,136,137
 421 522 421 522 454 539 c 0,138,139
 482 554 482 554 509 554 c 0,140,141
 563 554 563 554 598 535 c 1,142,143
 636 601 636 601 636 712 c 0,144,145
 636 809 636 809 691 883 c 0,146,147
 750 963 750 963 849 963 c 0,148,149
 904 963 904 963 935.5 924 c 128,-1,150
 967 885 967 885 967 825 c 0,151,152
 967 800 967 800 942 800 c 0,153,154
 941 800 941 800 940 800 c 0,155,156
 916 800 916 800 916 825 c 0,157,158
 916 914 916 914 849 914 c 0,159,160
 773 914 773 914 727 849 c 1,161,162
 685 792 685 792 685 712 c 0,163,164
 685 647 685 647 674 595 c 128,-1,165
 663 543 663 543 639 505 c 1,166,167
 678 463 678 463 678 395 c 2,168,-1
 678 177 l 2,169,170
 678 124 678 124 708 82 c 0,171,172
 742 34 742 34 793 34 c 0,173,174
 859 34 859 34 903 83 c 0,175,176
 948 134 948 134 948 201 c 0,177,178
 948 225 948 225 932 243 c 128,-1,179
 916 261 916 261 894 261 c 0,180,181
 874 261 874 261 869 254 c 1,182,183
 864 238 864 238 858 223 c 128,-1,184
 852 208 852 208 836 208 c 0,185,186
 811 208 811 208 811 232 c 0,187,188
 811 265 811 265 835.5 287.5 c 128,-1,189
 860 310 860 310 894 310 c 0,190,191
 916 310 916 310 934.5 301.5 c 128,-1,192
 953 293 953 293 967 278 c 128,-1,193
 981 263 981 263 989 243.5 c 128,-1,194
 997 224 997 224 997 201 c 0,115,116
EndSplineSet
Validated: 1
EndChar

StartChar: L
Encoding: 76 76 48
Width: 656
GlyphClass: 2
Flags: W
LayerCount: 3
Fore
SplineSet
229 54 m 1,0,1
 173 81 173 81 132 83 c 0,2,3
 127 83 127 83 122 83 c 0,4,5
 66 83 66 83 61 62 c 1,6,7
 68 34 68 34 132 34 c 2,8,9
 137 34 l 0,10,11
 163 34 163 34 186 38.5 c 128,-1,12
 209 43 209 43 229 54 c 1,0,1
600 833 m 0,13,14
 600 868 600 868 581.5 891 c 128,-1,15
 563 914 563 914 530 914 c 0,16,17
 447 914 447 914 403.5 868 c 128,-1,18
 360 822 360 822 360 742 c 0,19,20
 360 676 360 676 367 571 c 1,21,22
 391 577 391 577 412 586.5 c 128,-1,23
 433 596 433 596 454 607 c 0,24,25
 520 643 520 643 560 702 c 128,-1,26
 600 761 600 761 600 833 c 0,13,14
678 18 m 0,27,28
 648 -13 648 -13 485 -14 c 0,29,30
 367 -14 367 -14 281 30 c 1,31,32
 228 -14 228 -14 137 -14 c 1,33,34
 93 -12 93 -12 60 1 c 1,35,36
 12 25 12 25 12 58 c 0,37,38
 12 97 12 97 55 118 c 1,39,40
 87 132 87 132 132 132 c 0,41,42
 186 132 186 132 270 88 c 1,43,44
 290 112 290 112 302 142 c 0,45,46
 331 219 331 219 331 336 c 1,47,48
 328 430 328 430 319 510 c 1,49,50
 291 507 291 507 263 507 c 0,51,52
 167 507 167 507 108 574 c 1,53,54
 48 639 48 639 47 737 c 1,55,56
 47 836 47 836 128 902 c 1,57,58
 205 963 205 963 305 964 c 0,59,60
 331 964 331 964 331 939 c 0,61,62
 331 915 331 915 305 915 c 0,63,64
 224 915 224 915 164 867 c 1,65,66
 97 816 97 816 97 737 c 0,67,68
 97 661 97 661 141 611 c 0,69,70
 188 556 188 556 263 556 c 0,71,72
 290 556 290 556 317 561 c 1,73,74
 310 695 310 695 310 742 c 0,75,76
 310 793 310 793 327 833 c 1,77,78
 377 963 377 963 530 963 c 0,79,80
 557 963 557 963 579 953 c 128,-1,81
 601 943 601 943 617 925 c 128,-1,82
 633 907 633 907 641.5 883.5 c 128,-1,83
 650 860 650 860 650 833 c 0,84,85
 650 775 650 775 627 721 c 1,86,87
 560 573 560 573 370 522 c 1,88,89
 379 435 379 435 381 336 c 1,90,91
 381 244 381 244 365 176.5 c 128,-1,92
 349 109 349 109 316 66 c 1,93,94
 405 27 405 27 523 28 c 0,95,96
 622 29 622 29 656 50 c 0,97,98
 664 55 664 55 668 53 c 0,99,100
 678 48 678 48 684 33 c 0,101,102
 687 26 687 26 678 18 c 0,27,28
EndSplineSet
Validated: 33
EndChar

StartChar: M
Encoding: 77 77 49
Width: 1152
GlyphClass: 2
Flags: W
LayerCount: 3
Fore
SplineSet
1134 201 m 0,0,1
 1134 113 1134 113 1073 49 c 0,2,3
 1013 -14 1013 -14 926 -14 c 0,4,5
 809 -14 809 -14 764 111 c 0,6,7
 736 188 736 188 736 334 c 0,8,9
 736 368 736 368 738.5 418 c 128,-1,10
 741 468 741 468 748 536 c 1,11,12
 753 605 753 605 756.5 657 c 128,-1,13
 760 709 760 709 760 742 c 0,14,15
 760 751 760 751 760.5 764.5 c 128,-1,16
 761 778 761 778 762 797 c 0,17,18
 765 832 765 832 765 851 c 2,19,-1
 765 870 l 1,20,21
 764 914 764 914 733 914 c 0,22,23
 729 914 729 914 723 905 c 1,24,25
 714 886 714 886 711 849 c 0,26,27
 702 731 702 731 694.5 643.5 c 128,-1,28
 687 556 687 556 682 498 c 1,29,-1
 660 151 l 1,30,31
 656 105 656 105 654 79.5 c 128,-1,32
 652 54 652 54 650 47 c 0,33,34
 633 -17 633 -17 588 -17 c 2,35,36
 587 -17 l 0,37,38
 521 -17 521 -17 521 87 c 2,39,-1
 521 132 l 2,40,41
 521 156 521 156 519.5 188.5 c 128,-1,42
 518 221 518 221 514 262 c 1,43,-1
 508 346 l 2,44,45
 506 378 506 378 504 393 c 1,46,-1
 490 638 l 2,47,48
 485 709 485 709 482.5 751.5 c 128,-1,49
 480 794 480 794 478 811 c 0,50,51
 477 828 477 828 476.5 840.5 c 128,-1,52
 476 853 476 853 476 861 c 2,53,-1
 476 871 l 2,54,55
 476 875 476 875 474 884 c 1,56,57
 472 915 472 915 464 914 c 1,58,59
 452 914 452 914 447 901 c 0,60,61
 439 883 439 883 435 858 c 0,62,63
 434 853 434 853 433 841.5 c 128,-1,64
 432 830 432 830 431 814 c 0,65,66
 421 654 421 654 407 512 c 128,-1,67
 393 370 393 370 374 238 c 1,68,69
 359 123 359 123 302 59 c 0,70,71
 236 -14 236 -14 132 -14 c 0,72,73
 131 -14 131 -14 129 -14 c 0,74,75
 87 -14 87 -14 54 3 c 1,76,77
 17 25 17 25 17 67 c 0,78,79
 17 100 17 100 38.5 118.5 c 128,-1,80
 60 137 60 137 93 137 c 0,81,82
 118 137 118 137 118 113 c 0,83,84
 118 96 118 96 91 87 c 1,85,86
 66 81 66 81 67 66 c 1,87,88
 67 34 67 34 129 34 c 0,89,90
 294 34 294 34 327 246 c 1,91,92
 342 354 342 354 356 496 c 128,-1,93
 370 638 370 638 383 818 c 0,94,95
 384 832 384 832 385 843 c 128,-1,96
 386 854 386 854 387 863 c 0,97,98
 399 962 399 962 464 963 c 0,99,100
 486 963 486 963 500 951 c 1,101,102
 517 934 517 934 521 904 c 0,103,104
 522 890 522 890 522.5 877 c 128,-1,105
 523 864 523 864 524 851 c 0,106,107
 539 617 539 617 550 444 c 128,-1,108
 561 271 561 271 568 154 c 0,109,110
 569 149 569 149 569 140 c 2,111,-1
 569 133 l 1,112,-1
 569 95 l 2,113,114
 569 87 569 87 569.5 81 c 128,-1,115
 570 75 570 75 571 68 c 0,116,117
 576 32 576 32 587 32 c 0,118,119
 597 32 597 32 601 48 c 1,120,121
 605 84 605 84 607.5 110 c 128,-1,122
 610 136 610 136 611 154 c 0,123,124
 623 380 623 380 635.5 553 c 128,-1,125
 648 726 648 726 663 853 c 0,126,127
 665 864 665 864 666 873.5 c 128,-1,128
 667 883 667 883 668 888 c 0,129,130
 680 963 680 963 733 963 c 0,131,132
 815 963 815 963 815 842 c 0,133,134
 815 827 815 827 812 792 c 0,135,136
 809 759 809 759 809 742 c 0,137,138
 809 707 809 707 805.5 655 c 128,-1,139
 802 603 802 603 797 532 c 1,140,141
 785 395 785 395 784 326 c 1,142,143
 784 205 784 205 803 143 c 1,144,145
 834 34 834 34 924 34 c 0,146,147
 925 34 925 34 926 34 c 0,148,149
 991 34 991 34 1036 83 c 0,150,151
 1083 133 1083 133 1083 201 c 0,152,153
 1083 225 1083 225 1067.5 244 c 128,-1,154
 1052 263 1052 263 1028 263 c 0,155,156
 1010 263 1010 263 1005 255 c 1,157,158
 1000 240 1000 240 993.5 225 c 128,-1,159
 987 210 987 210 970 210 c 0,160,161
 946 210 946 210 946 234 c 0,162,163
 946 267 946 267 970 289.5 c 128,-1,164
 994 312 994 312 1028 312 c 0,165,166
 1051 312 1051 312 1070 303.5 c 128,-1,167
 1089 295 1089 295 1103 279.5 c 128,-1,168
 1117 264 1117 264 1125.5 244 c 128,-1,169
 1134 224 1134 224 1134 201 c 0,0,1
EndSplineSet
Validated: 1
EndChar

StartChar: N
Encoding: 78 78 50
Width: 1006
GlyphClass: 2
Flags: W
LayerCount: 3
Fore
SplineSet
991 776 m 0,0,1
 991 727 991 727 948 696 c 0,2,3
 912 669 912 669 864 669 c 0,4,5
 862 669 862 669 860 669 c 0,6,7
 830 669 830 669 808 683 c 1,8,9
 780 699 780 699 780 728 c 0,10,11
 780 753 780 753 805 753 c 0,12,13
 819 753 819 753 827 735 c 0,14,15
 835 718 835 718 860 718 c 0,16,17
 874 718 874 718 888.5 722 c 128,-1,18
 903 726 903 726 915 733 c 128,-1,19
 927 740 927 740 934 751 c 128,-1,20
 941 762 941 762 941 776 c 0,21,22
 941 829 941 829 902 871 c 0,23,24
 863 914 863 914 809 914 c 0,25,26
 769 914 769 914 750 898 c 1,27,28
 701 861 701 861 700 739 c 1,29,-1
 700 615 l 1,30,-1
 700 536 l 2,31,32
 700 493 700 493 701 442 c 0,33,34
 702 393 702 393 702 350 c 2,35,-1
 702 270 l 1,36,-1
 702 148 l 2,37,38
 702 125 702 125 699 97 c 0,39,40
 689 -17 689 -17 613 -17 c 2,41,42
 612 -17 l 0,43,44
 586 -17 586 -17 568 1 c 1,45,46
 545 26 545 26 535 71 c 0,47,48
 533 80 533 80 529 100 c 128,-1,49
 525 120 525 120 520 150 c 2,50,-1
 467 497 l 1,51,52
 455 584 455 584 442 670.5 c 128,-1,53
 429 757 429 757 417 846 c 1,54,55
 417 862 417 862 411 884 c 0,56,57
 403 914 403 914 395 914 c 2,58,59
 394 914 l 0,60,61
 385 914 385 914 381 901 c 1,62,63
 373 884 373 884 373 854 c 0,64,65
 373 848 373 848 373 841 c 2,66,-1
 373 817 l 2,67,68
 373 633 373 633 369.5 489 c 128,-1,69
 366 345 366 345 357 240 c 1,70,71
 350 127 350 127 297 60 c 1,72,73
 242 -14 242 -14 133 -14 c 0,74,75
 132 -14 132 -14 130 -14 c 0,76,77
 107 -14 107 -14 92 -10 c 0,78,79
 13 8 13 8 13 67 c 0,80,81
 13 97 13 97 34.5 117.5 c 128,-1,82
 56 138 56 138 86 138 c 0,83,84
 112 138 112 138 112 113 c 0,85,86
 112 95 112 95 86 87 c 1,87,88
 62 81 62 81 62 67 c 0,89,90
 62 57 62 57 72 50 c 1,91,92
 88 34 88 34 130 34 c 0,93,94
 220 34 220 34 263 96 c 1,95,96
 302 150 302 150 308 243 c 1,97,98
 316 339 316 339 320 484.5 c 128,-1,99
 324 630 324 630 324 830 c 2,100,-1
 324 850 l 1,101,-1
 324 860 l 2,102,103
 324 866 324 866 325 871 c 0,104,105
 333 962 333 962 394 963 c 0,106,107
 417 963 417 963 430 951 c 0,108,109
 447 937 447 937 456 907 c 0,110,111
 457 902 457 902 459 889.5 c 128,-1,112
 461 877 461 877 466 854 c 1,113,114
 481 758 481 758 494 670 c 128,-1,115
 507 582 507 582 518 505 c 2,116,-1
 572 128 l 2,117,118
 574 117 574 117 577 106.5 c 128,-1,119
 580 96 580 96 582 85 c 0,120,121
 592 32 592 32 612 32 c 0,122,123
 626 32 626 32 635 43 c 1,124,125
 652 69 652 69 652 130 c 2,126,-1
 651 431 l 2,127,128
 650 469 650 469 650 506 c 2,129,-1
 650 581 l 1,130,-1
 650 733 l 2,131,132
 650 834 650 834 677 890 c 0,133,134
 713 963 713 963 809 963 c 0,135,136
 884 963 884 963 938 907 c 1,137,138
 991 854 991 854 991 776 c 0,0,1
EndSplineSet
Validated: 1
EndChar

StartChar: O
Encoding: 79 79 51
Width: 827
GlyphClass: 2
Flags: W
LayerCount: 3
Fore
SplineSet
807 479 m 0,0,1
 807 436 807 436 800.5 392.5 c 128,-1,2
 794 349 794 349 781 305 c 0,3,4
 741 169 741 169 650 81 c 1,5,6
 549 -14 549 -14 411 -14 c 0,7,8
 221 -14 221 -14 113 138 c 1,9,10
 16 272 16 272 15 470 c 0,11,12
 15 631 15 631 70.5 744.5 c 128,-1,13
 126 858 126 858 238 924 c 0,14,15
 245 927 245 927 252 927 c 0,16,17
 276 927 276 927 276 901 c 0,18,19
 276 888 276 888 263 881 c 1,20,21
 170 816 170 816 134 756 c 0,22,23
 64 637 64 637 65 470 c 1,24,25
 65 294 65 294 147 173 c 1,26,27
 243 34 243 34 411 34 c 0,28,29
 572 34 572 34 671 182 c 1,30,31
 755 313 755 313 755 479 c 0,32,33
 755 553 755 553 737 622.5 c 128,-1,34
 719 692 719 692 681 758 c 0,35,36
 595 912 595 912 462 912 c 2,37,-1
 460 912 l 2,38,39
 413 912 413 912 378 895 c 0,40,41
 269 842 269 842 269 699 c 0,42,43
 269 676 269 676 282.5 659 c 128,-1,44
 296 642 296 642 318 642 c 0,45,46
 331 642 331 642 342 652 c 1,47,48
 369 682 369 682 369 732 c 0,49,50
 369 756 369 756 393 756 c 0,51,52
 419 756 419 756 419 732 c 0,53,54
 419 709 419 709 413 685 c 0,55,56
 389 593 389 593 318 593 c 0,57,58
 296 593 296 593 278.5 601.5 c 128,-1,59
 261 610 261 610 247 625 c 128,-1,60
 233 640 233 640 225.5 659 c 128,-1,61
 218 678 218 678 218 699 c 0,62,63
 218 809 218 809 284 884 c 0,64,65
 318 923 318 923 365.5 943 c 128,-1,66
 413 963 413 963 468 963 c 0,67,68
 548 963 548 963 607 921.5 c 128,-1,69
 666 880 666 880 718 796 c 0,70,71
 764 722 764 722 785.5 643.5 c 128,-1,72
 807 565 807 565 807 479 c 0,0,1
EndSplineSet
Validated: 33
EndChar

StartChar: P
Encoding: 80 80 52
Width: 780
GlyphClass: 2
Flags: W
LayerCount: 3
Fore
SplineSet
355 346 m 1,0,-1
 352 500 l 1,1,-1
 352 626 l 1,2,3
 355 760 355 760 381 829 c 128,-1,4
 407 898 407 898 449 898 c 0,5,6
 474 898 474 898 474 874 c 0,7,8
 474 849 474 849 449 849 c 0,9,10
 417 849 417 849 407 684 c 0,11,12
 404 634 404 634 403 575 c 1,13,-1
 403 472 l 1,14,-1
 406 414 l 1,15,-1
 406 346 l 2,16,17
 406 190 406 190 360 102 c 1,18,19
 302 -14 302 -14 162 -14 c 0,20,21
 161 -14 161 -14 160 -14 c 0,22,23
 116 -14 116 -14 84 4 c 0,24,25
 44 27 44 27 44 61.5 c 128,-1,26
 44 96 44 96 65 116.5 c 128,-1,27
 86 137 86 137 113.5 137 c 128,-1,28
 141 137 141 137 141 113 c 0,29,30
 141 95 141 95 117.5 88 c 128,-1,31
 94 81 94 81 94 67 c 0,32,33
 94 34 94 34 160 34 c 256,34,35
 226 34 226 34 264 63 c 0,36,37
 355 134 355 134 355 346 c 1,0,-1
762 708 m 0,38,39
 762 618 762 618 711 547 c 128,-1,40
 660 476 660 476 570 476 c 0,41,42
 532 476 532 476 504 500 c 1,43,44
 473 523 473 523 473 553 c 128,-1,45
 473 583 473 583 498 583 c 0,46,47
 518 583 518 583 519.5 564 c 128,-1,48
 521 545 521 545 536 535 c 128,-1,49
 551 525 551 525 570 525 c 0,50,51
 636 525 636 525 674 580.5 c 128,-1,52
 712 636 712 636 712 702.5 c 128,-1,53
 712 769 712 769 680 811 c 0,54,55
 600 913 600 913 392 913 c 0,56,57
 289 913 289 913 197 867 c 0,58,59
 67 801 67 801 67 696 c 0,60,61
 67 653 67 653 89 625.5 c 128,-1,62
 111 598 111 598 149 598 c 128,-1,63
 187 598 187 598 216.5 645 c 128,-1,64
 246 692 246 692 246 733 c 0,65,66
 246 757 246 757 271 757 c 128,-1,67
 296 757 296 757 296 733 c 0,68,69
 296 667 296 667 256 611 c 1,70,71
 208 546 208 546 150 546 c 128,-1,72
 92 546 92 546 54.5 590 c 128,-1,73
 17 634 17 634 17 696 c 0,74,75
 17 818 17 818 147 896 c 0,76,77
 260 963 260 963 400 963 c 128,-1,78
 540 963 540 963 637 910 c 0,79,80
 762 843 762 843 762 708 c 0,38,39
EndSplineSet
Validated: 1
EndChar

StartChar: Q
Encoding: 81 81 53
Width: 823
GlyphClass: 2
Flags: W
LayerCount: 3
Fore
SplineSet
785 304 m 1,0,-1
 785 -248 l 1,1,-1
 785 -616 l 1,2,3
 784 -628 784 -628 777 -637 c 0,4,5
 771 -645 771 -645 760 -645 c 0,6,7
 759 -645 759 -645 757 -645 c 0,8,9
 744 -644 744 -644 738 -637 c 1,10,11
 732 -621 732 -621 732 -612 c 2,12,-1
 732 -449 l 1,13,-1
 732 -345 l 2,14,15
 732 -305 732 -305 732.5 -279 c 128,-1,16
 733 -253 733 -253 733 -226 c 2,17,-1
 733 -164 l 1,18,-1
 733 -67 l 1,19,-1
 733 -54 l 1,20,-1
 733 -38 l 1,21,-1
 733 -9 l 1,22,-1
 733 43 l 1,23,-1
 733 128 l 1,24,-1
 733 185 l 2,25,26
 733 217 733 217 734 255 c 1,27,28
 684 143 684 143 604 82 c 0,29,30
 513 14 513 14 398 14 c 0,31,32
 213 14 213 14 108 163 c 1,33,34
 14 294 14 294 13 486 c 0,35,36
 13 643 13 643 66.5 751.5 c 128,-1,37
 120 860 120 860 230 925 c 1,38,39
 234 929 234 929 244 929 c 0,40,41
 268 929 268 929 268 903 c 0,42,43
 268 891 268 891 255 884 c 1,44,45
 162 821 162 821 129 762 c 1,46,47
 61 646 61 646 61 486 c 0,48,49
 61 312 61 312 142 198 c 1,50,51
 235 62 235 62 398 61 c 0,52,53
 554 61 554 61 651 206 c 1,54,55
 692 271 692 271 713 342 c 128,-1,56
 734 413 734 413 734 496 c 0,57,58
 734 637 734 637 662 764 c 0,59,60
 578 914 578 914 448 914 c 2,61,-1
 446 914 l 2,62,63
 399 914 399 914 367 897 c 1,64,65
 261 846 261 846 260 708 c 0,66,67
 260 685 260 685 273.5 668 c 128,-1,68
 287 651 287 651 308 651 c 0,69,70
 323 651 323 651 331 662 c 1,71,72
 357 688 357 688 357 735 c 0,73,74
 357 762 357 762 382 762 c 256,75,76
 407 762 407 762 407 738 c 256,77,78
 407 714 407 714 399 693 c 1,79,80
 377 603 377 603 308 603 c 0,81,82
 288 603 288 603 270 612 c 128,-1,83
 252 621 252 621 239 635 c 128,-1,84
 226 649 226 649 218.5 668 c 128,-1,85
 211 687 211 687 211 708 c 0,86,87
 211 814 211 814 274 887 c 1,88,89
 341 963 341 963 446 963 c 0,90,91
 527 963 527 963 591 916 c 0,92,93
 682 850 682 850 734 732 c 1,94,-1
 734 754 l 1,95,96
 732 771 732 771 732 783.5 c 128,-1,97
 732 796 732 796 734 803 c 0,98,99
 739 826 739 826 742 829 c 0,100,101
 749 839 749 839 757 842 c 1,102,103
 766 844 766 844 774.5 835.5 c 128,-1,104
 783 827 783 827 783 819 c 2,105,-1
 783 652 l 1,106,-1
 783 564 l 1,107,108
 784 553 784 553 784 542 c 2,109,-1
 784 523 l 1,110,-1
 784 496 l 1,111,-1
 785 304 l 1,0,-1
EndSplineSet
Validated: 1
EndChar

StartChar: R
Encoding: 82 82 54
Width: 1084
GlyphClass: 2
Flags: W
LayerCount: 3
Fore
SplineSet
624 495 m 1,0,1
 586 515 586 515 548 515 c 0,2,3
 539 515 539 515 525 510 c 1,4,5
 508 502 508 502 508 496 c 0,6,7
 508 488 508 488 528 482 c 0,8,9
 548 477 548 477 555 477 c 0,10,11
 573 477 573 477 591 481.5 c 128,-1,12
 609 486 609 486 624 495 c 1,0,1
493 869 m 0,13,14
 493 844 493 844 471 844 c 0,15,16
 470 844 470 844 469 844 c 0,17,18
 445 844 445 844 435 769 c 0,19,20
 428 723 428 723 425 667.5 c 128,-1,21
 422 612 422 612 422 548 c 2,22,-1
 422 506 l 1,23,-1
 422 472 l 1,24,-1
 422 451 l 2,25,26
 422 440 422 440 423 426 c 0,27,28
 424 413 424 413 424 401 c 2,29,-1
 424 380 l 1,30,-1
 424 347 l 2,31,32
 424 190 424 190 379 102 c 0,33,34
 320 -14 320 -14 180 -14 c 0,35,36
 179 -14 179 -14 178 -14 c 0,37,38
 169 -14 169 -14 159.5 -13 c 128,-1,39
 150 -12 150 -12 139 -10 c 0,40,41
 61 8 61 8 61 67 c 0,42,43
 61 97 61 97 82.5 117 c 128,-1,44
 104 137 104 137 134 137 c 0,45,46
 159 137 159 137 159 112 c 0,47,48
 159 94 159 94 135 87 c 0,49,50
 112 81 112 81 112 68 c 0,51,52
 112 57 112 57 119 50 c 0,53,54
 138 34 138 34 178 34 c 0,55,56
 295 34 295 34 341 139 c 1,57,58
 373 216 373 216 373 347 c 0,59,60
 373 364 373 364 372.5 390.5 c 128,-1,61
 372 417 372 417 371 450 c 0,62,63
 370 467 370 467 370 481 c 2,64,-1
 370 509 l 1,65,-1
 370 552 l 1,66,-1
 370 601 l 1,67,68
 375 743 375 743 398 820 c 1,69,70
 422 893 422 893 468 893 c 0,71,72
 493 893 493 893 493 869 c 0,13,14
1070 201 m 0,73,74
 1070 112 1070 112 1011 49 c 0,75,76
 951 -14 951 -14 864 -14 c 0,77,78
 791 -14 791 -14 744 47 c 1,79,80
 700 100 700 100 700 177 c 2,81,-1
 700 354 l 2,82,83
 700 420 700 420 660 460 c 1,84,85
 603 428 603 428 547 428 c 0,86,87
 518 428 518 428 488 449 c 1,88,89
 453 472 453 472 454 497 c 1,90,91
 454 525 454 525 487 545 c 1,92,93
 517 562 517 562 546 562 c 0,94,95
 605 562 605 562 663 525 c 1,96,97
 678 534 678 534 694 558 c 0,98,99
 732 615 732 615 732 697 c 0,100,101
 732 715 732 715 728.5 734 c 128,-1,102
 725 753 725 753 717 768 c 1,103,104
 683 843 683 843 592 883 c 1,105,106
 514 915 514 915 428 915 c 0,107,108
 425 915 425 915 423 915 c 0,109,110
 366 915 366 915 304 899 c 0,111,112
 205 872 205 872 140 815 c 1,113,114
 65 746 65 746 65 651 c 0,115,116
 65 613 65 613 99 582 c 0,117,118
 134 551 134 551 172 551 c 0,119,120
 212 551 212 551 240 592 c 0,121,122
 263 627 263 627 263 666 c 0,123,124
 263 694 263 694 285 694 c 0,125,126
 286 694 286 694 287 694 c 0,127,128
 312 694 312 694 311 669 c 1,129,130
 311 604 311 604 274 557 c 1,131,132
 235 503 235 503 172 503 c 0,133,134
 116 503 116 503 65 548 c 0,135,136
 16 592 16 592 15 649 c 1,137,138
 15 795 15 795 152 886 c 1,139,140
 272 963 272 963 423 963 c 0,141,142
 484 963 484 963 545 949 c 0,143,144
 597 937 597 937 637 916 c 128,-1,145
 677 895 677 895 710 865 c 1,146,147
 782 796 782 796 781 697 c 1,148,149
 781 566 781 566 696 493 c 1,150,151
 749 440 749 440 750 354 c 1,152,-1
 750 177 l 2,153,154
 750 124 750 124 779 82 c 0,155,156
 812 34 812 34 864 34 c 0,157,158
 881 34 881 34 896.5 37 c 128,-1,159
 912 40 912 40 927 48 c 0,160,161
 1020 92 1020 92 1020 201 c 0,162,163
 1020 225 1020 225 1004 243 c 128,-1,164
 988 261 988 261 965 261 c 0,165,166
 948 261 948 261 943 254 c 1,167,168
 936 239 936 239 930 223.5 c 128,-1,169
 924 208 924 208 908 208 c 0,170,171
 883 208 883 208 884 233 c 1,172,173
 884 266 884 266 907.5 288 c 128,-1,174
 931 310 931 310 965 310 c 0,175,176
 987 310 987 310 1005.5 301 c 128,-1,177
 1024 292 1024 292 1039 277 c 128,-1,178
 1054 262 1054 262 1062 242.5 c 128,-1,179
 1070 223 1070 223 1070 201 c 0,73,74
EndSplineSet
Validated: 33
EndChar

StartChar: S
Encoding: 83 83 55
Width: 704
GlyphClass: 2
Flags: W
LayerCount: 3
Fore
SplineSet
640 833 m 0,0,1
 640 848 640 848 634 863 c 128,-1,2
 628 878 628 878 618 889.5 c 128,-1,3
 608 901 608 901 594.5 908 c 128,-1,4
 581 915 581 915 565 915 c 0,5,6
 449 915 449 915 407 787 c 0,7,8
 381 710 381 710 381 564 c 1,9,10
 405 570 405 570 428.5 578.5 c 128,-1,11
 452 587 452 587 475 598 c 0,12,13
 549 637 549 637 592 692 c 1,14,15
 640 759 640 759 640 833 c 0,0,1
690 833 m 0,16,17
 690 711 690 711 595 622 c 0,18,19
 510 542 510 542 382 515 c 1,20,21
 382 500 382 500 385 432 c 0,22,23
 386 406 386 406 386.5 385.5 c 128,-1,24
 387 365 387 365 387 349 c 0,25,26
 387 191 387 191 338 102 c 0,27,28
 274 -14 274 -14 134 -14 c 0,29,30
 133 -14 133 -14 132 -14 c 0,31,32
 124 -14 124 -14 114 -13 c 128,-1,33
 104 -12 104 -12 94 -10 c 0,34,35
 15 8 15 8 15 67 c 0,36,37
 15 97 15 97 37 117 c 128,-1,38
 59 137 59 137 89 137 c 0,39,40
 114 137 114 137 114 113 c 0,41,42
 114 95 114 95 89 87 c 1,43,44
 65 81 65 81 65 68 c 0,45,46
 65 57 65 57 74 50 c 1,47,48
 90 34 90 34 132 34 c 0,49,50
 197 34 197 34 239 63 c 1,51,52
 338 137 338 137 338 349 c 0,53,54
 338 389 338 389 335 429 c 2,55,-1
 331 508 l 1,56,57
 325 506 325 506 321 506 c 2,58,-1
 311 506 l 1,59,-1
 295 506 l 2,60,61
 200 506 200 506 140 573 c 0,62,63
 80 639 80 639 80 737 c 256,64,65
 80 835 80 835 161 901 c 1,66,67
 238 962 238 962 338 963 c 0,68,69
 364 963 364 963 364 938 c 0,70,71
 364 914 364 914 338 914 c 0,72,73
 258 914 258 914 196 867 c 0,74,75
 129 816 129 816 129 737 c 0,76,77
 129 660 129 660 173 610 c 1,78,79
 220 554 220 554 295 554 c 2,80,-1
 311 554 l 2,81,82
 316 554 316 554 320.5 555 c 128,-1,83
 325 556 325 556 330 557 c 1,84,85
 330 662 330 662 342 733 c 1,86,87
 361 835 361 835 410 894 c 0,88,89
 467 964 467 964 565 964 c 0,90,91
 616 964 616 964 653 924 c 0,92,93
 690 885 690 885 690 833 c 0,16,17
EndSplineSet
Validated: 1
EndChar

StartChar: T
Encoding: 84 84 56
Width: 703
GlyphClass: 2
Flags: W
LayerCount: 3
Fore
SplineSet
593 870 m 0,0,1
 593 879 593 879 586.5 887.5 c 128,-1,2
 580 896 580 896 570 902 c 128,-1,3
 560 908 560 908 548.5 911 c 128,-1,4
 537 914 537 914 526 914 c 0,5,6
 461 914 461 914 404 876 c 1,7,8
 474 832 474 832 539 831 c 0,9,10
 558 831 558 831 575.5 841.5 c 128,-1,11
 593 852 593 852 593 870 c 0,0,1
689 201 m 0,12,13
 689 113 689 113 626 49 c 1,14,15
 566 -14 566 -14 475 -14 c 0,16,17
 317 -14 317 -14 226 95 c 0,18,19
 141 198 141 198 141 359 c 0,20,21
 141 431 141 431 152 500 c 128,-1,22
 163 569 163 569 185 635 c 0,23,24
 210 710 210 710 244.5 768 c 128,-1,25
 279 826 279 826 323 872 c 1,26,27
 269 914 269 914 241 914 c 0,28,29
 178 914 178 914 121 859 c 0,30,31
 64 805 64 805 63 742 c 0,32,33
 63 717 63 717 75 701 c 1,34,35
 85 677 85 677 103 677 c 0,36,37
 104 677 104 677 105 677 c 0,38,39
 125 677 125 677 138 698 c 1,40,41
 147 716 147 716 147 740 c 256,42,43
 147 764 147 764 173 764 c 0,44,45
 198 764 198 764 198 739 c 0,46,47
 198 696 198 696 174 664 c 0,48,49
 146 628 146 628 105 628 c 256,50,51
 64 628 64 628 37 665 c 1,52,53
 14 700 14 700 14 742 c 0,54,55
 14 826 14 826 85 894 c 0,56,57
 157 963 157 963 241 963 c 0,58,59
 291 963 291 963 362 906 c 1,60,61
 434 962 434 962 526 963 c 0,62,63
 545 963 545 963 566 956 c 0,64,65
 643 934 643 934 643 870 c 0,66,67
 643 851 643 851 634.5 834.5 c 128,-1,68
 626 818 626 818 611.5 807 c 128,-1,69
 597 796 597 796 578 789 c 128,-1,70
 559 782 559 782 539 782 c 0,71,72
 453 782 453 782 365 843 c 1,73,74
 278 763 278 763 230 620 c 1,75,76
 191 494 191 494 191 359 c 0,77,78
 191 218 191 218 261 131 c 0,79,80
 340 34 340 34 475 34 c 0,81,82
 543 34 543 34 591 83 c 0,83,84
 640 132 640 132 640 201 c 0,85,86
 640 225 640 225 624 244 c 128,-1,87
 608 263 608 263 586 263 c 0,88,89
 547 263 547 263 540 241 c 0,90,91
 538 233 538 233 535 228 c 128,-1,92
 532 223 532 223 531 222 c 0,93,94
 527 215 527 215 514 215 c 0,95,96
 490 215 490 215 490 241 c 0,97,98
 490 274 490 274 522 295 c 0,99,100
 549 312 549 312 586 312 c 0,101,102
 631 312 631 312 658 279 c 1,103,104
 689 246 689 246 689 201 c 0,12,13
EndSplineSet
Validated: 1
EndChar

StartChar: U
Encoding: 85 85 57
Width: 1142
GlyphClass: 2
Flags: W
LayerCount: 3
Fore
SplineSet
1127 202 m 0,0,1
 1127 115 1127 115 1069 50 c 1,2,3
 1010 -14 1010 -14 924 -14 c 0,4,5
 923 -14 923 -14 921 -14 c 0,6,7
 859 -14 859 -14 807.5 21 c 128,-1,8
 756 56 756 56 732 116 c 1,9,10
 666 -14 666 -14 527 -14 c 0,11,12
 423 -14 423 -14 354 72 c 1,13,14
 291 153 291 153 291 260 c 2,15,-1
 291 766 l 2,16,17
 291 786 291 786 285 811 c 1,18,19
 267 913 267 913 198 913 c 0,20,21
 136 913 136 913 95 843 c 0,22,23
 59 783 59 783 59 717 c 0,24,25
 59 690 59 690 63.5 665 c 128,-1,26
 68 640 68 640 77 617 c 0,27,28
 100 556 100 556 145 556 c 0,29,30
 181 556 181 556 206 598 c 1,31,32
 226 634 226 634 226 674 c 0,33,34
 226 697 226 697 248 697 c 0,35,36
 249 697 249 697 250 697 c 0,37,38
 276 697 276 697 275 674 c 1,39,40
 275 612 275 612 243 563 c 1,41,42
 204 508 204 508 145 508 c 0,43,44
 75 508 75 508 39 582 c 0,45,46
 10 640 10 640 10 717 c 0,47,48
 10 758 10 758 23 801 c 1,49,50
 41 869 41 869 84 912 c 0,51,52
 133 962 133 962 198 963 c 0,53,54
 236 963 236 963 262 944 c 0,55,56
 340 888 340 888 340 766 c 2,57,-1
 340 260 l 2,58,59
 340 217 340 217 353 180 c 1,60,61
 373 117 373 117 417 78 c 1,62,63
 464 34 464 34 527 34 c 0,64,65
 609 34 609 34 665 99 c 1,66,67
 716 162 716 162 716 248 c 2,68,-1
 716 939 l 2,69,70
 716 963 716 963 739 963 c 0,71,72
 766 963 766 963 766 939 c 2,73,-1
 766 202 l 2,74,75
 766 134 766 134 810 84 c 256,76,77
 854 34 854 34 921 34 c 0,78,79
 938 34 938 34 953.5 37 c 128,-1,80
 969 40 969 40 983 48 c 1,81,82
 1078 94 1078 94 1078 202 c 0,83,84
 1078 226 1078 226 1062 245 c 128,-1,85
 1046 264 1046 264 1022 264 c 0,86,87
 1004 264 1004 264 998 256 c 1,88,89
 998 254 998 254 987 226 c 0,90,91
 981 210 981 210 965 210 c 0,92,93
 940 210 940 210 940 236 c 0,94,95
 940 269 940 269 964 291 c 128,-1,96
 988 313 988 313 1022 313 c 0,97,98
 1066 313 1066 313 1097 280 c 1,99,100
 1127 246 1127 246 1127 202 c 0,0,1
EndSplineSet
Validated: 33
EndChar

StartChar: V
Encoding: 86 86 58
Width: 919
GlyphClass: 2
Flags: W
LayerCount: 3
Fore
SplineSet
700 819 m 1,0,1
 695 835 695 835 688 849 c 1,2,3
 661 913 661 913 619 913 c 2,4,5
 618 913 l 2,6,-1
 609 913 l 2,7,8
 607 913 607 913 601 911 c 1,9,10
 558 906 558 906 558 884 c 0,11,12
 558 852 558 852 602 834 c 0,13,14
 619 827 619 827 636 822.5 c 128,-1,15
 653 818 653 818 671 818 c 2,16,-1
 685 818 l 2,17,18
 697 818 697 818 700 819 c 1,0,1
900 870 m 0,19,20
 900 857 900 857 883 843 c 0,21,22
 859 824 859 824 829 809 c 128,-1,23
 799 794 799 794 762 781 c 1,24,25
 792 657 792 657 792 474 c 0,26,27
 792 431 792 431 788 378 c 0,28,29
 784 323 784 323 774 270 c 128,-1,30
 764 217 764 217 746 165 c 0,31,32
 685 -14 685 -14 528 -14 c 0,33,34
 423 -14 423 -14 354 73 c 1,35,36
 291 155 291 155 291 261 c 2,37,-1
 291 766 l 2,38,39
 291 777 291 777 289.5 788 c 128,-1,40
 288 799 288 799 286 811 c 0,41,42
 267 913 267 913 198 913 c 0,43,44
 135 913 135 913 96 843 c 1,45,46
 59 782 59 782 59 717 c 0,47,48
 59 690 59 690 64.5 665 c 128,-1,49
 70 640 70 640 78 616 c 0,50,51
 101 555 101 555 148 555 c 0,52,53
 184 555 184 555 208 598 c 0,54,55
 227 630 227 630 227 673 c 0,56,57
 227 696 227 696 251 696 c 0,58,59
 252 696 252 696 253 696 c 0,60,61
 277 696 277 696 276 673 c 1,62,63
 276 610 276 610 245 562 c 1,64,65
 208 507 208 507 148 507 c 0,66,67
 78 507 78 507 41 581 c 1,68,69
 10 640 10 640 10 717 c 0,70,71
 10 757 10 757 23 800 c 1,72,73
 41 869 41 869 84 911 c 1,74,75
 132 962 132 962 198 963 c 0,76,77
 217 963 217 963 233 957.5 c 128,-1,78
 249 952 249 952 262 944 c 1,79,80
 341 887 341 887 341 766 c 2,81,-1
 341 261 l 2,82,83
 341 219 341 219 353 181 c 0,84,85
 373 118 373 118 418 78 c 1,86,87
 465 34 465 34 528 34 c 0,88,89
 655 34 655 34 707 202 c 1,90,91
 741 307 741 307 741 465 c 0,92,93
 741 470 741 470 741 474 c 0,94,95
 741 651 741 651 714 771 c 1,96,97
 703 770 703 770 692.5 769.5 c 128,-1,98
 682 769 682 769 671 769 c 0,99,100
 643 769 643 769 617 776 c 0,101,102
 509 802 509 802 509 883 c 0,103,104
 509 922 509 922 545 944 c 0,105,106
 560 952 560 952 579 957.5 c 128,-1,107
 598 963 598 963 618 963 c 0,108,109
 704 963 704 963 749 829 c 1,110,111
 797 841 797 841 857 889 c 0,112,113
 867 896 867 896 874 896 c 0,114,115
 900 896 900 896 900 870 c 0,19,20
EndSplineSet
Validated: 33
EndChar

StartChar: W
Encoding: 87 87 59
Width: 1339
GlyphClass: 2
Flags: W
LayerCount: 3
Fore
SplineSet
1126 820 m 1,0,-1
 1122 834 l 1,1,2
 1095 913 1095 913 1047 913 c 2,3,-1
 1046 913 l 1,4,-1
 1037 913 l 2,5,6
 1031 913 1031 913 1028 912 c 0,7,8
 986 906 986 906 986 884 c 0,9,10
 986 851 986 851 1030 835 c 1,11,12
 1065 820 1065 820 1099 819 c 1,13,-1
 1112 819 l 2,14,15
 1123 819 1123 819 1126 820 c 1,0,-1
1141 772 m 1,16,17
 1121 770 1121 770 1097.5 770 c 128,-1,18
 1074 770 1074 770 1046 776 c 0,19,20
 937 802 937 802 937 884 c 0,21,22
 937 923 937 923 973 944 c 1,23,24
 1010 962 1010 962 1041 962 c 0,25,26
 1042 962 1042 962 1043 963 c 1,27,28
 1073 963 1073 963 1094 950 c 0,29,30
 1149 917 1149 917 1177 829 c 1,31,32
 1225 841 1225 841 1285 889 c 0,33,34
 1295 897 1295 897 1303 897 c 0,35,36
 1328 897 1328 897 1328 872 c 0,37,38
 1328 857 1328 857 1311 843 c 0,39,40
 1264 807 1264 807 1190 781 c 1,41,42
 1220 657 1220 657 1220 473 c 0,43,44
 1220 362 1220 362 1202 269 c 1,45,46
 1152 -14 1152 -14 956 -14 c 2,47,48
 955 -14 l 0,49,50
 808 -14 808 -14 746 129 c 1,51,52
 681 -14 681 -14 537 -14 c 0,53,54
 433 -14 433 -14 366.5 69.5 c 128,-1,55
 300 153 300 153 300 260 c 2,56,-1
 300 766 l 2,57,58
 300 786 300 786 294 811 c 1,59,60
 276 913 276 913 207 913 c 0,61,62
 145 913 145 913 104 843 c 1,63,64
 68 784 68 784 68 724 c 0,65,66
 68 663 68 663 85 618 c 0,67,68
 108 556 108 556 153 556 c 0,69,70
 190 556 190 556 213 599 c 0,71,72
 233 635 233 635 233 673 c 0,73,74
 233 697 233 697 256 697 c 0,75,76
 257 697 257 697 258 697 c 0,77,78
 283 697 283 697 283 673 c 0,79,80
 283 611 283 611 251 562 c 1,81,82
 212 508 212 508 147.5 508 c 128,-1,83
 83 508 83 508 48 582 c 1,84,85
 19 640 19 640 19 717 c 0,86,87
 19 758 19 758 32 801 c 1,88,89
 50 868 50 868 96 915.5 c 128,-1,90
 142 963 142 963 207 963 c 0,91,92
 242 963 242 963 271 944 c 1,93,94
 349 888 349 888 349 766 c 2,95,-1
 349 260 l 2,96,97
 349 217 349 217 362 180 c 1,98,99
 382 117 382 117 427.5 75.5 c 128,-1,100
 473 34 473 34 537 34 c 0,101,102
 663 34 663 34 709 159 c 1,103,104
 726 215 726 215 726 292 c 0,105,106
 726 300 726 300 726 308 c 0,107,108
 725 317 725 317 725 327 c 2,109,-1
 725 938 l 2,110,111
 725 963 725 963 750 963 c 128,-1,112
 775 963 775 963 775 938 c 2,113,-1
 775 227 l 2,114,115
 775 148 775 148 826 91 c 128,-1,116
 877 34 877 34 955 34 c 0,117,118
 1084 34 1084 34 1136 202 c 1,119,120
 1170 319 1170 319 1170 483 c 128,-1,121
 1170 647 1170 647 1141 772 c 1,16,17
EndSplineSet
Validated: 1
EndChar

StartChar: X
Encoding: 88 88 60
Width: 989
GlyphClass: 2
Flags: W
LayerCount: 3
Fore
SplineSet
971 193 m 0,0,1
 971 103 971 103 894 41 c 1,2,3
 823 -14 823 -14 730 -14 c 0,4,5
 625 -14 625 -14 543 60 c 1,6,7
 466 126 466 126 435 237 c 1,8,9
 398 132 398 132 336 66 c 1,10,11
 259 -14 259 -14 159 -14 c 0,12,13
 114 -14 114 -14 77 4 c 1,14,15
 29 29 29 29 29 67 c 0,16,17
 29 97 29 97 50.5 117 c 128,-1,18
 72 137 72 137 101 137 c 0,19,20
 127 137 127 137 127 113 c 0,21,22
 127 96 127 96 103 87 c 1,23,24
 78 81 78 81 79 67 c 1,25,26
 79 51 79 51 113 40 c 1,27,28
 138 34 138 34 159 34 c 0,29,30
 210 34 210 34 245 56 c 0,31,32
 353 122 353 122 396 280 c 1,33,34
 419 360 419 360 419 452 c 0,35,36
 419 554 419 554 400 646 c 128,-1,37
 381 738 381 738 338 812 c 0,38,39
 280 914 280 914 208 914 c 0,40,41
 172 914 172 914 146 898 c 0,42,43
 62 848 62 848 62 740 c 0,44,45
 62 710 62 710 69 681.5 c 128,-1,46
 76 653 76 653 88 624 c 0,47,48
 119 554 119 554 173 554 c 0,49,50
 213 554 213 554 240 594 c 0,51,52
 263 628 263 628 263 669 c 0,53,54
 263 697 263 697 286 697 c 0,55,56
 287 697 287 697 288 697 c 0,57,58
 315 697 315 697 314 672 c 1,59,60
 314 611 314 611 275 559 c 0,61,62
 234 506 234 506 173 506 c 0,63,64
 96 506 96 506 50 588 c 1,65,66
 13 657 13 657 13 740 c 0,67,68
 13 825 13 825 66 893 c 1,69,70
 123 963 123 963 208 963 c 0,71,72
 263 963 263 963 307 928 c 1,73,74
 416 838 416 838 455 626 c 1,75,76
 463 656 463 656 474 685.5 c 128,-1,77
 485 715 485 715 499 744 c 0,78,79
 598 962 598 962 783 963 c 0,80,81
 809 963 809 963 830.5 952.5 c 128,-1,82
 852 942 852 942 867.5 924 c 128,-1,83
 883 906 883 906 891.5 882.5 c 128,-1,84
 900 859 900 859 900 833 c 0,85,86
 900 816 900 816 897.5 797.5 c 128,-1,87
 895 779 895 779 891 760 c 0,88,89
 876 698 876 698 843 658 c 0,90,91
 801 609 801 609 745 609 c 0,92,93
 722 609 722 609 722 634 c 128,-1,94
 722 659 722 659 743 659 c 0,95,96
 744 659 744 659 745 659 c 0,97,98
 792 659 792 659 825 724 c 1,99,100
 849 776 849 776 849 833 c 0,101,102
 849 864 849 864 831.5 889 c 128,-1,103
 814 914 814 914 783 914 c 0,104,105
 723 914 723 914 673 883 c 0,106,107
 544 801 544 801 494 585 c 1,108,109
 469 482 469 482 469 353 c 0,110,111
 469 323 469 323 473 295.5 c 128,-1,112
 477 268 477 268 486 241 c 0,113,114
 514 152 514 152 575 96 c 1,115,116
 608 64 608 64 647.5 49 c 128,-1,117
 687 34 687 34 730 34 c 0,118,119
 802 34 802 34 859 76 c 0,120,121
 920 122 920 122 921 193 c 0,122,123
 921 220 921 220 903 241.5 c 128,-1,124
 885 263 885 263 858 263 c 0,125,126
 847 263 847 263 840.5 262 c 128,-1,127
 834 261 834 261 829.5 257.5 c 128,-1,128
 825 254 825 254 821.5 247.5 c 128,-1,129
 818 241 818 241 813 230 c 1,130,131
 805 216 805 216 792 216 c 0,132,133
 767 216 767 216 767 242 c 0,134,135
 767 274 767 274 797 295 c 1,136,137
 824 312 824 312 858 312 c 0,138,139
 905 312 905 312 938 276 c 1,140,141
 971 238 971 238 971 193 c 0,0,1
EndSplineSet
Validated: 33
EndChar

StartChar: Y
Encoding: 89 89 61
Width: 833
GlyphClass: 2
Flags: W
LayerCount: 3
Fore
SplineSet
696 -46 m 1,0,1
 413 -140 413 -140 378 -390 c 0,2,3
 376 -411 376 -411 376 -456 c 0,4,5
 376 -484 376 -484 383 -504 c 0,6,7
 411 -596 411 -596 486 -596 c 0,8,9
 548 -596 548 -596 587 -564 c 0,10,11
 662 -504 662 -504 686 -381 c 0,12,13
 689 -368 689 -368 691 -341.5 c 128,-1,14
 693 -315 693 -315 694 -282 c 128,-1,15
 695 -249 695 -249 695.5 -211.5 c 128,-1,16
 696 -174 696 -174 696 -138 c 2,17,-1
 696 -46 l 1,0,1
863 31 m 1,18,-1
 861 24 l 0,19,20
 843 -5 843 -5 744 -34 c 1,21,-1
 745 -138 l 2,22,23
 745 -139 745 -139 744 -217 c 0,24,25
 743 -257 743 -257 741.5 -292.5 c 128,-1,26
 740 -328 740 -328 737.5 -356 c 128,-1,27
 735 -384 735 -384 732 -400 c 0,28,29
 721 -452 721 -452 701 -494.5 c 128,-1,30
 681 -537 681 -537 653 -569 c 0,31,32
 585 -645 585 -645 486 -645 c 0,33,34
 415 -645 415 -645 369 -586 c 1,35,36
 327 -530 327 -530 327 -456 c 0,37,38
 327 -424 327 -424 328 -394 c 0,39,40
 337 -112 337 -112 695 0 c 1,41,-1
 696 105 l 1,42,43
 633 4 633 4 513 4 c 0,44,45
 412 4 412 4 344 90 c 1,46,47
 283 170 283 170 283 275 c 2,48,-1
 283 770 l 2,49,50
 283 818 283 818 262 861 c 0,51,52
 235 915 235 915 191 915 c 0,53,54
 130 915 130 915 92 847 c 1,55,56
 57 788 57 788 57 723 c 0,57,58
 57 669 57 669 75 626 c 0,59,60
 99 566 99 566 140 565 c 0,61,62
 176 565 176 565 200 605 c 1,63,64
 218 639 218 639 218 679 c 0,65,66
 218 703 218 703 241 703 c 0,67,68
 242 703 242 703 243 703 c 0,69,70
 266 703 266 703 266 681 c 0,71,72
 266 680 266 680 266 679 c 0,73,74
 266 618 266 618 236 571 c 1,75,76
 199 518 199 518 140 518 c 0,77,78
 101 518 101 518 79 538 c 1,79,80
 9 595 9 595 9 723 c 0,81,82
 9 809 9 809 56 882 c 0,83,84
 108 963 108 963 191 963 c 0,85,86
 228 963 228 963 255 944 c 1,87,88
 331 887 331 887 331 770 c 2,89,-1
 331 275 l 2,90,91
 331 190 331 190 379 125 c 1,92,93
 431 51 431 51 513 51 c 256,94,95
 595 51 595 51 647 117 c 1,96,97
 696 175 696 175 696 262 c 2,98,-1
 696 939 l 2,99,100
 696 963 696 963 720 963 c 0,101,102
 745 963 745 963 745 940 c 0,103,104
 745 939 745 939 745 938 c 2,105,-1
 743 11 l 1,106,107
 806 28 806 28 827 46 c 0,108,109
 838 55 838 55 846 53 c 0,110,111
 857 50 857 50 863 31 c 1,18,-1
EndSplineSet
Validated: 1
EndChar

StartChar: Z
Encoding: 90 90 62
Width: 800
GlyphClass: 2
Flags: W
LayerCount: 3
Fore
SplineSet
195 75 m 1,0,1
 165 82 165 82 122 82 c 0,2,3
 98 82 98 82 85 79 c 0,4,5
 58 73 58 73 58 58 c 0,6,7
 58 34 58 34 119 34 c 2,8,9
 124 34 l 0,10,11
 160 34 160 34 195 75 c 1,0,1
774 897 m 0,12,13
 774 912 774 912 729 912 c 0,14,15
 699 912 699 912 675 885 c 1,16,17
 703 882 703 882 729 882 c 0,18,19
 734 882 734 882 742 882.5 c 128,-1,20
 750 883 750 883 757 884.5 c 128,-1,21
 764 886 764 886 769 889 c 128,-1,22
 774 892 774 892 774 897 c 0,12,13
827 22 m 1,23,-1
 820 15 l 1,24,25
 788 -16 788 -16 592 -14 c 0,26,27
 404 -13 404 -13 246 59 c 1,28,29
 189 -14 189 -14 125 -14 c 0,30,31
 124 -14 124 -14 123 -14 c 0,32,33
 80 -14 80 -14 51 2 c 0,34,35
 9 24 9 24 9 58 c 0,36,37
 9 95 9 95 48 116 c 1,38,39
 80 132 80 132 122 132 c 0,40,41
 163 132 163 132 224 116 c 1,42,-1
 412 466 l 1,43,44
 390 472 390 472 374 472 c 0,45,46
 352 472 352 472 331 462 c 0,47,48
 311 452 311 452 300 452 c 0,49,50
 276 452 276 452 276 475 c 0,51,52
 276 491 276 491 316 510 c 1,53,54
 348 521 348 521 374 521 c 0,55,56
 403 521 403 521 434 510 c 1,57,58
 480 608 480 608 509 669 c 0,59,60
 545 745 545 745 555 766 c 2,61,-1
 580 820 l 2,62,63
 588 838 588 838 595 850 c 1,64,-1
 354 900 l 2,65,66
 291 913 291 913 278 913 c 0,67,68
 264 913 264 913 247.5 911.5 c 128,-1,69
 231 910 231 910 215 905 c 0,70,71
 90 872 90 872 90 778 c 0,72,73
 90 760 90 760 96 743 c 128,-1,74
 102 726 102 726 113.5 712.5 c 128,-1,75
 125 699 125 699 140.5 691 c 128,-1,76
 156 683 156 683 173 683 c 0,77,78
 203 683 203 683 226.5 700.5 c 128,-1,79
 250 718 250 718 250 746 c 0,80,81
 250 772 250 772 274 772 c 0,82,83
 299 772 299 772 299 746 c 0,84,85
 299 700 299 700 261 666 c 1,86,87
 222 634 222 634 173 634 c 0,88,89
 117 634 117 634 78 679 c 1,90,91
 41 720 41 720 41 778 c 0,92,93
 41 862 41 862 120 916 c 1,94,95
 191 962 191 962 278 963 c 0,96,97
 332 963 332 963 387 947 c 0,98,99
 490 918 490 918 618 894 c 1,100,101
 664 962 664 962 729 962 c 0,102,103
 746 962 746 962 760 957 c 1,104,105
 825 942 825 942 825 898 c 2,106,-1
 825 897 l 2,107,108
 825 864 825 864 792 848 c 1,109,110
 764 833 764 833 729 833 c 0,111,112
 709 833 709 833 687.5 834.5 c 128,-1,113
 666 836 666 836 645 840 c 1,114,115
 595 734 595 734 565.5 670.5 c 128,-1,116
 536 607 536 607 519 571 c 128,-1,117
 502 535 502 535 493.5 519 c 128,-1,118
 485 503 485 503 479 490 c 1,119,120
 521 469 521 469 556 469 c 2,121,-1
 559 469 l 0,122,123
 567 469 567 469 583 473 c 128,-1,124
 599 477 599 477 607 477 c 0,125,126
 632 477 632 477 632 453 c 0,127,128
 632 437 632 437 602 428 c 1,129,130
 580 420 580 420 559 420 c 0,131,132
 528 420 528 420 458 447 c 1,133,134
 434 400 434 400 409 353.5 c 128,-1,135
 384 307 384 307 360 263 c 128,-1,136
 336 219 336 219 313.5 178 c 128,-1,137
 291 137 291 137 274 101 c 1,138,139
 444 22 444 22 594 20 c 0,140,141
 734 18 734 18 782 39 c 1,142,143
 808 56 808 56 814 52 c 0,144,145
 835 42 835 42 827 22 c 1,23,-1
EndSplineSet
Validated: 33
EndChar

StartChar: bracketleft
Encoding: 91 91 63
Width: 319
GlyphClass: 2
Flags: W
LayerCount: 3
Fore
SplineSet
334 -74 m 256,0,1
 334 -94 334 -94 312 -94 c 2,2,-1
 168 -94 l 2,3,4
 148 -94 148 -94 147 -74 c 1,5,-1
 147 750 l 2,6,7
 147 770 147 770 168 770 c 2,8,-1
 312 770 l 2,9,10
 334 770 334 770 334 750 c 256,11,12
 334 730 334 730 312 729 c 1,13,-1
 189 729 l 1,14,-1
 189 -53 l 1,15,-1
 312 -53 l 1,16,17
 334 -54 334 -54 334 -74 c 256,0,1
EndSplineSet
Validated: 1
EndChar

StartChar: backslash
Encoding: 92 92 64
Width: 485
GlyphClass: 2
Flags: W
LayerCount: 3
Fore
SplineSet
358 8 m 2,0,1
 358 -13 358 -13 339 -13 c 0,2,3
 338 -13 338 -13 337 -13 c 0,4,5
 322 -13 322 -13 317 2 c 1,6,-1
 134 767 l 2,7,8
 134 768 134 768 133 769 c 1,9,-1
 133 771 l 2,10,11
 133 793 133 793 155 793 c 0,12,13
 169 793 169 793 174 777 c 1,14,-1
 357 12 l 2,15,16
 357 11 357 11 358 10 c 1,17,-1
 358 8 l 2,0,1
EndSplineSet
Validated: 1
EndChar

StartChar: bracketright
Encoding: 93 93 65
Width: 319
GlyphClass: 2
Flags: W
LayerCount: 3
Fore
SplineSet
173 -74 m 2,0,1
 173 -94 173 -94 152 -94 c 2,2,-1
 7 -94 l 2,3,4
 -13 -94 -13 -94 -13 -74 c 256,5,6
 -13 -54 -13 -54 7 -53 c 1,7,-1
 131 -53 l 1,8,-1
 131 729 l 1,9,-1
 7 729 l 2,10,11
 -13 729 -13 729 -13 750 c 0,12,13
 -13 770 -13 770 7 770 c 2,14,-1
 152 770 l 2,15,16
 174 770 174 770 173 750 c 1,17,-1
 173 -74 l 2,0,1
EndSplineSet
Validated: 1
EndChar

StartChar: asciicircum
Encoding: 94 94 66
Width: 398
GlyphClass: 2
Flags: W
LayerCount: 3
Fore
SplineSet
379 480 m 0,0,1
 379 462 379 462 357 462 c 0,2,3
 345 462 345 462 307 505 c 0,4,5
 296 517 296 517 285 528 c 128,-1,6
 274 539 274 539 266 549 c 1,7,8
 261 541 261 541 250 529 c 128,-1,9
 239 517 239 517 221 500 c 0,10,11
 183 462 183 462 173 462 c 0,12,13
 153 462 153 462 153 480 c 0,14,15
 153 489 153 489 183 517 c 0,16,17
 195 528 195 528 206 540 c 128,-1,18
 217 552 217 552 227 563 c 0,19,20
 253 595 253 595 266 595 c 256,21,22
 279 595 279 595 303 565 c 1,23,24
 326 539 326 539 343 521 c 128,-1,25
 360 503 360 503 373 492 c 1,26,27
 379 483 379 483 379 480 c 0,0,1
EndSplineSet
Validated: 1
EndChar

StartChar: underscore
Encoding: 95 95 67
Width: 606
GlyphClass: 2
Flags: W
LayerCount: 3
Fore
SplineSet
581 -38 m 0,0,1
 581 -58 581 -58 559 -58 c 2,2,-1
 32 -58 l 2,3,4
 12 -58 12 -58 11 -38 c 1,5,6
 11 -15 11 -15 32 -15 c 2,7,-1
 559 -15 l 2,8,9
 581 -15 581 -15 581 -38 c 0,0,1
EndSplineSet
Validated: 1
EndChar

StartChar: grave
Encoding: 96 96 68
Width: 398
GlyphClass: 2
Flags: W
LayerCount: 3
Fore
SplineSet
315 478 m 0,0,1
 315 459 315 459 294 459 c 0,2,3
 276 459 276 459 216 508 c 1,4,5
 157 558 157 558 157 573 c 0,6,7
 157 591 157 591 177 592 c 0,8,9
 186 592 186 592 194 585 c 0,10,11
 226 555 226 555 249.5 535 c 128,-1,12
 273 515 273 515 291 505 c 1,13,14
 315 490 315 490 315 478 c 0,0,1
EndSplineSet
Validated: 1
EndChar

StartChar: a
Encoding: 97 97 69
Width: 398
GlyphClass: 2
Flags: W
LayerCount: 3
Fore
SplineSet
275 158 m 256,0,1
 275 212 275 212 238 250 c 1,2,3
 201 290 201 290 147 290 c 0,4,5
 95 290 95 290 58 250 c 0,6,7
 22 212 22 212 22 161 c 2,8,9
 22 158 l 0,10,11
 22 106 22 106 58 66 c 1,12,13
 95 27 95 27 147 27 c 0,14,15
 200 27 200 27 238 66 c 0,16,17
 275 104 275 104 275 158 c 256,0,1
423 19 m 1,18,-1
 412 11 l 1,19,20
 368 -17 368 -17 324 -8 c 0,21,22
 292 -3 292 -3 279 50 c 1,23,24
 228 -13 228 -13 147 -13 c 0,25,26
 77 -13 77 -13 29 37 c 0,27,28
 -20 87 -20 87 -20 158 c 0,29,30
 -20 228 -20 228 28 279 c 0,31,32
 77 330 77 330 147 330 c 0,33,34
 225 330 225 330 275 270 c 1,35,-1
 274 288 l 2,36,37
 273 294 273 294 273 299 c 0,38,39
 273 327 273 327 296 327 c 0,40,41
 318 327 318 327 317 307 c 1,42,-1
 317 77 l 2,43,44
 317 27 317 27 351 27 c 0,45,46
 362 27 362 27 384 42 c 0,47,48
 405 56 405 56 411 52 c 1,49,-1
 412 52 l 0,50,51
 434 35 434 35 423 19 c 1,18,-1
EndSplineSet
Validated: 33
EndChar

StartChar: b
Encoding: 98 98 70
Width: 514
GlyphClass: 2
Flags: W
LayerCount: 3
Fore
SplineSet
364 280 m 132,-1,1
 352 282 352 282 354 262 c 4,2,3
 356 251 356 251 383 230 c 5,4,5
 384 246 384 246 379 264 c 4,6,7
 376 278 376 278 364 280 c 132,-1,1
220 922 m 4,8,9
 154 921 154 921 135 648 c 4,10,11
 124 473 124 473 147 227 c 5,12,13
 279 442 279 442 293 680 c 4,14,15
 308 922 308 922 220 922 c 4,8,9
528 223 m 132,-1,17
 535 210 535 210 533 206 c 4,18,19
 525 186 525 186 500 177 c 4,20,21
 448 158 448 158 412 173 c 5,22,23
 380 -11 380 -11 247 -13 c 4,24,25
 184 -14 184 -14 149 36 c 4,26,27
 124 72 124 72 116 112 c 5,28,29
 53 38 53 38 7 7 c 5,30,31
 -5 1 -5 1 -16 17 c 4,32,33
 -24 29 -24 29 -19 37 c 5,34,-1
 -12 42 l 5,35,36
 21 61 21 61 106 173 c 5,37,38
 80 349 80 349 93 648 c 4,39,40
 106 962 106 962 220 963 c 4,41,42
 342 964 342 964 336 679 c 4,43,44
 332 425 332 425 153 155 c 5,45,46
 165 28 165 28 267 31 c 4,47,48
 335 33 335 33 375 190 c 5,49,50
 312 223 312 223 316 276 c 4,51,52
 318 324 318 324 361 323 c 4,53,54
 402 322 402 322 414 266 c 4,55,56
 419 242 419 242 416 215 c 5,57,58
 434 207 434 207 447 206 c 4,59,60
 479 206 479 206 506 223 c 5,61,62
 521 236 521 236 528 223 c 132,-1,17
EndSplineSet
Validated: 33
EndChar

StartChar: c
Encoding: 99 99 71
Width: 271
GlyphClass: 2
Flags: W
LayerCount: 3
Fore
SplineSet
299 23 m 1,0,-1
 291 16 l 1,1,2
 253 -13 253 -13 160 -13 c 0,3,4
 83 -13 83 -13 29 37 c 0,5,6
 -20 83 -20 83 -20 158 c 0,7,8
 -20 228 -20 228 28 279 c 0,9,10
 77 330 77 330 147 330 c 0,11,12
 170 330 170 330 206 317 c 0,13,14
 248 302 248 302 248 287 c 0,15,16
 248 268 248 268 226 267 c 0,17,18
 223 267 223 267 195 279 c 0,19,20
 167 290 167 290 147 290 c 0,21,22
 95 290 95 290 58 250 c 0,23,24
 22 212 22 212 22 161 c 2,25,26
 22 158 l 0,27,28
 22 108 22 108 57 66 c 1,29,30
 99 29 99 29 147 27 c 0,31,32
 199 24 199 24 239 33 c 1,33,34
 256 39 256 39 273 51 c 0,35,36
 284 58 284 58 291 48 c 0,37,38
 302 35 302 35 299 23 c 1,0,-1
EndSplineSet
Validated: 33
EndChar

StartChar: d
Encoding: 100 100 72
Width: 397
GlyphClass: 2
Flags: W
LayerCount: 3
Fore
SplineSet
275 162 m 0,0,1
 275 214 275 214 239 253 c 0,2,3
 202 292 202 292 147 292 c 0,4,5
 94 292 94 292 57 254 c 1,6,7
 22 216 22 216 22 165 c 2,8,9
 22 162 l 0,10,11
 22 110 22 110 57 68 c 1,12,13
 92 28 92 28 147 28 c 0,14,15
 200 28 200 28 238 68 c 0,16,17
 275 106 275 106 275 162 c 0,0,1
424 39 m 0,18,19
 428 30 428 30 425 22 c 0,20,21
 424 17 424 17 400 4 c 0,22,23
 374 -11 374 -11 341 -10 c 0,24,25
 291 -10 291 -10 281 53 c 1,26,27
 231 -13 231 -13 149 -13 c 0,28,29
 148 -13 148 -13 147 -13 c 0,30,31
 77 -13 77 -13 29 38 c 0,32,33
 -20 90 -20 90 -20 162 c 0,34,35
 -20 232 -20 232 28 283 c 1,36,37
 77 333 77 333 147 333 c 0,38,39
 224 333 224 333 275 274 c 1,40,-1
 275 629 l 2,41,42
 275 649 275 649 296 649 c 128,-1,43
 317 649 317 649 317 629 c 2,44,-1
 316 112 l 2,45,46
 316 64 316 64 318 56 c 1,47,48
 325 28 325 28 350 28 c 2,49,-1
 351 28 l 0,50,51
 366 28 366 28 389 45 c 1,52,53
 405 55 405 55 409 53 c 0,54,55
 422 46 422 46 424 39 c 0,18,19
EndSplineSet
Validated: 33
EndChar

StartChar: e
Encoding: 101 101 73
Width: 267
GlyphClass: 2
Flags: W
LayerCount: 3
Fore
SplineSet
296 32 m 1,0,-1
 296 28 l 1,1,2
 280 -10 280 -10 187 -11 c 0,3,4
 108 -12 108 -12 58 28 c 1,5,6
 53 25 53 25 2 5 c 0,7,8
 -6 2 -6 2 -14 13 c 0,9,10
 -18 18 -18 18 -21 28 c 0,11,12
 -23 35 -23 35 -19 38 c 1,13,14
 13 47 13 47 29 58 c 1,15,16
 -19 104 -19 104 -19 158 c 0,17,18
 -19 236 -19 236 23 279 c 1,19,20
 88 345 88 345 172 324 c 0,21,22
 258 304 258 304 240 213 c 1,23,24
 213 108 213 108 95 49 c 1,25,26
 135 23 135 23 188 22 c 1,27,28
 234 23 234 23 267 50 c 1,29,30
 287 62 287 62 296 32 c 1,0,-1
200 213 m 1,31,32
 216 281 216 281 158 291 c 0,33,34
 77 306 77 306 39 230 c 0,35,36
 -2 148 -2 148 65 74 c 1,37,38
 165 124 165 124 200 213 c 1,31,32
EndSplineSet
Validated: 33
EndChar

StartChar: f
Encoding: 102 102 74
Width: 345
GlyphClass: 2
Flags: W
LayerCount: 3
Layer: 2
SplineSet
114 -432 m 0
 117 -546 150.667 -604 198 -604 c 0
 282.564 -604 278 -446.587 278 -357 c 0
 278 -252.134 263.638 -164.955 218 -99.5 c 128
 192.667 -63.1667 159.333 -20.6667 118 28 c 1
 104.944 -143.359 109.514 -261.524 114 -432 c 0
268 674 m 0
 272.019 760.404 264 920 192 920 c 0
 150 920 122.667 825 122 631 c 1
 122 230 l 1
 191.101 350.927 259.813 499.343 268 674 c 0
374 29 m 129
 374 24.3333 370 19 362 13 c 1
 329.333 -9.66667 275 -12 199 6 c 1
 296.319 -117.27 317 -187.81 317 -364 c 0
 317 -475.932 310.494 -567.166 266 -617 c 128
 249.333 -635.667 229 -645 205 -645 c 128
 113.75 -645 79.6798 -554.641 75 -445 c 0
 68 -281 63 -73 78 90 c 1
 44 38.6667 18.3333 10.3333 1 5 c 0
 -3.66667 3.66667 -8 5.66667 -12 11 c 0
 -17.3333 18.3333 -20.3333 23.6667 -21 27 c 0
 -21.6667 33.6667 -20 38 -16 40 c 1
 4 48 36 91.3333 80 170 c 1
 80 665 l 2
 80 766.471 100.98 963 187 963 c 0
 335.146 963 317.503 704.528 301 567 c 128
 280.836 398.967 193.571 266.496 122 144 c 1
 122 95 l 1
 165.333 57.6667 215 36.6667 271 32 c 0
 301.667 29.3333 325.333 34.6667 342 48 c 1
 353.333 56 362 55 368 45 c 0
 372 39 374 33.6667 374 29 c 129
EndSplineSet
EndChar

StartChar: g
Encoding: 103 103 75
Width: 403
GlyphClass: 2
Flags: W
LayerCount: 3
Fore
SplineSet
274 -78 m 1,0,1
 130 -172 130 -172 130 -394 c 0,2,3
 130 -604 130 -604 210 -604 c 0,4,5
 233 -604 233 -604 247 -587 c 0,6,7
 275 -550 275 -550 275 -457 c 2,8,-1
 274 -78 l 1,0,1
275 154 m 0,10,11
 275 208 275 208 239 248 c 0,12,13
 202 289 202 289 147 289 c 0,14,15
 94 289 94 289 57 249 c 1,16,17
 22 208 22 208 22 157 c 2,18,-1
 22 154 l 2,19,20
 22 102 22 102 57 59 c 1,21,22
 92 19 92 19 147 19 c 0,23,24
 200 19 200 19 238 59 c 0,25,26
 275 98 275 98 275 154 c 0,10,11
430 36 m 0,27,28
 434 24 434 24 423 16 c 0,29,30
 343 -45 343 -45 316 -60 c 1,31,-1
 317 -450 l 2,32,33
 317 -525 317 -525 298 -573 c 1,34,35
 272 -645 272 -645 210 -645 c 0,36,37
 147 -645 147 -645 121 -587 c 0,38,39
 84 -508 84 -508 90 -360 c 0,40,41
 100 -136 100 -136 274 -30 c 1,42,-1
 275 38 l 1,43,44
 226 -21 226 -21 147 -22 c 0,45,46
 76 -22 76 -22 28 30 c 1,47,48
 -20 84 -20 84 -20 154 c 0,49,50
 -20 223 -20 223 28 276 c 0,51,52
 75 329 75 329 147 330 c 1,53,54
 226 330 226 330 275 269 c 1,55,-1
 275 287 l 2,56,57
 275 291 275 291 275 295 c 0,58,59
 275 326 275 326 296 326 c 0,60,61
 318 326 318 326 317 305 c 1,62,-1
 316 -10 l 2,63,64
 336 0 336 0 398 48 c 1,65,66
 404 53 404 53 415 53 c 1,67,68
 424 53 424 53 430 36 c 0,27,28
EndSplineSet
Validated: 33
EndChar

StartChar: h
Encoding: 104 104 76
Width: 438
GlyphClass: 2
Flags: W
LayerCount: 3
Fore
SplineSet
202 919 m 0,0,1
 167 921 167 921 146 835.5 c 128,-1,2
 125 750 125 750 120 618.5 c 128,-1,3
 115 487 115 487 115 393 c 128,-1,4
 115 299 115 299 118 224 c 1,5,6
 126 238 126 238 161.5 296 c 128,-1,7
 197 354 197 354 209.5 380 c 128,-1,8
 222 406 222 406 244 457 c 128,-1,9
 266 508 266 508 274.5 557 c 128,-1,10
 283 606 283 606 283 662 c 0,11,12
 283 700 283 700 282 727.5 c 128,-1,13
 281 755 281 755 276.5 793.5 c 128,-1,14
 272 832 272 832 264 856.5 c 128,-1,15
 256 881 256 881 240 899.5 c 128,-1,16
 224 918 224 918 202 919 c 0,0,1
466 37 m 1,17,18
 471 21 471 21 450 10 c 0,19,20
 408 -10 408 -10 382 -11 c 1,21,22
 341 -11 341 -11 326 4 c 1,23,24
 293 34 293 34 293 115 c 2,25,-1
 293 223 l 2,26,27
 293 251 293 251 277 271.5 c 128,-1,28
 261 292 261 292 234 292 c 0,29,30
 205 292 205 292 171 230 c 0,31,32
 137 169 137 169 134 140 c 0,33,34
 129 98 129 98 129 62 c 2,35,-1
 129 55 l 2,36,37
 129 16 129 16 130 8 c 1,38,39
 130 -13 130 -13 111 -13 c 2,40,-1
 109 -13 l 2,41,42
 87 -13 87 -13 87 23 c 2,43,-1
 87 57 l 2,44,45
 87 77 87 77 86 102 c 1,46,47
 58 54 58 54 20 16 c 0,48,49
 12 8 12 8 4 6 c 0,50,51
 -7 2 -7 2 -11 8 c 0,52,53
 -14 12 -14 12 -19.5 21.5 c 128,-1,54
 -25 31 -25 31 -16 39 c 1,55,56
 28 66 28 66 82 175 c 1,57,58
 78 255 78 255 76 310 c 128,-1,59
 74 365 74 365 72.5 444 c 128,-1,60
 71 523 71 523 73 578.5 c 128,-1,61
 75 634 75 634 78.5 698.5 c 128,-1,62
 82 763 82 763 91.5 806 c 128,-1,63
 101 849 101 849 114.5 887.5 c 128,-1,64
 128 926 128 926 148.5 944.5 c 128,-1,65
 169 963 169 963 195 963 c 0,66,67
 232 963 232 963 258.5 940 c 128,-1,68
 285 917 285 917 297.5 880 c 128,-1,69
 310 843 310 843 317.5 796.5 c 128,-1,70
 325 750 325 750 324.5 703 c 128,-1,71
 324 656 324 656 324 614 c 1,72,73
 322 556 322 556 299.5 486 c 128,-1,74
 277 416 277 416 255 374 c 2,75,-1
 234 333 l 1,76,77
 281 333 281 333 308 302.5 c 128,-1,78
 335 272 335 272 335 223 c 2,79,-1
 335 92 l 1,80,81
 338 5 338 5 399 29 c 0,82,83
 424 38 424 38 433 46 c 0,84,85
 448 58 448 58 457 50 c 1,86,-1
 466 37 l 1,17,18
EndSplineSet
Validated: 33
EndChar

StartChar: i
Encoding: 105 105 77
Width: 265
GlyphClass: 2
Flags: W
LayerCount: 3
Fore
SplineSet
175 435 m 256,0,1
 175 403 175 403 142 403 c 0,2,3
 112 403 112 403 112 435 c 256,4,5
 112 467 112 467 142 467 c 0,6,7
 175 467 175 467 175 435 c 256,0,1
15 12 m 0,8,9
 8 7 8 7 0 5 c 0,10,11
 -7 4 -7 4 -11 9 c 0,12,13
 -19 20 -19 20 -21 29 c 0,14,15
 -22 36 -22 36 -16 40 c 0,16,17
 55 82 55 82 114 298 c 0,18,19
 123 329 123 329 140 329 c 0,20,21
 160 329 160 329 160 306 c 2,22,-1
 160 89 l 2,23,24
 160 28 160 28 200 26 c 0,25,26
 223 25 223 25 238 34 c 0,27,28
 258 47 258 47 266 51 c 0,29,30
 285 61 285 61 293 35 c 0,31,32
 296 25 296 25 289 19 c 0,33,34
 253 -13 253 -13 204 -13 c 0,35,36
 157 -13 157 -13 139 16 c 0,37,38
 118 49 118 49 118 114 c 2,39,-1
 118 177 l 1,40,41
 86 66 86 66 15 12 c 0,8,9
EndSplineSet
Validated: 33
EndChar

StartChar: j
Encoding: 106 106 78
Width: 254
GlyphClass: 2
Flags: W
LayerCount: 3
Fore
SplineSet
125 -78 m 1,0,1
 -8 -154 -8 -154 -20 -328 c 0,2,3
 -38 -586 -38 -586 58 -605 c 1,4,5
 125 -597 125 -597 125 -447 c 2,6,-1
 125 -78 l 1,0,1
181 434 m 256,7,8
 181 402 181 402 148 402 c 0,9,10
 119 402 119 402 119 432 c 0,11,12
 119 466 119 466 148 466 c 0,13,14
 181 466 181 466 181 434 c 256,7,8
2 6 m 0,15,16
 -10 1 -10 1 -18 19 c 0,17,18
 -24 34 -24 34 -17 39 c 1,19,20
 68 97 68 97 130 319 c 0,21,22
 132 328 132 328 146 329 c 1,23,24
 166 329 166 329 167 306 c 1,25,-1
 167 -10 l 1,26,27
 179 -4 179 -4 243 44 c 0,28,29
 255 53 255 53 261 53 c 0,30,31
 277 53 277 53 282 35 c 0,32,33
 285 24 285 24 273 15 c 0,34,35
 209 -34 209 -34 167 -60 c 1,36,-1
 167 -447 l 2,37,38
 167 -633 167 -633 60 -646 c 0,39,40
 -78 -663 -78 -663 -60 -320 c 0,41,42
 -50 -133 -50 -133 125 -30 c 1,43,-1
 125 161 l 1,44,-1
 126 175 l 1,45,46
 51 27 51 27 2 6 c 0,15,16
EndSplineSet
Validated: 33
EndChar

StartChar: k
Encoding: 107 107 79
Width: 433
GlyphClass: 2
Flags: W
LayerCount: 3
Fore
SplineSet
253 176 m 1,0,1
 243 183 243 183 227 183 c 0,2,3
 209 183 209 183 208 176 c 0,4,5
 208 171 208 171 224 171 c 0,6,7
 235 171 235 171 253 176 c 1,0,1
197 922 m 1,8,9
 129 921 129 921 114 699 c 0,10,11
 103 514 103 514 118 232 c 1,12,13
 274 482 274 482 274 642 c 0,14,15
 274 922 274 922 197 922 c 1,8,9
462 29 m 0,16,17
 462 24 462 24 459 21 c 0,18,19
 425 -13 425 -13 368 -14 c 0,20,21
 296 -15 296 -15 292 98 c 0,22,23
 291 130 291 130 281 150 c 1,24,25
 245 133 245 133 222 133 c 0,26,27
 166 133 166 133 166 176 c 256,28,29
 166 219 166 219 226 219 c 0,30,31
 254 219 254 219 283 202 c 1,32,33
 295 217 295 217 295 239 c 0,34,35
 295 290 295 290 233 290 c 0,36,37
 216 290 216 290 198 272 c 0,38,39
 188 261 188 261 177.5 245 c 128,-1,40
 167 229 167 229 157 209 c 1,41,42
 140 180 140 180 130 137 c 1,43,44
 125 88 125 88 125 37 c 0,45,46
 125 22 125 22 125 7 c 0,47,48
 125 -13 125 -13 104 -13 c 0,49,50
 84 -13 84 -13 83 7 c 1,51,-1
 83 46 l 2,52,53
 83 69 83 69 82 94 c 1,54,55
 58 54 58 54 20 16 c 0,56,57
 11 7 11 7 1 5 c 0,58,59
 -3 4 -3 4 -11 10 c 0,60,61
 -21 17 -21 17 -21 31 c 0,62,63
 -21 35 -21 35 -17 38 c 1,64,65
 23 62 23 62 79 170 c 1,66,67
 62 442 62 442 76 694 c 0,68,69
 91 963 91 963 192 963 c 0,70,71
 320 963 320 963 320 662 c 0,72,73
 320 491 320 491 217 328 c 1,74,75
 261 338 261 338 307 306 c 0,76,77
 337 284 337 284 337 239 c 0,78,79
 337 203 337 203 313 175 c 1,80,81
 330 151 330 151 331 119 c 0,82,83
 332 92 332 92 333 76.5 c 128,-1,84
 334 61 334 61 335 59 c 0,85,86
 341 31 341 31 360 28 c 0,87,88
 395 24 395 24 422 43 c 0,89,90
 441 56 441 56 446 53 c 0,91,92
 462 43 462 43 462 29 c 0,16,17
EndSplineSet
Validated: 33
Layer: 2
SplineSet
253 176 m 5
 246.333 180.667 237.667 183 227 183 c 4
 215 183 208.667 180.667 208 176 c 4
 208 172.667 213.333 171 224 171 c 4
 231.333 171 241 172.667 253 176 c 5
276 762 m 4
 276 786 268.667 818 254 858 c 5
 237.333 900 216.667 921.333 192 922 c 4
 185.333 922 178.667 918.333 172 911 c 4
 160 898.333 148.333 873.333 137 836 c 4
 132.333 819.333 128.333 803.167 125 787.5 c 132
 121.667 771.833 119 756 117 740 c 4
 115.667 732 114.667 718.333 114 699 c 132
 113.333 679.667 112.666 657.5 112 632.5 c 132
 111.333 607.5 111 581 111 553 c 6
 111 473 l 4
 111 439.667 111.5 403 112.5 363 c 132
 113.5 323 115.333 279.333 118 232 c 5
 124.667 242.667 132 254.667 140 268 c 132
 148 281.333 156.333 295.667 165 311 c 4
 185 345.667 203.667 378.833 221 410.5 c 132
 238.333 442.167 250.333 474.333 257 507 c 4
 267.667 556.333 273.5 601.167 274.5 641.5 c 132
 275.5 681.833 276 722 276 762 c 4
462 29 m 4
 462 25.6667 461 23 459 21 c 4
 429.667 -3.66667 396.667 -15 360 -13 c 4
 326.667 -10.3333 304.333 20 293 78 c 4
 292.333 81.3333 292 84.3333 292 87 c 6
 292 96 l 6
 292 105 l 4
 292 107.667 291.667 111 291 115 c 4
 289.667 130.333 286.667 141.333 282 148 c 5
 263.333 138 243.333 133 222 133 c 4
 184.667 133 166 147.333 166 176 c 260
 166 204.667 186 219 226 219 c 4
 244.667 219 263.667 213.333 283 202 c 5
 291 212 295 224.333 295 239 c 4
 295 273 274.333 290 233 290 c 4
 221.667 290 210 284 198 272 c 4
 191.333 264.667 184.5 255.667 177.5 245 c 132
 170.5 234.333 163.667 222.333 157 209 c 5
 145.667 189.667 136.667 165.667 130 137 c 5
 126.667 104.333 125 71 125 37 c 4
 125 22 125 22 125 7 c 4
 125 -6.33333 118 -13 104 -13 c 4
 90.6667 -13 83.6667 -6.33333 83 7 c 5
 83 46 l 6
 83 61.3333 82.6667 77.3333 82 94 c 5
 66 67.3333 45.3333 41.3333 20 16 c 4
 14 10 7.66667 6.33333 1 5 c 4
 -1.66667 4.33333 -5.66667 6 -11 10 c 4
 -17.6667 14.6667 -21 21.6667 -21 31 c 4
 -21 33.6667 -19.6667 36 -17 38 c 5
 9.66667 54 41.6667 98 79 170 c 5
 78.3333 180.667 77.8333 191.834 77.5 203.5 c 132
 77.1667 215.167 76.6667 227.334 76 240 c 4
 73.3333 292 71.3333 337.333 70 376 c 4
 69.3333 402 69 425 69 445 c 4
 69 460 69 460 69 473 c 4
 69 493.667 69.3333 516.667 70 542 c 132
 70.6667 567.333 71.5 593 72.5 619 c 132
 73.5 645 74.6667 670 76 694 c 132
 77.3333 718 78.3333 739 79 757 c 5
 87 815 99.6667 861 117 895 c 5
 137.667 940.333 162.667 963 192 963 c 4
 213.333 963 231.667 955.667 247 941 c 4
 276.333 912.333 296.667 872.667 308 822 c 5
 314 792 317.333 772 318 762 c 5
 318 740.667 318.333 722.667 319 708 c 4
 319.667 698 320 688 320 678 c 4
 320 670 320 670 320 662 c 4
 320 646 319 627.5 317 606.5 c 132
 315 585.5 311.333 559.333 306 528 c 5
 300.667 491.333 289.667 457 273 425 c 132
 256.333 393 237.667 360.667 217 328 c 5
 219 330 221 331 223 331 c 6
 233 331 l 6
 262.333 331 287 322.833 307 306.5 c 132
 327 290.167 337 267.667 337 239 c 4
 337 215 329 193.667 313 175 c 5
 324.333 159 330.333 140.333 331 119 c 4
 331.667 101 332.333 86.8333 333 76.5 c 132
 333.667 66.1667 334.333 60.3333 335 59 c 4
 339 40.3333 347.333 30 360 28 c 4
 383.333 25.3333 404 30.3333 422 43 c 4
 434.667 51.6667 442.667 55 446 53 c 4
 456.667 46.3333 462 38.3333 462 29 c 4
EndSplineSet
EndChar

StartChar: l
Encoding: 108 108 80
Width: 347
GlyphClass: 2
Flags: W
LayerCount: 3
Fore
SplineSet
248 870 m 0,0,1
 223 922 223 922 189 922 c 256,2,3
 152 922 152 922 132 835 c 0,4,5
 100 695 100 695 129 239 c 1,6,7
 239 437 239 437 253 561 c 0,8,9
 280 804 280 804 248 870 c 0,0,1
378 34 m 0,10,11
 380 24 380 24 364 14 c 0,12,13
 313 -14 313 -14 255 -14 c 1,14,15
 133 -12 133 -12 104 128 c 1,16,17
 68 61 68 61 23 19 c 0,18,19
 10 7 10 7 4 6 c 0,20,21
 -6 4 -6 4 -10 8 c 0,22,23
 -20 19 -20 19 -21 29 c 0,24,25
 -21 36 -21 36 -17 39 c 1,26,27
 10 51 10 51 91 191 c 1,28,29
 56 760 56 760 102 874 c 0,30,31
 138 964 138 964 189 963 c 0,32,33
 242 962 242 962 278 900 c 0,34,35
 332 806 332 806 296 552 c 0,36,37
 267 354 267 354 138 178 c 1,38,39
 145 26 145 26 254 23 c 1,40,41
 309 23 309 23 343 46 c 0,42,43
 369 65 369 65 378 34 c 0,10,11
EndSplineSet
Validated: 33
EndChar

StartChar: m
Encoding: 109 109 81
Width: 656
GlyphClass: 2
Flags: W
LayerCount: 3
Fore
SplineSet
685 26 m 1,0,1
 665 -6 665 -6 592 -7 c 1,2,3
 509 -7 509 -7 509 114 c 2,4,-1
 509 230 l 2,5,6
 509 287 509 287 440 288 c 0,7,8
 412 288 412 288 393.5 265.5 c 128,-1,9
 375 243 375 243 375 214 c 2,10,-1
 375 7 l 2,11,12
 375 -13 375 -13 353 -13 c 0,13,14
 333 -13 333 -13 333 7 c 2,15,-1
 333 214 l 2,16,17
 333 287 333 287 269 288 c 1,18,19
 197 288 197 288 197 215 c 0,20,21
 197 214 197 214 197 213 c 2,22,-1
 197 7 l 2,23,24
 197 -13 197 -13 175 -13 c 0,25,26
 155 -13 155 -13 155 7 c 2,27,-1
 156 214 l 2,28,29
 156 218 156 218 156 222 c 0,30,31
 156 288 156 288 113 288 c 0,32,33
 111 288 111 288 109 288 c 0,34,35
 90 286 90 286 74 265 c 0,36,37
 26 198 26 198 4 186 c 0,38,39
 -10 178 -10 178 -14 202 c 0,40,41
 -16 218 -16 218 -2 226 c 0,42,43
 16 236 16 236 47 288 c 0,44,45
 70 328 70 328 120 328 c 0,46,47
 159 328 159 328 185 296 c 1,48,49
 220 328 220 328 269 328 c 0,50,51
 330 328 330 328 357 286 c 1,52,53
 390 328 390 328 440 328 c 0,54,55
 484 328 484 328 517 303 c 1,56,57
 552 275 552 275 552 230 c 2,58,-1
 552 114 l 2,59,60
 552 27 552 27 602 27 c 1,61,62
 624 28 624 28 637 38 c 1,63,64
 662 57 662 57 670 52 c 0,65,66
 686 43 686 43 685 26 c 1,0,1
EndSplineSet
Validated: 33
EndChar

StartChar: n
Encoding: 110 110 82
Width: 484
GlyphClass: 2
Flags: W
LayerCount: 3
Fore
SplineSet
511 24 m 1,0,1
 491 -5 491 -5 423 -8 c 1,2,3
 329 -8 329 -8 329 114 c 2,4,-1
 329 214 l 1,5,6
 328 290 328 290 264 290 c 0,7,8
 263 290 263 290 262 290 c 0,9,10
 195 290 195 290 195 213 c 2,11,-1
 195 7 l 2,12,13
 195 -13 195 -13 174 -13 c 0,14,15
 152 -13 152 -13 153 7 c 1,16,-1
 153 229 l 2,17,18
 153 230 153 230 153 231 c 0,19,20
 153 289 153 289 106 290 c 0,21,22
 74 290 74 290 52 243 c 0,23,24
 32 202 32 202 -4 182 c 0,25,26
 -16 177 -16 177 -23 193 c 0,27,28
 -32 211 -32 211 -18 217 c 0,29,30
 14 231 14 231 34 280 c 1,31,32
 57 326 57 326 110 328 c 128,-1,33
 163 330 163 330 182 293 c 1,34,35
 213 330 213 330 261 330 c 0,36,37
 307 330 307 330 339 303 c 128,-1,38
 371 276 371 276 371 230 c 2,39,-1
 371 114 l 2,40,41
 371 29 371 29 423 27 c 0,42,43
 446 26 446 26 461 35 c 1,44,45
 491 57 491 57 497 53 c 0,46,47
 518 39 518 39 511 24 c 1,0,1
EndSplineSet
Validated: 33
EndChar

StartChar: o
Encoding: 111 111 83
Width: 375
GlyphClass: 2
Flags: W
LayerCount: 3
Fore
SplineSet
284 166 m 5,0,1
 185 181 185 181 153 287 c 5,2,3
 149 288 149 288 145 288 c 4,4,5
 128 288 128 288 98 276 c 5,6,7
 51 253 51 253 36 202 c 4,8,9
 29 181 29 181 29 161 c 4,10,11
 29 132 29 132 43 102 c 4,12,13
 67 54 67 54 116 35 c 4,14,15
 139 27 139 27 161 27 c 4,16,17
 188 27 188 27 213 39 c 4,18,19
 249 56 249 56 268 91 c 4,20,21
 284 121 284 121 284 155 c 6,22,23
 284 166 l 5,0,1
272 209 m 5,24,25
 253 252 253 252 203 275 c 5,26,27
 225 222 225 222 272 209 c 5,24,25
389 195 m 4,28,29
 375 181 375 181 353 174 c 4,30,31
 339 169 339 169 326 168 c 5,32,33
 326 157 l 4,34,35
 326 110 326 110 304 70 c 5,36,37
 278 26 278 26 230 3 c 4,38,39
 195 -14 195 -14 159 -14 c 4,40,41
 130 -14 130 -14 101 -3 c 4,42,43
 36 20 36 20 5 84 c 4,44,45
 -13 120 -13 120 -13 159 c 4,46,47
 -13 186 -13 186 -4 214 c 4,48,49
 18 282 18 282 81 312 c 4,50,51
 116 328 116 328 152 328 c 4,52,53
 181 328 181 328 211 318 c 4,54,55
 278 295 278 295 309 231 c 4,56,57
 311 227 311 227 313 221.5 c 132,-1,58
 315 216 315 216 317 208 c 5,59,60
 348 209 348 209 371 225 c 4,61,62
 386 236 386 236 391 219 c 5,63,64
 394 213 394 213 394 207 c 4,65,66
 394 200 394 200 389 195 c 4,28,29
EndSplineSet
Validated: 1
EndChar

StartChar: p
Encoding: 112 112 84
Width: 452
GlyphClass: 2
Flags: W
LayerCount: 3
Fore
SplineSet
89 106 m 1,0,1
 62 53 62 53 15 12 c 1,2,3
 4 5 4 5 -2 5 c 128,-1,4
 -8 5 -8 5 -12 11 c 0,5,-1
 -20 23 l 0,6,7
 -23 37 -23 37 -16 40 c 1,8,9
 15 53 15 53 76 167 c 0,10,11
 98 208 98 208 111 257 c 0,12,13
 121 294 121 294 126 311.5 c 128,-1,14
 131 329 131 329 146 329 c 0,15,16
 163 329 163 329 166 303 c 1,17,18
 195 328 195 328 233 328 c 0,19,20
 279 328 279 328 311 301 c 128,-1,21
 343 274 343 274 343 228 c 2,22,-1
 343 109 l 2,23,24
 343 37 343 37 385 31 c 0,25,26
 415 27 415 27 431 37 c 0,27,28
 442 45 442 45 455 51 c 0,29,30
 470 59 470 59 481 36 c 0,31,32
 485 27 485 27 475 18 c 1,33,34
 448 -5 448 -5 398 -7 c 0,35,36
 368 -8 368 -8 348 5 c 0,37,38
 301 36 301 36 301 109 c 2,39,-1
 301 228 l 2,40,41
 301 256 301 256 281 271.5 c 128,-1,42
 261 287 261 287 233 287 c 0,43,44
 219 287 219 287 207 280 c 128,-1,45
 195 273 195 273 185.5 262.5 c 128,-1,46
 176 252 176 252 171 238 c 128,-1,47
 166 224 166 224 166 211 c 2,48,-1
 166 -622 l 2,49,50
 166 -632 166 -632 161.5 -638.5 c 128,-1,51
 157 -645 157 -645 146 -645 c 0,52,53
 136 -645 136 -645 130 -638.5 c 128,-1,54
 124 -632 124 -632 124 -622 c 2,55,-1
 124 168 l 1,56,57
 109 137 109 137 89 106 c 1,0,1
EndSplineSet
Validated: 33
EndChar

StartChar: q
Encoding: 113 113 85
Width: 430
GlyphClass: 2
Flags: W
LayerCount: 3
Fore
SplineSet
275 154 m 0,0,1
 275 208 275 208 239 248 c 0,2,3
 202 289 202 289 147 289 c 0,4,5
 94 289 94 289 57 249 c 1,6,7
 22 208 22 208 22 157 c 2,8,9
 22 154 l 0,10,11
 22 102 22 102 57 59 c 1,12,13
 92 19 92 19 147 19 c 0,14,15
 200 19 200 19 238 59 c 0,16,17
 275 98 275 98 275 154 c 0,0,1
460 30 m 1,18,19
 461 19 461 19 426 2 c 0,20,21
 399 -11 399 -11 358 -9 c 0,22,23
 335 -8 335 -8 317 1 c 1,24,-1
 317 -625 l 2,25,26
 317 -645 317 -645 296 -645 c 0,27,28
 276 -645 276 -645 275 -625 c 1,29,-1
 275 39 l 1,30,31
 226 -21 226 -21 147 -22 c 0,32,33
 77 -22 77 -22 29 30 c 0,34,35
 -20 82 -20 82 -20 154 c 0,36,37
 -20 223 -20 223 28 276 c 0,38,39
 77 329 77 329 147 330 c 1,40,41
 226 330 226 330 275 269 c 1,42,-1
 275 306 l 1,43,44
 273 328 273 328 296 328 c 0,45,46
 318 328 318 328 317 306 c 1,47,-1
 317 85 l 2,48,49
 317 29 317 29 359 28 c 1,50,51
 387 27 387 27 407 36 c 0,52,53
 427 47 427 47 437 53 c 0,54,55
 451 58 451 58 460 30 c 1,18,19
EndSplineSet
Validated: 33
EndChar

StartChar: r
Encoding: 114 114 86
Width: 394
GlyphClass: 2
Flags: W
LayerCount: 3
Fore
SplineSet
423 31.5 m 128,-1,1
 424 25 424 25 418 19 c 1,2,3
 391 -6 391 -6 333 -6 c 1,4,5
 299 -7 299 -7 268 25 c 0,6,7
 228 69 228 69 251 145 c 0,8,9
 277 233 277 233 276 256 c 24,10,11
 276 266 276 266 269 272 c 0,12,13
 256 285 256 285 212 286 c 0,14,15
 186 286 186 286 142 275 c 1,16,17
 117 92 117 92 18 14 c 0,18,19
 -5 -4 -5 -4 -14 14 c 1,20,-1
 -18 20 l 1,21,22
 -21 24 -21 24 -20.5 30 c 128,-1,23
 -20 36 -20 36 -12 41 c 1,24,25
 70 110 70 110 99 272 c 1,26,27
 80 275 80 275 70 282 c 0,28,29
 50 300 50 300 59 330 c 0,30,31
 68 361 68 361 100 361 c 0,32,33
 140 361 140 361 140 317 c 1,34,35
 210 328 210 328 238 326 c 0,36,37
 298 322 298 322 315 280 c 0,38,39
 328 250 328 250 294 152 c 0,40,41
 274 91 274 91 298 51 c 0,42,43
 309 33 309 33 336 30 c 256,44,45
 362 27 362 27 391 48 c 1,46,47
 397 53 397 53 406 53 c 0,48,49
 411 53 411 53 417 45 c 0,50,0
 422 38 422 38 423 31.5 c 128,-1,1
EndSplineSet
Validated: 33
EndChar

StartChar: s
Encoding: 115 115 87
Width: 357
GlyphClass: 2
Flags: W
LayerCount: 3
Fore
SplineSet
85 45 m 0,0,1
 56 97 56 97 95 97 c 0,2,3
 111 97 111 97 113 87 c 0,4,5
 115 72 115 72 123 63 c 0,6,7
 175 12 175 12 237 24 c 128,-1,8
 299 36 299 36 300 102 c 0,9,10
 301 173 301 173 243 220 c 1,11,12
 210 244 210 244 187.5 263 c 128,-1,13
 165 282 165 282 154 296 c 1,14,15
 98 123 98 123 38 34 c 1,16,17
 12 4 12 4 -2 6 c 128,-1,18
 -16 8 -16 8 -21 31 c 0,19,20
 -22 36 -22 36 -7 44 c 0,21,22
 38 70 38 70 128 328 c 1,23,24
 119 338 119 338 113 355 c 1,25,26
 111 383 111 383 134 392 c 0,27,28
 139 394 139 394 144 394 c 0,29,30
 155 394 155 394 165 386 c 0,31,32
 177 377 177 377 177 357 c 0,33,34
 177 353 177 353 177 349 c 1,35,36
 173 335 173 335 171 333 c 1,37,38
 199 300 199 300 260 256 c 1,39,40
 342 191 342 191 336 98 c 0,41,42
 328 -12 328 -12 222.5 -13 c 128,-1,43
 117 -14 117 -14 85 45 c 0,0,1
EndSplineSet
Validated: 33
EndChar

StartChar: t
Encoding: 116 116 88
Width: 302
GlyphClass: 2
Flags: W
LayerCount: 3
Fore
SplineSet
332 34 m 1,0,-1
 332 28 l 1,1,2
 314 -11 314 -11 218 -11 c 0,3,4
 125 -11 125 -11 76 47 c 0,5,6
 65 60 65 60 58 74 c 1,7,8
 44 33 44 33 6 7 c 1,9,10
 -6 -1 -6 -1 -14 14 c 1,11,-1
 -18 20 l 2,12,13
 -21 24 -21 24 -21 30 c 128,-1,14
 -21 36 -21 36 -17 39 c 0,15,16
 33 70 33 70 33 138 c 2,17,-1
 33 625 l 2,18,19
 33 645 33 645 54 645 c 0,20,21
 74 645 74 645 75 625 c 1,22,-1
 75 446 l 1,23,-1
 258 446 l 2,24,25
 278 446 278 446 278 426 c 128,-1,26
 278 406 278 406 258 406 c 2,27,-1
 75 406 l 1,28,-1
 75 154 l 2,29,30
 75 111 75 111 98 78 c 1,31,32
 136 25 136 25 218 24 c 0,33,34
 270 23 270 23 304 50 c 0,35,36
 319 62 319 62 332 34 c 1,0,-1
EndSplineSet
Validated: 33
EndChar

StartChar: u
Encoding: 117 117 89
Width: 437
GlyphClass: 2
Flags: W
LayerCount: 3
Fore
SplineSet
50 306 m 2,0,1
 50 326 50 326 71 326 c 0,2,3
 90 326 90 326 90 308 c 0,4,5
 90 154 90 154 90 146 c 0,6,7
 90 97 90 97 107 70 c 1,8,9
 139 27 139 27 192 26 c 1,10,11
 241 27 241 27 268 70 c 0,12,13
 290 106 290 106 290 150 c 0,14,15
 290 153 290 153 290 306 c 0,16,17
 290 326 290 326 311 327 c 1,18,19
 333 327 333 327 332 306 c 1,20,-1
 332 77 l 2,21,22
 332 33 332 33 366 27 c 0,23,24
 399 21 399 21 433 47 c 0,25,26
 448 60 448 60 458 48 c 0,27,28
 470 32 470 32 465 24 c 0,29,30
 437 -7 437 -7 382 -9 c 1,31,32
 306 -7 306 -7 297 50 c 1,33,34
 267 -13 267 -13 186 -13 c 0,35,36
 135 -13 135 -13 95 18 c 0,37,38
 70 38 70 38 58 65 c 1,39,40
 35 23 35 23 6 7 c 0,41,42
 -6 0 -6 0 -14 14 c 0,43,44
 -21 24 -21 24 -21 30 c 128,-1,45
 -21 36 -21 36 -17 39 c 0,46,47
 44 75 44 75 49 182 c 1,48,-1
 50 306 l 2,0,1
EndSplineSet
Validated: 33
EndChar

StartChar: v
Encoding: 118 118 90
Width: 478
GlyphClass: 2
Flags: W
LayerCount: 3
Fore
SplineSet
328 280 m 0,0,1
 316 282 316 282 318 262 c 0,2,3
 320 251 320 251 347 230 c 1,4,5
 348 246 348 246 343 264 c 0,6,7
 340 278 340 278 328 280 c 0,0,1
211 -13 m 0,8,9
 89 -10 89 -10 96 191 c 1,10,11
 102 288 102 288 87 288 c 0,12,13
 76 288 76 288 73 275 c 0,14,15
 56 217 56 217 -3 182 c 1,16,17
 -18 176 -18 176 -22 195 c 0,18,19
 -26 213 -26 213 -16 218 c 1,20,21
 27 242 27 242 49 299 c 0,22,23
 61 330 61 330 94 329 c 0,24,25
 141 328 141 328 137 217 c 0,26,27
 129 33 129 33 224 31 c 0,28,29
 298 30 298 30 339 190 c 1,30,31
 278 222 278 222 280 276 c 0,32,33
 282 324 282 324 325 323 c 0,34,35
 366 322 366 322 378 266 c 0,36,37
 384 242 384 242 380 215 c 1,38,39
 397 207 397 207 411 206 c 0,40,41
 443 206 443 206 470 223 c 1,42,43
 485 236 485 236 492 223 c 128,-1,44
 499 210 499 210 497 206 c 0,45,46
 489 186 489 186 464 177 c 0,47,48
 412 158 412 158 376 173 c 1,49,50
 342 -16 342 -16 211 -13 c 0,8,9
EndSplineSet
Validated: 33
EndChar

StartChar: w
Encoding: 119 119 91
Width: 702
GlyphClass: 2
Flags: W
LayerCount: 3
Fore
SplineSet
552 280 m 0,0,1
 540 282 540 282 542 262 c 0,2,3
 544 251 544 251 571 230 c 1,4,5
 572 246 572 246 567 264 c 0,6,7
 564 278 564 278 552 280 c 0,0,1
435 -13 m 0,8,9
 393 -13 393 -13 366 6 c 0,10,11
 340 24 340 24 326 57 c 1,12,13
 310 21 310 21 278 5 c 0,14,15
 242 -14 242 -14 203 -13 c 0,16,17
 94 -10 94 -10 94 122 c 0,18,19
 94 206 94 206 98 274 c 0,20,21
 99 291 99 291 89 293 c 0,22,23
 80 294 80 294 68 262 c 0,24,25
 52 220 52 220 0 184 c 1,26,27
 -11 179 -11 179 -18 196 c 0,28,29
 -24 212 -24 212 -11 220 c 0,30,31
 36 250 36 250 49 291 c 1,32,33
 56 328 56 328 90 328 c 0,34,35
 136 328 136 328 134 249 c 2,36,-1
 131 120 l 2,37,38
 130 89 130 89 143 65 c 0,39,40
 165 27 165 27 200 27 c 2,41,-1
 202 27 l 2,42,43
 241 27 241 27 262 44 c 0,44,45
 303 78 303 78 309 150 c 0,46,47
 312 186 312 186 312 230 c 2,48,-1
 312 306 l 2,49,50
 312 316 312 316 318 322 c 128,-1,51
 324 328 324 328 333 327 c 1,52,53
 343 329 343 329 349 322 c 0,54,55
 356 315 356 315 354 306 c 1,56,-1
 354 120 l 2,57,58
 354 25 354 25 443 26 c 0,59,60
 521 27 521 27 563 190 c 1,61,62
 502 222 502 222 504 276 c 0,63,64
 506 324 506 324 549 323 c 0,65,66
 590 322 590 322 602 266 c 0,67,68
 608 242 608 242 604 215 c 1,69,70
 621 207 621 207 635 206 c 0,71,72
 667 206 667 206 694 223 c 1,73,74
 709 236 709 236 716 223 c 128,-1,75
 723 210 723 210 721 206 c 0,76,77
 713 186 713 186 688 177 c 0,78,79
 636 158 636 158 600 173 c 1,80,81
 567 -13 567 -13 435 -13 c 0,8,9
EndSplineSet
Validated: 33
EndChar

StartChar: x
Encoding: 120 120 92
Width: 608
GlyphClass: 2
Flags: W
LayerCount: 3
Fore
SplineSet
636 32 m 0,0,1
 637 29 637 29 634 23 c 1,2,3
 618 -11 618 -11 491 -12 c 0,4,5
 357 -14 357 -14 307 76 c 1,6,7
 258 -13 258 -13 159 -13 c 0,8,9
 107 -13 107 -13 58 35 c 1,10,11
 31 60 31 60 31 74 c 2,12,13
 31 75 l 0,14,15
 31 93 31 93 51 93 c 0,16,17
 59 93 59 93 70 83 c 1,18,19
 123 27 123 27 159 27 c 0,20,21
 212 27 212 27 249 66 c 1,22,23
 287 104 287 104 287 158 c 256,24,25
 287 212 287 212 249 250 c 1,26,27
 206 291 206 291 159 290 c 128,-1,28
 112 289 112 289 87 262.5 c 128,-1,29
 62 236 62 236 53 226 c 0,30,-1
 35 210 l 2,31,-1
 29 205 l 0,32,-1
 12 190 l 0,33,34
 -8 176 -8 176 -14 177 c 0,35,36
 -41 180 -41 180 -28 205 c 0,37,-1
 -20 215 l 1,38,39
 8 231 8 231 8 232 c 0,40,41
 14 238 14 238 32 256 c 1,42,43
 46 277 46 277 78 303.5 c 128,-1,44
 110 330 110 330 159 330 c 0,45,46
 258 330 258 330 307 240 c 1,47,48
 356 330 356 330 455 330 c 0,49,50
 537 330 537 330 573 282 c 0,51,52
 579 274 579 274 580 267 c 1,53,54
 580 248 580 248 558 248 c 0,55,56
 555 248 555 248 545 255 c 0,57,58
 492 290 492 290 455 290 c 0,59,60
 403 290 403 290 366 250 c 0,61,62
 329 211 329 211 329 158 c 0,63,64
 329 102 329 102 364 67 c 1,65,66
 409 20 409 20 493 21 c 0,67,68
 570 22 570 22 601 46 c 0,69,70
 626 65 626 65 636 32 c 0,0,1
EndSplineSet
Validated: 33
EndChar

StartChar: y
Encoding: 121 121 93
Width: 462
GlyphClass: 2
Flags: W
LayerCount: 3
Fore
SplineSet
334 -77 m 1,0,1
 252 -129 252 -129 230 -208 c 0,2,3
 205 -299 205 -299 205 -396 c 0,4,5
 205 -472 205 -472 220 -552 c 1,6,7
 233 -604 233 -604 268 -604 c 1,8,9
 300 -603 300 -603 322 -552 c 1,10,11
 330 -528 330 -528 334 -446 c 1,12,-1
 334 -77 l 1,0,1
136 255 m 0,13,14
 134 75 134 75 152 54 c 24,15,16
 181 19 181 19 241 19 c 0,17,18
 332 19 332 19 334 150 c 1,19,-1
 334 305 l 2,20,21
 334 325 334 325 354 326 c 1,22,23
 376 326 376 326 376 305 c 2,24,-1
 376 -10 l 1,25,26
 416 16 416 16 462 51 c 1,27,28
 480 60 480 60 490 32 c 0,29,30
 492 26 492 26 485 19 c 0,31,32
 435 -23 435 -23 376 -59 c 1,33,-1
 376 -442 l 1,34,35
 375 -528 375 -528 365 -553 c 1,36,37
 334 -645 334 -645 272 -645 c 0,38,39
 270 -645 270 -645 268 -645 c 0,40,41
 202 -645 202 -645 177 -553 c 1,42,43
 159 -474 159 -474 159 -395 c 0,44,45
 159 -300 159 -300 185 -205 c 1,46,47
 213 -104 213 -104 334 -30 c 1,48,-1
 334 22 l 1,49,50
 297 -21 297 -21 241 -22 c 0,51,52
 238 -22 238 -22 235 -22 c 0,53,54
 149 -22 149 -22 112 36 c 1,55,56
 92 69 92 69 96 191 c 0,57,58
 99 288 99 288 87 288 c 0,59,60
 76 288 76 288 73 275 c 0,61,62
 56 217 56 217 -3 182 c 1,63,64
 -18 176 -18 176 -22 195 c 0,65,66
 -26 213 -26 213 -16 218 c 0,67,68
 27 242 27 242 49 299 c 0,69,70
 61 330 61 330 94 329 c 0,71,72
 137 328 137 328 136 255 c 0,13,14
EndSplineSet
Validated: 33
EndChar

StartChar: z
Encoding: 122 122 94
Width: 457
GlyphClass: 2
Flags: W
LayerCount: 3
Fore
SplineSet
401 -138 m 1,0,1
 393 -82 393 -82 378 -52 c 1,2,3
 245 -142 245 -142 245 -365 c 0,4,5
 245 -473 245 -473 268 -549 c 1,6,7
 291 -604 291 -604 330 -604 c 256,8,9
 369 -604 369 -604 391 -548 c 0,10,11
 410 -497 410 -497 410 -364 c 0,12,13
 410 -271 410 -271 401 -138 c 1,0,1
485 30 m 1,14,15
 483 18 483 18 463 6 c 0,16,-1
 413 -29 l 1,17,18
 440 -73 440 -73 449 -186 c 1,19,20
 456 -285 456 -285 456 -362 c 0,21,22
 456 -521 456 -521 424 -579 c 0,23,24
 389 -642 389 -642 330 -645 c 1,25,-1
 327 -645 l 0,26,27
 276 -645 276 -645 241 -588 c 1,28,29
 204 -525 204 -525 204 -376 c 0,30,31
 204 -123 204 -123 360 -18 c 1,32,33
 324 16 324 16 316 17 c 0,34,35
 296 22 296 22 252 0 c 0,36,37
 213 -20 213 -20 208 -20 c 0,38,39
 188 -20 188 -20 188 -2 c 0,40,41
 188 13 188 13 206 63 c 0,42,43
 240 158 240 158 272 234 c 0,44,45
 282 258 282 258 268 272 c 0,46,47
 240 298 240 298 142 275 c 1,48,49
 84 70 84 70 20 16 c 0,50,51
 -2 -2 -2 -2 -10 8 c 0,52,53
 -28 32 -28 32 -19 37 c 0,54,55
 46 72 46 72 99 271 c 1,56,57
 79 274 79 274 70 282 c 0,58,59
 48 304 48 304 60 333 c 0,60,61
 76 372 76 372 117 358 c 0,62,63
 140 350 140 350 141 317 c 1,64,65
 241 334 241 334 284 313 c 0,66,67
 334 289 334 289 310 217 c 0,68,69
 284 135 284 135 247 47 c 1,70,71
 289 65 289 65 318 60 c 0,72,73
 356 54 356 54 395 6 c 1,74,75
 417 22 417 22 442 41 c 1,76,77
 462 58 462 58 472 52 c 128,-1,78
 482 46 482 46 485 30 c 1,14,15
EndSplineSet
Validated: 33
EndChar

StartChar: braceleft
Encoding: 123 123 95
Width: 245
GlyphClass: 2
Flags: W
LayerCount: 3
Fore
SplineSet
201 -268 m 0,0,1
 201 -288 201 -288 179 -289 c 1,2,3
 146 -289 146 -289 128 -268 c 0,4,5
 85 -221 85 -221 85 -97 c 2,6,-1
 85 -62 l 1,7,8
 85 -40 l 0,9,10
 85 -29 85 -29 86 -14 c 0,11,12
 87 -1 87 -1 87 10 c 2,13,14
 87 33 l 2,15,-1
 87 68 l 2,16,17
 87 126 87 126 81 168 c 1,18,19
 69 237 69 237 38 250 c 1,20,-1
 10 259 l 1,21,22
 -7 267 -7 267 -7 279 c 0,23,24
 -7 294 -7 294 27 302 c 1,25,26
 55 307 55 307 68 340 c 0,27,28
 88 390 88 390 88 497 c 2,29,-1
 88 574 l 1,30,31
 87 587 87 587 87 599 c 0,32,33
 87 610 87 610 87 621 c 2,34,-1
 87 653 l 2,35,36
 87 732 87 732 100 773 c 0,37,38
 123 845 123 845 179 845 c 0,39,40
 201 845 201 845 201 824 c 0,41,42
 201 807 201 807 176 801 c 1,43,44
 151 797 151 797 143 773 c 0,45,46
 129 732 129 732 129 653 c 2,47,-1
 129 621 l 1,48,49
 129 599 l 0,50,51
 129 588 129 588 130 574 c 0,52,53
 131 561 131 561 131 550 c 2,54,-1
 131 529 l 1,55,-1
 131 497 l 2,56,57
 131 458 131 458 129 429 c 128,-1,58
 127 400 127 400 123 380 c 0,59,60
 109 309 109 309 71 279 c 1,61,62
 93 262 93 262 104 236 c 0,63,64
 129 179 129 179 129 63 c 2,65,-1
 129 28 l 1,66,67
 129 5 l 0,68,69
 129 -7 129 -7 128 -22 c 0,70,71
 127 -36 127 -36 127 -48 c 2,72,73
 127 -71 l 2,74,-1
 127 -106 l 2,75,76
 127 -130 127 -130 128 -148.5 c 128,-1,77
 129 -167 129 -167 131 -181 c 0,78,79
 138 -232 138 -232 162 -243 c 1,80,81
 174 -246 174 -246 187.5 -250 c 128,-1,82
 201 -254 201 -254 201 -268 c 0,0,1
EndSplineSet
Validated: 1
EndChar

StartChar: bar
Encoding: 124 124 96
Width: 178
GlyphClass: 2
Flags: W
LayerCount: 3
Fore
SplineSet
111 7 m 2,0,1
 111 -13 111 -13 89 -13 c 0,2,3
 69 -13 69 -13 69 7 c 2,4,-1
 69 735 l 2,5,6
 69 755 69 755 89 756 c 1,7,8
 111 756 111 756 111 735 c 2,9,-1
 111 7 l 2,0,1
EndSplineSet
Validated: 1
EndChar

StartChar: braceright
Encoding: 125 125 97
Width: 245
GlyphClass: 2
Flags: W
LayerCount: 3
Fore
SplineSet
254 279 m 1,0,1
 253 268 253 268 242.5 263 c 128,-1,2
 232 258 232 258 220 253.5 c 128,-1,3
 208 249 208 249 196 241 c 128,-1,4
 184 233 184 233 180 218 c 1,5,6
 160 165 160 165 160 61 c 2,7,-1
 160 28 l 1,8,9
 160 6 l 0,10,11
 160 -5 160 -5 161 -18 c 256,12,13
 162 -31 162 -31 162 -43 c 2,14,-1
 162 -66 l 1,15,-1
 162 -99 l 2,16,17
 162 -170 162 -170 147 -218 c 1,18,19
 123 -289 123 -289 67 -289 c 0,20,21
 47 -289 47 -289 46 -268 c 0,22,23
 46 -251 46 -251 73 -246 c 1,24,25
 95 -243 95 -243 103 -220 c 1,26,27
 118 -183 118 -183 119 -109 c 1,28,-1
 119 -24 l 1,29,30
 118 -10 118 -10 118 3 c 2,31,32
 118 26 l 2,33,-1
 118 61 l 2,34,35
 118 131 118 131 126 178 c 0,36,37
 138 250 138 250 176 279 c 1,38,39
 156 296 156 296 142 323 c 1,40,41
 116 380 116 380 116 491 c 0,42,43
 116 495 116 495 116 499 c 2,44,-1
 116 532 l 1,45,46
 116 554 l 0,47,48
 116 566 116 566 117 580 c 0,49,50
 118 593 118 593 118 604 c 2,51,-1
 118 627 l 1,52,-1
 118 660 l 2,53,54
 118 684 118 684 117 702.5 c 128,-1,55
 116 721 116 721 114 735 c 0,56,57
 106 786 106 786 84 798 c 1,58,59
 72 802 72 802 59 806.5 c 128,-1,60
 46 811 46 811 46 824 c 0,61,62
 46 844 46 844 67 845 c 1,63,64
 100 845 100 845 118 824 c 0,65,66
 160 776 160 776 160 655 c 2,67,-1
 160 575 l 1,68,69
 159 562 159 562 159 550 c 0,70,71
 159 539 159 539 159 528 c 2,72,-1
 159 496 l 2,73,74
 159 390 159 390 179 339 c 0,75,76
 191 309 191 309 222 301 c 1,77,78
 254 294 254 294 254 279 c 1,0,1
EndSplineSet
Validated: 1
EndChar

StartChar: asciitilde
Encoding: 126 126 98
Width: 354
GlyphClass: 2
Flags: W
LayerCount: 3
Fore
SplineSet
330 558 m 0,0,1
 330 545 330 545 294 520 c 1,2,3
 259 497 259 497 246 497 c 2,4,5
 245 497 l 0,6,7
 208 497 208 497 176 531 c 1,8,9
 145 566 145 566 136 566 c 0,10,11
 129 566 129 566 104 542 c 0,12,13
 80 518 80 518 71 518 c 0,14,15
 51 518 51 518 50 537 c 0,16,17
 50 551 50 551 85 577 c 128,-1,18
 120 603 120 603 135 603 c 2,19,-1
 136 603 l 2,20,21
 167 603 167 603 196 568 c 0,22,23
 225 534 225 534 243 534 c 1,24,25
 266 549 266 549 276 558 c 1,26,27
 302 576 302 576 308 577 c 1,28,29
 330 576 330 576 330 558 c 0,0,1
EndSplineSet
Validated: 1
EndChar

StartChar: exclamdown
Encoding: 161 161 99
Width: 512
GlyphClass: 2
Flags: W
LayerCount: 3
Fore
SplineSet
65 0 m 1,0,-1
 65 819 l 1,1,-1
 449 819 l 1,2,-1
 449 0 l 1,3,-1
 65 0 l 1,0,-1
128 65 m 1,4,-1
 384 65 l 1,5,-1
 384 756 l 1,6,-1
 128 756 l 1,7,-1
 128 65 l 1,4,-1
EndSplineSet
Validated: 1
EndChar

StartChar: cent
Encoding: 162 162 100
Width: 512
GlyphClass: 2
Flags: W
LayerCount: 3
Fore
SplineSet
65 0 m 1,0,-1
 65 819 l 1,1,-1
 449 819 l 1,2,-1
 449 0 l 1,3,-1
 65 0 l 1,0,-1
128 65 m 1,4,-1
 384 65 l 1,5,-1
 384 756 l 1,6,-1
 128 756 l 1,7,-1
 128 65 l 1,4,-1
EndSplineSet
Validated: 1
EndChar

StartChar: sterling
Encoding: 163 163 101
Width: 512
GlyphClass: 2
Flags: W
LayerCount: 3
Fore
SplineSet
65 0 m 1,0,-1
 65 819 l 1,1,-1
 449 819 l 1,2,-1
 449 0 l 1,3,-1
 65 0 l 1,0,-1
128 65 m 1,4,-1
 384 65 l 1,5,-1
 384 756 l 1,6,-1
 128 756 l 1,7,-1
 128 65 l 1,4,-1
EndSplineSet
Validated: 1
EndChar

StartChar: currency
Encoding: 164 164 102
Width: 485
GlyphClass: 2
Flags: W
LayerCount: 3
Fore
SplineSet
396 164 m 0,0,1
 396 144 396 144 375 143 c 0,2,3
 374 143 374 143 355 152 c 0,4,5
 323 168 323 168 300.5 179.5 c 128,-1,6
 278 191 278 191 262 200 c 1,7,-1
 262 87 l 2,8,9
 262 67 262 67 241 67 c 0,10,11
 221 67 221 67 220 87 c 1,12,-1
 220 196 l 1,13,14
 201 186 201 186 187 178 c 128,-1,15
 173 170 173 170 164 165 c 0,16,17
 117 139 117 139 110 139 c 0,18,19
 90 139 90 139 89 160 c 0,20,21
 89 171 89 171 98 176 c 2,22,-1
 200 232 l 1,23,-1
 98 286 l 1,24,25
 88 290 88 290 88 303 c 0,26,27
 88 323 88 323 110 324 c 0,28,29
 115 324 115 324 130 316 c 128,-1,30
 145 308 145 308 175 291 c 0,31,32
 189 283 189 283 200.5 277 c 128,-1,33
 212 271 212 271 220 267 c 1,34,-1
 220 376 l 2,35,36
 220 396 220 396 241 396 c 0,37,38
 263 396 263 396 262 376 c 1,39,-1
 262 267 l 1,40,41
 281 277 281 277 295 285.5 c 128,-1,42
 309 294 309 294 319 299 c 0,43,44
 365 324 365 324 373 324 c 0,45,46
 394 324 394 324 394 306 c 0,47,48
 394 293 394 293 383 287 c 2,49,-1
 285 232 l 1,50,-1
 385 180 l 2,51,52
 396 174 396 174 396 164 c 0,0,1
EndSplineSet
Validated: 1
EndChar

StartChar: yen
Encoding: 165 165 103
Width: 512
GlyphClass: 2
Flags: W
LayerCount: 3
Fore
SplineSet
65 0 m 1,0,-1
 65 819 l 1,1,-1
 449 819 l 1,2,-1
 449 0 l 1,3,-1
 65 0 l 1,0,-1
128 65 m 1,4,-1
 384 65 l 1,5,-1
 384 756 l 1,6,-1
 128 756 l 1,7,-1
 128 65 l 1,4,-1
EndSplineSet
Validated: 1
EndChar

StartChar: brokenbar
Encoding: 166 166 104
Width: 512
GlyphClass: 2
Flags: W
LayerCount: 3
Fore
SplineSet
65 0 m 1,0,-1
 65 819 l 1,1,-1
 449 819 l 1,2,-1
 449 0 l 1,3,-1
 65 0 l 1,0,-1
128 65 m 1,4,-1
 384 65 l 1,5,-1
 384 756 l 1,6,-1
 128 756 l 1,7,-1
 128 65 l 1,4,-1
EndSplineSet
Validated: 1
EndChar

StartChar: section
Encoding: 167 167 105
Width: 512
GlyphClass: 2
Flags: W
LayerCount: 3
Fore
SplineSet
65 0 m 1,0,-1
 65 819 l 1,1,-1
 449 819 l 1,2,-1
 449 0 l 1,3,-1
 65 0 l 1,0,-1
128 65 m 1,4,-1
 384 65 l 1,5,-1
 384 756 l 1,6,-1
 128 756 l 1,7,-1
 128 65 l 1,4,-1
EndSplineSet
Validated: 1
EndChar

StartChar: dieresis
Encoding: 168 168 106
Width: 589
GlyphClass: 2
Flags: W
LayerCount: 3
Fore
SplineSet
155 426 m 256,0,1
 155 410 155 410 140.5 399 c 128,-1,2
 126 388 126 388 109 388 c 256,3,4
 92 388 92 388 77 399 c 128,-1,5
 62 410 62 410 62 426 c 256,6,7
 62 442 62 442 76.5 453 c 128,-1,8
 91 464 91 464 109 464 c 0,9,10
 126 464 126 464 140.5 453 c 128,-1,11
 155 442 155 442 155 426 c 256,0,1
269 426 m 256,12,13
 269 410 269 410 255 399 c 128,-1,14
 241 388 241 388 223 388 c 0,15,16
 206 388 206 388 191.5 399 c 128,-1,17
 177 410 177 410 177 426 c 256,18,19
 177 442 177 442 191.5 453 c 128,-1,20
 206 464 206 464 223 464 c 256,21,22
 240 464 240 464 254.5 453 c 128,-1,23
 269 442 269 442 269 426 c 256,12,13
EndSplineSet
Validated: 1
EndChar

StartChar: copyright
Encoding: 169 169 107
Width: 512
GlyphClass: 2
Flags: W
LayerCount: 3
Fore
SplineSet
367 708 m 2,0,1
 462 708 462 708 525 640 c 1,2,3
 590 572 590 572 590 481 c 2,4,5
 590 476 l 0,6,7
 590 432 590 432 572 392 c 0,8,9
 554 350 554 350 522 320 c 128,-1,10
 490 290 490 290 450 272 c 0,11,12
 414 256 414 256 376 256 c 2,13,-1
 367 256 l 2,14,15
 273 256 273 256 208 324 c 256,16,17
 143 392 143 392 143 481 c 2,18,-1
 143 486 l 2,19,20
 143 532 143 532 161 572 c 0,21,22
 180 614 180 614 212 645 c 128,-1,23
 244 676 244 676 284 692 c 0,24,25
 322 708 322 708 362 708 c 2,26,-1
 367 708 l 2,0,1
367 671 m 0,27,28
 287 671 287 671 231 611 c 0,29,30
 180 557 180 557 180 481 c 0,31,32
 180 400 180 400 240 345 c 1,33,34
 293 293 293 293 367 293 c 0,35,36
 447 293 447 293 502 352 c 1,37,38
 554 405 554 405 554 481 c 0,39,40
 554 563 554 563 495 618 c 1,41,42
 441 671 441 671 367 671 c 0,27,28
434 442 m 1,43,44
 439 461 439 461 454 461 c 0,45,46
 457 461 457 461 461 460 c 0,47,48
 478 458 478 458 478 438 c 0,49,50
 478 434 478 434 477 429 c 0,51,52
 467 389 467 389 438 369 c 128,-1,53
 409 349 409 349 368 349 c 0,54,55
 315 349 315 349 281 382.5 c 128,-1,56
 247 416 247 416 247 481 c 256,57,58
 247 546 247 546 281 578.5 c 128,-1,59
 315 611 315 611 371 611 c 0,60,61
 409 611 409 611 436.5 594 c 128,-1,62
 464 577 464 577 475 541 c 0,63,64
 476 536 476 536 476 532 c 0,65,66
 476 516 476 516 461 512 c 0,67,68
 457 511 457 511 454 511 c 0,69,70
 441 511 441 511 433 530 c 1,71,72
 425 554 425 554 407 563 c 128,-1,73
 389 572 389 572 369 572 c 0,74,75
 336 572 336 572 315 548.5 c 128,-1,76
 294 525 294 525 294 479 c 256,77,78
 294 433 294 433 314.5 411.5 c 128,-1,79
 335 390 335 390 365 390 c 0,80,81
 389 390 389 390 408.5 401.5 c 128,-1,82
 428 413 428 413 434 442 c 1,43,44
EndSplineSet
Validated: 1
EndChar

StartChar: ordfeminine
Encoding: 170 170 108
Width: 512
GlyphClass: 2
Flags: W
LayerCount: 3
Fore
SplineSet
65 0 m 1,0,-1
 65 819 l 1,1,-1
 449 819 l 1,2,-1
 449 0 l 1,3,-1
 65 0 l 1,0,-1
128 65 m 1,4,-1
 384 65 l 1,5,-1
 384 756 l 1,6,-1
 128 756 l 1,7,-1
 128 65 l 1,4,-1
EndSplineSet
Validated: 1
EndChar

StartChar: guillemotleft
Encoding: 171 171 109
Width: 485
GlyphClass: 2
Flags: W
LayerCount: 3
Fore
SplineSet
280 10 m 0,0,1
 280 -10 280 -10 258 -10 c 0,2,3
 248 -10 248 -10 242 -3 c 2,4,-1
 92 173 l 2,5,6
 88 177 88 177 88 185 c 0,7,8
 88 194 88 194 92 199 c 2,9,-1
 242 377 l 2,10,11
 248 384 248 384 258 384 c 0,12,13
 280 384 280 384 280 364 c 0,14,15
 280 359 280 359 274 350 c 1,16,-1
 136 185 l 1,17,-1
 274 23 l 1,18,19
 280 14 280 14 280 10 c 0,0,1
423 10 m 0,20,21
 423 -10 423 -10 401 -10 c 0,22,23
 391 -10 391 -10 385 -3 c 2,24,-1
 236 173 l 2,25,26
 232 177 232 177 231 185 c 1,27,28
 231 194 231 194 236 199 c 2,29,-1
 385 377 l 2,30,31
 391 384 391 384 401 384 c 0,32,33
 423 384 423 384 423 364 c 0,34,35
 423 359 423 359 418 350 c 1,36,-1
 280 185 l 1,37,-1
 418 23 l 1,38,39
 423 14 423 14 423 10 c 0,20,21
EndSplineSet
Validated: 1
EndChar

StartChar: logicalnot
Encoding: 172 172 110
Width: 512
GlyphClass: 2
Flags: W
LayerCount: 3
Fore
SplineSet
65 0 m 1,0,-1
 65 819 l 1,1,-1
 449 819 l 1,2,-1
 449 0 l 1,3,-1
 65 0 l 1,0,-1
128 65 m 1,4,-1
 384 65 l 1,5,-1
 384 756 l 1,6,-1
 128 756 l 1,7,-1
 128 65 l 1,4,-1
EndSplineSet
Validated: 1
EndChar

StartChar: uni00AD
Encoding: 173 173 111
Width: 512
GlyphClass: 2
Flags: W
LayerCount: 3
Fore
SplineSet
65 0 m 1,0,-1
 65 819 l 1,1,-1
 449 819 l 1,2,-1
 449 0 l 1,3,-1
 65 0 l 1,0,-1
128 65 m 1,4,-1
 384 65 l 1,5,-1
 384 756 l 1,6,-1
 128 756 l 1,7,-1
 128 65 l 1,4,-1
EndSplineSet
Validated: 1
EndChar

StartChar: registered
Encoding: 174 174 112
Width: 512
GlyphClass: 2
Flags: W
LayerCount: 3
Fore
SplineSet
332 708 m 2,0,1
 429 708 429 708 496 640 c 0,2,3
 561 574 561 574 561 484 c 2,4,5
 561 481 l 2,6,-1
 561 476 l 1,7,8
 560 432 560 432 542 392 c 0,9,10
 522 350 522 350 490 319 c 1,11,12
 460 288 460 288 418 271 c 0,13,14
 381 256 381 256 341 256 c 2,15,16
 332 256 l 0,17,18
 235 256 235 256 169 324 c 0,19,20
 104 392 104 392 104 481 c 2,21,22
 104 486 l 0,23,24
 104 531 104 531 122 571 c 0,25,26
 142 613 142 613 174 644 c 128,-1,27
 206 675 206 675 248 692 c 0,28,29
 287 708 287 708 327 708 c 2,30,-1
 332 708 l 2,0,1
332 670 m 0,31,32
 251 670 251 670 195 611 c 0,33,34
 144 557 144 557 143 481 c 1,35,36
 143 400 143 400 203 345 c 1,37,38
 256 295 256 295 332 295 c 0,39,40
 415 295 415 295 471 351 c 1,41,42
 522 405 522 405 522 481 c 0,43,44
 522 565 522 565 463 618 c 1,45,46
 409 670 409 670 332 670 c 0,31,32
243 581 m 2,47,48
 243 583 243 583 243 585 c 0,49,50
 243 609 243 609 264 609 c 0,51,52
 265 609 265 609 266 609 c 2,53,-1
 271 609 l 1,54,-1
 328 609 l 2,55,56
 375 609 375 609 390 602 c 1,57,58
 407 596 407 596 419.5 580 c 128,-1,59
 432 564 432 564 432 544 c 0,60,61
 432 513 432 513 412 495.5 c 128,-1,62
 392 478 392 478 371 477 c 1,63,64
 378 471 378 471 387.5 458.5 c 128,-1,65
 397 446 397 446 420 413 c 0,66,67
 424 408 424 408 428 400 c 128,-1,68
 432 392 432 392 437 384 c 0,69,70
 441 377 441 377 441 372 c 0,71,72
 441 363 441 363 430 357 c 0,73,74
 425 355 425 355 421 355 c 0,75,76
 411 355 411 355 401 366 c 1,77,-1
 379 404 l 2,78,79
 354 447 354 447 339 460 c 1,80,81
 329 470 329 470 306 470 c 2,82,-1
 301 470 l 2,83,84
 282 470 282 470 283 454 c 1,85,-1
 283 376 l 1,86,87
 281 356 281 356 262 355 c 1,88,89
 244 357 244 357 243 376 c 1,90,-1
 243 581 l 2,47,48
283 518 m 1,91,92
 281 504 281 504 295 504 c 0,93,94
 297 504 297 504 299 504 c 2,95,-1
 331 504 l 2,96,97
 390 504 390 504 390 541 c 1,98,99
 388 549 388 549 385.5 556 c 128,-1,100
 383 563 383 563 377 568 c 0,101,102
 371 574 371 574 359 576 c 0,103,104
 353 577 353 577 346 577 c 0,105,106
 342 577 342 577 338 577 c 0,107,108
 333 577 333 577 328 577 c 2,109,-1
 303 577 l 2,110,111
 301 577 301 577 299 577 c 0,112,113
 280 577 280 577 283 558 c 1,114,-1
 283 518 l 1,91,92
EndSplineSet
Validated: 1
EndChar

StartChar: macron
Encoding: 175 175 113
AltUni2: 0002c9.ffffffff.0
Width: 589
GlyphClass: 2
Flags: W
LayerCount: 3
Fore
SplineSet
155 426 m 256,0,1
 155 410 155 410 140.5 399 c 128,-1,2
 126 388 126 388 109 388 c 256,3,4
 92 388 92 388 77 399 c 128,-1,5
 62 410 62 410 62 426 c 256,6,7
 62 442 62 442 76.5 453 c 128,-1,8
 91 464 91 464 109 464 c 0,9,10
 126 464 126 464 140.5 453 c 128,-1,11
 155 442 155 442 155 426 c 256,0,1
269 426 m 256,12,13
 269 410 269 410 255 399 c 128,-1,14
 241 388 241 388 223 388 c 0,15,16
 206 388 206 388 191.5 399 c 128,-1,17
 177 410 177 410 177 426 c 256,18,19
 177 442 177 442 191.5 453 c 128,-1,20
 206 464 206 464 223 464 c 256,21,22
 240 464 240 464 254.5 453 c 128,-1,23
 269 442 269 442 269 426 c 256,12,13
EndSplineSet
Validated: 1
EndChar

StartChar: degree
Encoding: 176 176 114
Width: 438
GlyphClass: 2
Flags: W
LayerCount: 3
Fore
SplineSet
251 632 m 0,0,1
 251 659 251 659 221 659 c 0,2,3
 220 659 220 659 219 659 c 0,4,5
 188 659 188 659 188 632 c 0,6,7
 188 604 188 604 219 604 c 0,8,9
 251 604 251 604 251 632 c 0,0,1
293 632 m 256,10,11
 293 603 293 603 271 584.5 c 128,-1,12
 249 566 249 566 219 566 c 256,13,14
 189 566 189 566 167.5 584.5 c 128,-1,15
 146 603 146 603 146 632 c 256,16,17
 146 661 146 661 168 679 c 128,-1,18
 190 697 190 697 219 697 c 0,19,20
 249 697 249 697 271 679 c 128,-1,21
 293 661 293 661 293 632 c 256,10,11
EndSplineSet
Validated: 1
EndChar

StartChar: ordmasculine
Encoding: 186 186 115
Width: 438
GlyphClass: 2
Flags: W
LayerCount: 3
Fore
SplineSet
251 632 m 0,0,1
 251 659 251 659 221 659 c 0,2,3
 220 659 220 659 219 659 c 0,4,5
 188 659 188 659 188 632 c 0,6,7
 188 604 188 604 219 604 c 0,8,9
 251 604 251 604 251 632 c 0,0,1
293 632 m 256,10,11
 293 603 293 603 271 584.5 c 128,-1,12
 249 566 249 566 219 566 c 256,13,14
 189 566 189 566 167.5 584.5 c 128,-1,15
 146 603 146 603 146 632 c 256,16,17
 146 661 146 661 168 679 c 128,-1,18
 190 697 190 697 219 697 c 0,19,20
 249 697 249 697 271 679 c 128,-1,21
 293 661 293 661 293 632 c 256,10,11
EndSplineSet
Validated: 1
EndChar

StartChar: guillemotright
Encoding: 187 187 116
Width: 485
GlyphClass: 2
Flags: W
LayerCount: 3
Fore
SplineSet
282 185 m 0,0,1
 282 181 282 181 276 173 c 2,2,-1
 127 -3 l 2,3,4
 121 -10 121 -10 111 -10 c 0,5,6
 91 -10 91 -10 90 10 c 0,7,8
 90 18 90 18 94 23 c 2,9,-1
 232 185 l 1,10,-1
 94 350 l 2,11,12
 90 354 90 354 90 364 c 0,13,14
 90 384 90 384 111 384 c 0,15,16
 121 384 121 384 127 377 c 2,17,-1
 276 199 l 1,18,19
 282 190 282 190 282 185 c 0,0,1
425 185 m 0,20,21
 425 181 425 181 420 173 c 1,22,-1
 270 -3 l 2,23,24
 264 -10 264 -10 254 -10 c 0,25,26
 234 -10 234 -10 233 10 c 0,27,28
 233 18 233 18 238 23 c 2,29,-1
 376 185 l 1,30,-1
 238 350 l 2,31,32
 234 354 234 354 233 364 c 1,33,34
 233 384 233 384 254 384 c 0,35,36
 264 384 264 384 270 377 c 2,37,-1
 420 199 l 1,38,39
 425 190 425 190 425 185 c 0,20,21
EndSplineSet
Validated: 1
EndChar

StartChar: Agrave
Encoding: 192 192 117
Width: 924
GlyphClass: 2
Flags: W
LayerCount: 3
Fore
SplineSet
511 753 m 0,0,1
 511 784 511 784 509 806.5 c 128,-1,2
 507 829 507 829 505 847 c 1,3,4
 491 911 491 911 458 911 c 2,5,6
 457 911 l 0,7,8
 433 911 433 911 418 893 c 0,9,10
 378 842 378 842 378 749 c 0,11,12
 378 733 378 733 377.5 709 c 128,-1,13
 377 685 377 685 376 653 c 0,14,15
 374 621 374 621 373.5 598 c 128,-1,16
 373 575 373 575 373 559 c 1,17,18
 416 550 416 550 447 542 c 128,-1,19
 478 534 478 534 499 527 c 1,20,21
 505 601 505 601 508 656.5 c 128,-1,22
 511 712 511 712 511 753 c 0,0,1
886 201 m 0,23,24
 886 112 886 112 826 49 c 0,25,26
 766 -15 766 -15 682 -15 c 0,27,28
 681 -15 681 -15 679 -15 c 0,29,30
 612 -15 612 -15 574 20 c 0,31,32
 487 103 487 103 487 335 c 0,33,34
 487 352 487 352 487.5 370.5 c 128,-1,35
 488 389 488 389 489 407 c 2,36,-1
 495 477 l 1,37,38
 454 488 454 488 423.5 496.5 c 128,-1,39
 393 505 393 505 373 511 c 1,40,-1
 374 406 l 2,41,42
 374 349 374 349 371 290 c 1,43,44
 361 154 361 154 313 78 c 1,45,46
 252 -15 252 -15 126 -15 c 0,47,48
 102 -15 102 -15 87 -11 c 0,49,50
 7 7 7 7 7 66 c 0,51,52
 7 96 7 96 29.5 116 c 128,-1,53
 52 136 52 136 82 136 c 0,54,55
 106 136 106 136 106 114 c 0,56,57
 106 93 106 93 82 86 c 1,58,59
 57 81 57 81 57 66 c 0,60,61
 57 33 57 33 126 33 c 0,62,63
 249 33 249 33 295 158 c 0,64,65
 323 233 323 233 323 385 c 2,66,-1
 323 517 l 1,67,-1
 311 517 l 2,68,69
 286 517 286 517 258 501 c 1,70,71
 229 487 229 487 228 486 c 1,72,73
 203 486 203 486 203 510 c 0,74,75
 203 522 203 522 211 530 c 0,76,77
 250 566 250 566 308 566 c 0,78,79
 315 566 315 566 323 565 c 1,80,81
 323 581 323 581 324 604 c 128,-1,82
 325 627 325 627 326 656 c 0,83,84
 327 687 327 687 327.5 709.5 c 128,-1,85
 328 732 328 732 328 749 c 0,86,87
 328 827 328 827 356 885 c 1,88,89
 390 962 390 962 457 962 c 0,90,91
 497 962 497 962 517 938 c 0,92,93
 560 887 560 887 560 743 c 0,94,95
 560 707 560 707 556.5 651.5 c 128,-1,96
 553 596 553 596 547 518 c 1,97,98
 556 517 556 517 564 516 c 128,-1,99
 572 515 572 515 582 515 c 0,100,101
 605 515 605 515 633 538 c 1,102,103
 658 560 658 560 667 560 c 2,104,105
 668 560 l 0,106,107
 692 560 692 560 692 537 c 0,108,109
 692 526 692 526 685 518 c 0,110,111
 634 467 634 467 582 467 c 0,112,113
 572 467 572 467 562 467.5 c 128,-1,114
 552 468 552 468 543 469 c 1,115,116
 540 434 540 434 539 397.5 c 128,-1,117
 538 361 538 361 538 327 c 0,118,119
 538 206 538 206 556 143 c 0,120,121
 588 33 588 33 677 33 c 0,122,123
 678 33 678 33 679 33 c 0,124,125
 744 33 744 33 790 83 c 256,126,127
 836 133 836 133 836 201 c 0,128,129
 836 226 836 226 821 244.5 c 128,-1,130
 806 263 806 263 781 263 c 0,131,132
 757 263 757 263 750 237 c 0,133,134
 742 210 742 210 724 210 c 0,135,136
 698 210 698 210 698 233 c 0,137,138
 698 268 698 268 723 290.5 c 128,-1,139
 748 313 748 313 781 313 c 0,140,141
 803 313 803 313 822.5 304 c 128,-1,142
 842 295 842 295 855.5 279.5 c 128,-1,143
 869 264 869 264 877.5 244 c 128,-1,144
 886 224 886 224 886 201 c 0,23,24
559 986 m 0,145,146
 559 961 559 961 537 961 c 0,147,148
 536 961 536 961 535 961 c 0,149,150
 516 961 516 961 441 1025 c 1,151,152
 369 1090 369 1090 370 1110 c 1,153,154
 370 1135 370 1135 396 1135 c 0,155,156
 406 1135 406 1135 415 1126 c 1,157,158
 424 1115 424 1115 430.5 1107.5 c 128,-1,159
 437 1100 437 1100 442 1095 c 1,160,161
 462 1068 462 1068 511 1033 c 0,162,163
 559 999 559 999 559 986 c 0,145,146
EndSplineSet
Validated: 33
EndChar

StartChar: Aacute
Encoding: 193 193 118
Width: 927
GlyphClass: 2
Flags: W
LayerCount: 3
Fore
SplineSet
514 753 m 0,0,1
 514 784 514 784 512 806.5 c 128,-1,2
 510 829 510 829 508 847 c 1,3,4
 494 911 494 911 461 911 c 2,5,6
 460 911 l 0,7,8
 436 911 436 911 421 893 c 0,9,10
 381 842 381 842 381 749 c 0,11,12
 381 733 381 733 380.5 709 c 128,-1,13
 380 685 380 685 379 653 c 0,14,15
 377 621 377 621 376.5 598 c 128,-1,16
 376 575 376 575 376 559 c 1,17,18
 419 550 419 550 450 542 c 128,-1,19
 481 534 481 534 502 527 c 1,20,21
 508 601 508 601 511 656.5 c 128,-1,22
 514 712 514 712 514 753 c 0,0,1
889 201 m 0,23,24
 889 112 889 112 829 49 c 0,25,26
 769 -15 769 -15 685 -15 c 0,27,28
 684 -15 684 -15 682 -15 c 0,29,30
 563 -15 563 -15 518 110 c 0,31,32
 490 188 490 188 490 335 c 0,33,34
 490 352 490 352 491 370.5 c 128,-1,35
 492 389 492 389 493 407 c 2,36,-1
 498 477 l 1,37,38
 457 488 457 488 426.5 496.5 c 128,-1,39
 396 505 396 505 376 511 c 1,40,-1
 377 406 l 2,41,42
 377 349 377 349 374 290 c 1,43,44
 364 154 364 154 316 78 c 1,45,46
 255 -15 255 -15 129 -15 c 0,47,48
 105 -15 105 -15 90 -11 c 0,49,50
 10 7 10 7 10 66 c 0,51,52
 10 97 10 97 32 116.5 c 128,-1,53
 54 136 54 136 85 136 c 0,54,55
 110 136 110 136 110 112 c 0,56,57
 110 93 110 93 85 86 c 1,58,59
 60 81 60 81 60 66 c 0,60,61
 60 33 60 33 129 33 c 0,62,63
 252 33 252 33 298 158 c 0,64,65
 326 233 326 233 326 385 c 2,66,-1
 326 517 l 1,67,-1
 314 517 l 2,68,69
 287 517 287 517 261 501 c 1,70,71
 232 487 232 487 231 486 c 1,72,73
 206 486 206 486 206 510 c 0,74,75
 206 517 206 517 209 523 c 0,76,77
 239 566 239 566 308 566 c 0,78,79
 317 566 317 566 326 565 c 1,80,81
 326 581 326 581 327 604 c 128,-1,82
 328 627 328 627 329 656 c 0,83,84
 330 687 330 687 330.5 709.5 c 128,-1,85
 331 732 331 732 331 749 c 0,86,87
 331 827 331 827 359 885 c 1,88,89
 393 962 393 962 460 962 c 0,90,91
 500 962 500 962 520 938 c 0,92,93
 563 887 563 887 563 743 c 0,94,95
 563 707 563 707 559.5 651.5 c 128,-1,96
 556 596 556 596 550 518 c 1,97,98
 559 517 559 517 567 516 c 128,-1,99
 575 515 575 515 585 515 c 0,100,101
 608 515 608 515 636 538 c 1,102,103
 661 560 661 560 670 560 c 2,104,105
 671 560 l 0,106,107
 695 560 695 560 695 537 c 0,108,109
 695 526 695 526 688 518 c 0,110,111
 637 467 637 467 585 467 c 0,112,113
 575 467 575 467 565 467.5 c 128,-1,114
 555 468 555 468 546 469 c 1,115,116
 543 434 543 434 542 397.5 c 128,-1,117
 541 361 541 361 541 327 c 0,118,119
 541 206 541 206 559 143 c 0,120,121
 591 33 591 33 680 33 c 0,122,123
 681 33 681 33 682 33 c 0,124,125
 747 33 747 33 793 83 c 256,126,127
 839 133 839 133 839 201 c 0,128,129
 839 226 839 226 824 244.5 c 128,-1,130
 809 263 809 263 784 263 c 0,131,132
 760 263 760 263 753 237 c 0,133,134
 745 210 745 210 727 210 c 0,135,136
 701 210 701 210 701 233 c 0,137,138
 701 268 701 268 726 290.5 c 128,-1,139
 751 313 751 313 784 313 c 0,140,141
 806 313 806 313 825.5 304 c 128,-1,142
 845 295 845 295 858.5 279.5 c 128,-1,143
 872 264 872 264 880.5 244 c 128,-1,144
 889 224 889 224 889 201 c 0,23,24
548 1110 m 0,145,146
 548 1104 548 1104 538 1091 c 0,147,148
 524 1071 524 1071 498.5 1046.5 c 128,-1,149
 473 1022 473 1022 438 993 c 1,150,151
 395 961 395 961 384 961 c 2,152,153
 383 961 l 0,154,155
 357 961 357 961 357 986 c 0,156,157
 357 994 357 994 369 1006 c 1,158,159
 414 1041 414 1041 440.5 1062.5 c 128,-1,160
 467 1084 467 1084 475 1093 c 0,161,162
 481 1099 481 1099 485.5 1105.5 c 128,-1,163
 490 1112 490 1112 496 1118 c 0,164,165
 509 1134 509 1134 522 1135 c 1,166,167
 548 1135 548 1135 548 1110 c 0,145,146
EndSplineSet
Validated: 1
EndChar

StartChar: Acircumflex
Encoding: 194 194 119
Width: 987
GlyphClass: 2
Flags: W
LayerCount: 3
Fore
SplineSet
556 755 m 0,0,1
 556 813 556 813 550 847 c 1,2,3
 536 911 536 911 504 911 c 2,4,5
 503 911 l 0,6,7
 478 911 478 911 463 893 c 0,8,9
 423 842 423 842 423 749 c 2,10,-1
 424 637 l 1,11,-1
 424 525 l 1,12,13
 463 515 463 515 492.5 507.5 c 128,-1,14
 522 500 522 500 542 494 c 1,15,16
 549 574 549 574 552.5 638.5 c 128,-1,17
 556 703 556 703 556 755 c 0,0,1
948 195 m 0,18,19
 948 187 948 187 945 182 c 0,20,21
 921 136 921 136 901.5 103 c 128,-1,22
 882 70 882 70 863 49 c 0,23,24
 806 -15 806 -15 726 -15 c 0,25,26
 725 -15 725 -15 724 -15 c 0,27,28
 658 -15 658 -15 620 20 c 0,29,30
 533 103 533 103 532 335 c 0,31,32
 532 364 532 364 534 391 c 128,-1,33
 536 418 536 418 538 446 c 1,34,35
 485 459 485 459 456.5 466.5 c 128,-1,36
 428 474 428 474 424 475 c 1,37,-1
 424 333 l 2,38,39
 424 173 424 173 391 96 c 1,40,41
 341 -15 341 -15 202 -15 c 0,42,43
 201 -15 201 -15 199 -15 c 0,44,45
 121 -15 121 -15 67 38 c 1,46,47
 13 95 13 95 12 171 c 0,48,49
 12 229 12 229 54 271 c 1,50,51
 95 314 95 314 155 314 c 0,52,53
 175 314 175 314 193.5 307 c 128,-1,54
 212 300 212 300 226.5 287.5 c 128,-1,55
 241 275 241 275 249 258 c 128,-1,56
 257 241 257 241 257 220 c 0,57,58
 257 197 257 197 235 197 c 0,59,60
 234 197 234 197 233 197 c 0,61,62
 213 197 213 197 209 222 c 0,63,64
 201 264 201 264 155 264 c 0,65,66
 116 264 116 264 89 237 c 128,-1,67
 62 210 62 210 62 171 c 0,68,69
 62 141 62 141 72.5 116 c 128,-1,70
 83 91 83 91 101.5 72.5 c 128,-1,71
 120 54 120 54 144.5 43.5 c 128,-1,72
 169 33 169 33 199 33 c 0,73,74
 276 33 276 33 314 72 c 0,75,76
 346 104 346 104 364 185 c 1,77,78
 375 244 375 244 375 333 c 2,79,-1
 375 482 l 1,80,81
 371 482 371 482 370 483 c 1,82,-1
 364 483 l 2,83,84
 340 483 340 483 308 468 c 0,85,86
 276 452 276 452 273 452 c 0,87,88
 248 452 248 452 248 475 c 0,89,90
 248 487 248 487 256 496 c 1,91,92
 296 531 296 531 361 531 c 0,93,94
 368 531 368 531 375 531 c 1,95,-1
 375 640 l 1,96,97
 374 653 374 653 373.5 666.5 c 128,-1,98
 373 680 373 680 373 693 c 2,99,-1
 373 749 l 2,100,101
 373 827 373 827 400 885 c 1,102,103
 434 962 434 962 503 962 c 0,104,105
 542 962 542 962 562 938 c 0,106,107
 606 888 606 888 606 743 c 0,108,109
 606 710 606 710 604.5 678 c 128,-1,110
 603 646 603 646 601 614 c 2,111,-1
 591 483 l 1,112,113
 594 482 594 482 600 482 c 2,114,-1
 608 482 l 1,115,-1
 627 482 l 2,116,117
 652 482 652 482 677 505 c 1,118,119
 702 526 702 526 712 526 c 2,120,121
 713 526 l 0,122,123
 737 526 737 526 737 504 c 0,124,125
 737 493 737 493 730 485 c 0,126,127
 679 431 679 431 627 431 c 0,128,129
 604 431 604 431 587 435 c 1,130,131
 585 407 585 407 584 380 c 128,-1,132
 583 353 583 353 583 327 c 0,133,134
 583 206 583 206 601 143 c 0,135,136
 633 33 633 33 722 33 c 0,137,138
 723 33 723 33 724 33 c 0,139,140
 801 33 801 33 858 127 c 0,141,142
 865 140 865 140 872.5 153 c 128,-1,143
 880 166 880 166 888 179 c 0,144,145
 911 219 911 219 924 219 c 0,146,147
 925 219 925 219 926 219 c 0,148,149
 948 219 948 219 948 195 c 0,18,19
626 993 m 0,150,151
 626 969 626 969 603 969 c 0,152,153
 602 969 602 969 601 969 c 0,154,155
 588 969 588 969 540 1026 c 1,156,157
 494 1083 494 1083 493 1083 c 0,158,159
 489 1076 489 1076 476 1059.5 c 128,-1,160
 463 1043 463 1043 439 1018 c 0,161,162
 394 969 394 969 382 969 c 0,163,164
 356 969 356 969 356 993 c 0,165,166
 356 1007 356 1007 392 1040 c 0,167,168
 404 1050 404 1050 417 1065.5 c 128,-1,169
 430 1081 430 1081 445 1102 c 0,170,171
 474 1143 474 1143 493 1143 c 0,172,173
 499 1143 499 1143 509 1136 c 1,174,175
 517 1129 517 1129 523 1120 c 1,176,-1
 536 1104 l 2,177,178
 562 1071 562 1071 582.5 1047 c 128,-1,179
 603 1023 603 1023 620 1008 c 1,180,181
 626 1001 626 1001 626 993 c 0,150,151
EndSplineSet
Validated: 1
EndChar

StartChar: Atilde
Encoding: 195 195 120
Width: 929
GlyphClass: 2
Flags: W
LayerCount: 3
Fore
SplineSet
516 753 m 0,0,1
 516 784 516 784 514 806.5 c 128,-1,2
 512 829 512 829 510 847 c 1,3,4
 496 911 496 911 463 911 c 2,5,6
 462 911 l 0,7,8
 438 911 438 911 423 893 c 0,9,10
 383 842 383 842 383 749 c 0,11,12
 383 733 383 733 382.5 709 c 128,-1,13
 382 685 382 685 381 653 c 0,14,15
 379 621 379 621 378.5 598 c 128,-1,16
 378 575 378 575 378 559 c 1,17,18
 421 550 421 550 452 542 c 128,-1,19
 483 534 483 534 504 527 c 1,20,21
 510 601 510 601 513 656.5 c 128,-1,22
 516 712 516 712 516 753 c 0,0,1
891 201 m 0,23,24
 891 112 891 112 831 49 c 0,25,26
 771 -15 771 -15 687 -15 c 0,27,28
 686 -15 686 -15 684 -15 c 0,29,30
 565 -15 565 -15 520 110 c 0,31,32
 493 185 493 185 493 325 c 0,33,34
 493 330 493 330 493 335 c 0,35,36
 493 352 493 352 493.5 370.5 c 128,-1,37
 494 389 494 389 495 407 c 2,38,-1
 500 477 l 1,39,40
 459 488 459 488 428.5 496.5 c 128,-1,41
 398 505 398 505 378 511 c 1,42,-1
 379 406 l 2,43,44
 379 349 379 349 376 290 c 1,45,46
 366 154 366 154 318 78 c 1,47,48
 257 -15 257 -15 131 -15 c 0,49,50
 107 -15 107 -15 92 -11 c 0,51,52
 12 7 12 7 12 66 c 0,53,54
 12 97 12 97 34 116.5 c 128,-1,55
 56 136 56 136 87 136 c 0,56,57
 112 136 112 136 112 112 c 0,58,59
 112 93 112 93 87 86 c 1,60,61
 62 81 62 81 62 66 c 0,62,63
 62 33 62 33 131 33 c 0,64,65
 254 33 254 33 300 158 c 0,66,67
 328 233 328 233 328 385 c 2,68,-1
 328 517 l 1,69,-1
 316 517 l 2,70,71
 289 517 289 517 263 501 c 1,72,73
 234 487 234 487 233 486 c 1,74,75
 208 486 208 486 208 510 c 0,76,77
 208 517 208 517 211 523 c 0,78,79
 241 566 241 566 310 566 c 0,80,81
 319 566 319 566 328 565 c 1,82,83
 328 581 328 581 329 604 c 128,-1,84
 330 627 330 627 331 656 c 0,85,86
 332 687 332 687 332.5 709.5 c 128,-1,87
 333 732 333 732 333 749 c 0,88,89
 333 827 333 827 361 885 c 1,90,91
 395 962 395 962 462 962 c 0,92,93
 502 962 502 962 522 938 c 0,94,95
 565 887 565 887 565 743 c 0,96,97
 565 707 565 707 561.5 651.5 c 128,-1,98
 558 596 558 596 552 518 c 1,99,100
 561 517 561 517 569.5 516 c 128,-1,101
 578 515 578 515 587 515 c 0,102,103
 610 515 610 515 638 538 c 1,104,105
 663 560 663 560 672 560 c 2,106,107
 673 560 l 0,108,109
 697 560 697 560 697 537 c 0,110,111
 697 526 697 526 690 518 c 0,112,113
 639 467 639 467 587 467 c 0,114,115
 577 467 577 467 567 467.5 c 128,-1,116
 557 468 557 468 548 469 c 1,117,118
 545 434 545 434 544 397.5 c 128,-1,119
 543 361 543 361 543 327 c 0,120,121
 543 206 543 206 561 143 c 0,122,123
 593 33 593 33 682 33 c 0,124,125
 683 33 683 33 684 33 c 0,126,127
 749 33 749 33 795 83 c 256,128,129
 841 133 841 133 841 201 c 0,130,131
 841 226 841 226 826 244.5 c 128,-1,132
 811 263 811 263 786 263 c 0,133,134
 762 263 762 263 755 237 c 0,135,136
 747 210 747 210 729 210 c 0,137,138
 703 210 703 210 703 233 c 0,139,140
 703 268 703 268 728 290.5 c 128,-1,141
 753 313 753 313 786 313 c 0,142,143
 808 313 808 313 827.5 304 c 128,-1,144
 847 295 847 295 860.5 279.5 c 128,-1,145
 874 264 874 264 882.5 244 c 128,-1,146
 891 224 891 224 891 201 c 0,23,24
628 1069 m 0,147,148
 628 1051 628 1051 585 1019 c 1,149,150
 544 987 544 987 526 987 c 0,151,152
 480 987 480 987 446 1034 c 1,153,-1
 422 1066 l 2,154,155
 411 1081 411 1081 398 1081 c 0,156,157
 387 1081 387 1081 361 1048 c 1,158,159
 331 1015 331 1015 321 1015 c 0,160,161
 294 1015 294 1015 294 1040 c 0,162,163
 294 1058 294 1058 337 1095 c 0,164,165
 377 1129 377 1129 397 1129 c 2,166,167
 398 1129 l 0,168,169
 435 1129 435 1129 471 1083 c 0,170,171
 505 1038 505 1038 524 1037 c 1,172,173
 538 1046 538 1046 548 1055 c 2,174,-1
 565 1070 l 1,175,176
 597 1095 597 1095 603 1095 c 0,177,178
 628 1095 628 1095 628 1069 c 0,147,148
EndSplineSet
Validated: 1
EndChar

StartChar: Adieresis
Encoding: 196 196 121
Width: 927
GlyphClass: 2
Flags: W
LayerCount: 3
Fore
SplineSet
514 753 m 0,0,1
 514 784 514 784 512 806 c 128,-1,2
 510 828 510 828 508 846 c 1,3,4
 494 910 494 910 461 910 c 2,5,6
 460 910 l 0,7,8
 436 910 436 910 421 892 c 0,9,10
 381 841 381 841 381 746 c 0,11,12
 381 731 381 731 380.5 708 c 128,-1,13
 380 685 380 685 379 653 c 0,14,15
 377 621 377 621 376.5 598 c 128,-1,16
 376 575 376 575 376 559 c 1,17,18
 417 549 417 549 448 541.5 c 128,-1,19
 479 534 479 534 502 526 c 1,20,21
 514 672 514 672 514 753 c 0,0,1
889 201 m 0,22,23
 889 112 889 112 829 49 c 0,24,25
 769 -15 769 -15 685 -15 c 0,26,27
 684 -15 684 -15 682 -15 c 0,28,29
 563 -15 563 -15 520 110 c 1,30,31
 490 193 490 193 490 335 c 0,32,33
 490 352 490 352 491 370.5 c 128,-1,34
 492 389 492 389 493 407 c 2,35,-1
 498 477 l 1,36,37
 457 487 457 487 426.5 495 c 128,-1,38
 396 503 396 503 376 509 c 1,39,-1
 377 404 l 2,40,41
 377 347 377 347 374 289 c 1,42,43
 364 155 364 155 316 78 c 1,44,45
 255 -15 255 -15 129 -15 c 0,46,47
 105 -15 105 -15 90 -11 c 0,48,49
 10 7 10 7 10 66 c 0,50,51
 10 97 10 97 32 116.5 c 128,-1,52
 54 136 54 136 85 136 c 0,53,54
 110 136 110 136 110 112 c 0,55,56
 110 93 110 93 85 86 c 1,57,58
 60 81 60 81 60 66 c 0,59,60
 60 33 60 33 129 33 c 0,61,62
 252 33 252 33 298 158 c 0,63,64
 326 233 326 233 326 385 c 2,65,-1
 326 515 l 1,66,67
 324 515 324 515 319 517 c 1,68,-1
 314 517 l 2,69,70
 287 517 287 517 261 501 c 1,71,72
 232 487 232 487 231 486 c 1,73,74
 206 486 206 486 206 509 c 0,75,76
 206 515 206 515 209 521 c 0,77,78
 223 547 223 547 261 557 c 1,79,80
 288 566 288 566 313 566 c 0,81,82
 320 566 320 566 326 565 c 1,83,84
 326 581 326 581 327 603 c 128,-1,85
 328 625 328 625 329 655 c 0,86,87
 330 686 330 686 330.5 708.5 c 128,-1,88
 331 731 331 731 331 746 c 0,89,90
 331 822 331 822 359 884 c 0,91,92
 393 962 393 962 460 962 c 0,93,94
 500 962 500 962 520 938 c 0,95,96
 563 887 563 887 563 742 c 0,97,98
 563 706 563 706 559.5 651 c 128,-1,99
 556 596 556 596 550 518 c 1,100,101
 559 517 559 517 567 516 c 128,-1,102
 575 515 575 515 585 515 c 0,103,104
 608 515 608 515 636 538 c 1,105,106
 661 560 661 560 670 560 c 2,107,108
 671 560 l 0,109,110
 695 560 695 560 695 537 c 0,111,112
 695 526 695 526 688 518 c 0,113,114
 636 466 636 466 585 466 c 0,115,116
 575 466 575 466 565 466.5 c 128,-1,117
 555 467 555 467 546 468 c 1,118,119
 543 432 543 432 542 396.5 c 128,-1,120
 541 361 541 361 541 327 c 0,121,122
 541 206 541 206 559 143 c 0,123,124
 591 33 591 33 680 33 c 0,125,126
 681 33 681 33 682 33 c 0,127,128
 747 33 747 33 793 83 c 256,129,130
 839 133 839 133 839 201 c 0,131,132
 839 226 839 226 824 244.5 c 128,-1,133
 809 263 809 263 784 263 c 0,134,135
 760 263 760 263 753 237 c 0,136,137
 745 210 745 210 727 210 c 0,138,139
 701 210 701 210 701 233 c 0,140,141
 701 268 701 268 726 290.5 c 128,-1,142
 751 313 751 313 784 313 c 0,143,144
 806 313 806 313 825.5 304 c 128,-1,145
 845 295 845 295 858.5 279.5 c 128,-1,146
 872 264 872 264 880.5 244 c 128,-1,147
 889 224 889 224 889 201 c 0,22,23
446 1030 m 0,148,149
 446 1007 446 1007 430.5 991 c 128,-1,150
 415 975 415 975 393 975 c 0,151,152
 370 975 370 975 353.5 991.5 c 128,-1,153
 337 1008 337 1008 337 1030 c 128,-1,154
 337 1052 337 1052 354 1067.5 c 128,-1,155
 371 1083 371 1083 393 1083 c 128,-1,156
 415 1083 415 1083 430.5 1067.5 c 128,-1,157
 446 1052 446 1052 446 1030 c 0,148,149
583 1030 m 0,158,159
 583 1007 583 1007 567.5 991 c 128,-1,160
 552 975 552 975 529 975 c 0,161,162
 507 975 507 975 491 991.5 c 128,-1,163
 475 1008 475 1008 475 1030 c 128,-1,164
 475 1052 475 1052 491.5 1067.5 c 128,-1,165
 508 1083 508 1083 529 1083 c 0,166,167
 552 1083 552 1083 567.5 1067.5 c 128,-1,168
 583 1052 583 1052 583 1030 c 0,158,159
EndSplineSet
Validated: 1
EndChar

StartChar: Aring
Encoding: 197 197 122
Width: 929
GlyphClass: 2
Flags: W
LayerCount: 3
Fore
SplineSet
516 752 m 0,0,1
 516 783 516 783 514 805 c 128,-1,2
 512 827 512 827 510 845 c 1,3,4
 496 909 496 909 463 909 c 2,5,6
 462 909 l 0,7,8
 438 909 438 909 423 891 c 0,9,10
 383 840 383 840 383 745 c 0,11,12
 383 730 383 730 382.5 707 c 128,-1,13
 382 684 382 684 381 652 c 0,14,15
 379 620 379 620 378.5 596.5 c 128,-1,16
 378 573 378 573 378 558 c 1,17,18
 465 538 465 538 504 526 c 1,19,20
 516 672 516 672 516 752 c 0,0,1
501 1054 m 0,21,22
 501 1092 501 1092 460 1092 c 0,23,24
 420 1092 420 1092 420 1054 c 0,25,26
 420 1015 420 1015 460 1015 c 0,27,28
 501 1015 501 1015 501 1054 c 0,21,22
891 200 m 0,29,30
 891 110 891 110 831 47 c 0,31,32
 772 -15 772 -15 684 -15 c 0,33,34
 565 -15 565 -15 522 110 c 1,35,36
 493 187 493 187 493 325 c 0,37,38
 493 330 493 330 493 334 c 0,39,40
 493 351 493 351 493.5 369 c 128,-1,41
 494 387 494 387 495 406 c 2,42,-1
 500 476 l 1,43,44
 459 486 459 486 428.5 494 c 128,-1,45
 398 502 398 502 378 508 c 1,46,-1
 379 403 l 2,47,48
 379 346 379 346 376 288 c 1,49,50
 366 155 366 155 318 78 c 1,51,52
 257 -15 257 -15 131 -15 c 0,53,54
 107 -15 107 -15 92 -11 c 0,55,56
 12 7 12 7 12 66 c 0,57,58
 12 97 12 97 34 116.5 c 128,-1,59
 56 136 56 136 87 136 c 0,60,61
 112 136 112 136 112 112 c 0,62,63
 112 93 112 93 87 86 c 1,64,65
 62 81 62 81 62 66 c 0,66,67
 62 33 62 33 131 33 c 0,68,69
 254 33 254 33 300 156 c 0,70,71
 328 233 328 233 328 384 c 2,72,-1
 328 514 l 1,73,74
 324 514 324 514 322 515 c 1,75,-1
 316 515 l 2,76,77
 290 515 290 515 263 500 c 1,78,79
 234 486 234 486 233 485 c 1,80,81
 208 485 208 485 208 507 c 0,82,83
 208 514 208 514 211 520 c 0,84,85
 225 546 225 546 263 556 c 1,86,87
 288 564 288 564 316 564 c 0,88,89
 322 564 322 564 328 564 c 1,90,91
 328 579 328 579 329 601.5 c 128,-1,92
 330 624 330 624 331 654 c 0,93,94
 332 685 332 685 332.5 707.5 c 128,-1,95
 333 730 333 730 333 745 c 0,96,97
 333 824 333 824 361 883 c 1,98,99
 395 959 395 959 460 959 c 2,100,-1
 462 959 l 2,101,102
 502 959 502 959 522 936 c 0,103,104
 565 885 565 885 565 741 c 0,105,106
 565 705 565 705 561.5 650 c 128,-1,107
 558 595 558 595 552 517 c 1,108,109
 561 515 561 515 569.5 514.5 c 128,-1,110
 578 514 578 514 587 514 c 0,111,112
 610 514 610 514 638 537 c 1,113,114
 663 559 663 559 672 559 c 2,115,116
 673 559 l 0,117,118
 697 559 697 559 697 536 c 0,119,120
 697 525 697 525 690 517 c 0,121,122
 639 466 639 466 587 466 c 0,123,124
 577 466 577 466 567 466.5 c 128,-1,125
 557 467 557 467 548 468 c 1,126,127
 545 432 545 432 544 396 c 128,-1,128
 543 360 543 360 543 326 c 0,129,130
 543 205 543 205 561 142 c 0,131,132
 591 33 591 33 682 33 c 0,133,134
 683 33 683 33 684 33 c 0,135,136
 750 33 750 33 795 82 c 0,137,138
 841 132 841 132 841 200 c 0,139,140
 841 225 841 225 825 244 c 128,-1,141
 809 263 809 263 786 263 c 0,142,143
 762 263 762 263 755 237 c 0,144,145
 747 210 747 210 729 210 c 0,146,147
 703 210 703 210 703 233 c 0,148,149
 703 268 703 268 728 290 c 128,-1,150
 753 312 753 312 786 312 c 0,151,152
 808 312 808 312 827.5 303 c 128,-1,153
 847 294 847 294 860.5 278.5 c 128,-1,154
 874 263 874 263 882.5 243 c 128,-1,155
 891 223 891 223 891 200 c 0,29,30
542 1054 m 256,156,157
 542 1021 542 1021 517.5 1000 c 128,-1,158
 493 979 493 979 460 979 c 256,159,160
 427 979 427 979 402.5 1000 c 128,-1,161
 378 1021 378 1021 378 1054 c 256,162,163
 378 1087 378 1087 402.5 1107.5 c 128,-1,164
 427 1128 427 1128 460 1128 c 256,165,166
 493 1128 493 1128 517.5 1107.5 c 128,-1,167
 542 1087 542 1087 542 1054 c 256,156,157
EndSplineSet
Validated: 1
EndChar

StartChar: AE
Encoding: 198 198 123
Width: 1078
GlyphClass: 2
Flags: W
LayerCount: 3
Fore
SplineSet
426 523 m 1,0,1
 503 510 503 510 505 509 c 1,2,-1
 520 588 l 1,3,-1
 538 666 l 2,4,5
 557 750 557 750 557 823 c 0,6,7
 557 834 557 834 555 849 c 0,8,9
 543 909 543 909 503 909 c 0,10,11
 473 909 473 909 458 887 c 0,12,13
 424 839 424 839 424 717 c 2,14,-1
 424 676 l 2,15,16
 424 653 424 653 426 621 c 1,17,-1
 426 523 l 1,0,1
907 584 m 0,18,19
 907 617 907 617 835 617 c 0,20,21
 833 617 833 617 831 617 c 0,22,23
 773 617 773 617 729 602 c 1,24,25
 767 552 767 552 827 552 c 0,26,27
 851 552 851 552 876 558 c 1,28,29
 907 569 907 569 907 584 c 0,18,19
561 541 m 1,30,31
 606 599 606 599 657 625 c 1,32,33
 633 677 633 677 634 738 c 1,34,35
 634 826 634 826 728 899 c 1,36,37
 812 961 812 961 898 962 c 0,38,39
 950 962 950 962 984.5 932.5 c 128,-1,40
 1019 903 1019 903 1019 844 c 128,-1,41
 1019 785 1019 785 961 741 c 128,-1,42
 903 697 903 697 838 697 c 0,43,44
 813 697 813 697 813 721 c 128,-1,45
 813 745 813 745 838 745 c 0,46,47
 879 745 879 745 924 776 c 256,48,49
 969 807 969 807 969 851 c 0,50,51
 969 911 969 911 900 911 c 128,-1,52
 831 911 831 911 757.5 856 c 128,-1,53
 684 801 684 801 684 743 c 128,-1,54
 684 685 684 685 703 646 c 1,55,56
 768 666 768 666 831 667 c 0,57,58
 851 667 851 667 871 663 c 0,59,60
 956 648 956 648 956 584 c 0,61,62
 956 544 956 544 913.5 523.5 c 128,-1,63
 871 503 871 503 827 503 c 0,64,65
 738 503 738 503 683 582 c 1,66,67
 544 502 544 502 544 330 c 0,68,69
 544 213 544 213 627.5 123 c 128,-1,70
 711 33 711 33 827 33 c 0,71,72
 897 33 897 33 956.5 84 c 128,-1,73
 1016 135 1016 135 1016 200 c 0,74,75
 1016 224 1016 224 1000 243.5 c 128,-1,76
 984 263 984 263 957.5 263 c 128,-1,77
 931 263 931 263 919.5 255.5 c 128,-1,78
 908 248 908 248 904.5 232.5 c 128,-1,79
 901 217 901 217 889 217 c 0,80,81
 858 217 858 217 858 250.5 c 128,-1,82
 858 284 858 284 896 300 c 0,83,84
 922 312 922 312 953 312 c 128,-1,85
 984 312 984 312 1003 303 c 128,-1,86
 1022 294 1022 294 1036 279 c 0,87,88
 1065 246 1065 246 1065 200 c 0,89,90
 1065 112 1065 112 989.5 47.5 c 128,-1,91
 914 -17 914 -17 826 -17 c 0,92,93
 681 -17 681 -17 587 93.5 c 128,-1,94
 493 204 493 204 493 353 c 2,95,-1
 493 384 l 2,96,97
 493 428 493 428 498 461 c 1,98,99
 473 463 473 463 461 467 c 1,100,-1
 424 474 l 1,101,-1
 424 332 l 2,102,103
 424 171 424 171 390 96 c 0,104,105
 340 -15 340 -15 201 -15 c 0,106,107
 200 -15 200 -15 198 -15 c 0,108,109
 120 -15 120 -15 66 38.5 c 128,-1,110
 12 92 12 92 12 171 c 0,111,112
 12 228 12 228 53.5 270.5 c 128,-1,113
 95 313 95 313 154 313 c 0,114,115
 196 313 196 313 226 287 c 0,116,117
 257 260 257 260 257 220 c 0,118,119
 257 196 257 196 233 196 c 2,120,121
 232 196 l 0,122,123
 208 196 208 196 208 220 c 0,124,125
 208 239 208 239 191 251.5 c 128,-1,126
 174 264 174 264 154 264 c 0,127,128
 115 264 115 264 88.5 237 c 128,-1,129
 62 210 62 210 62 175.5 c 128,-1,130
 62 141 62 141 72.5 116 c 128,-1,131
 83 91 83 91 100 73 c 0,132,133
 139 33 139 33 198 33 c 0,134,135
 274 33 274 33 311 66 c 0,136,137
 377 123 377 123 377 372 c 2,138,-1
 377 410 l 1,139,-1
 375 442 l 1,140,-1
 375 481 l 1,141,-1
 358 481 l 2,142,143
 338 481 338 481 308 466.5 c 128,-1,144
 278 452 278 452 275 452 c 0,145,146
 250 452 250 452 250 474 c 0,147,148
 250 486 250 486 259 495 c 0,149,150
 299 532 299 532 355 532 c 0,151,152
 365 532 365 532 376 531 c 1,153,-1
 376 628 l 1,154,-1
 375 672 l 1,155,-1
 373 717 l 1,156,157
 373 751 373 751 377 792 c 0,158,159
 390 957 390 957 502 957 c 2,160,-1
 503 957 l 2,161,162
 550 957 550 957 578.5 915 c 128,-1,163
 607 873 607 873 607 816 c 128,-1,164
 607 759 607 759 595 702 c 2,165,-1
 561 541 l 1,30,31
EndSplineSet
Validated: 33
EndChar

StartChar: Ccedilla
Encoding: 199 199 124
Width: 736
GlyphClass: 2
Flags: W
LayerCount: 3
Fore
SplineSet
563 831 m 0,0,1
 563 846 563 846 558.5 861 c 128,-1,2
 554 876 554 876 545.5 887.5 c 128,-1,3
 537 899 537 899 525 906 c 128,-1,4
 513 913 513 913 498 913 c 0,5,6
 431 913 431 913 379 880 c 0,7,8
 236 789 236 789 176 560 c 1,9,10
 198 553 198 553 226 553 c 0,11,12
 287 553 287 553 345 572 c 0,13,14
 439 602 439 602 498 667 c 1,15,16
 563 736 563 736 563 831 c 0,0,1
654 188 m 0,17,18
 654 106 654 106 586 45 c 0,19,20
 525 -10 525 -10 436 -18 c 1,21,22
 436 -32 436 -32 435 -46.5 c 128,-1,23
 434 -61 434 -61 432 -76 c 1,24,25
 448 -78 448 -78 469 -85 c 1,26,27
 540 -115 540 -115 540 -171 c 0,28,29
 540 -188 540 -188 530.5 -202.5 c 128,-1,30
 521 -217 521 -217 505.5 -227.5 c 128,-1,31
 490 -238 490 -238 471.5 -243.5 c 128,-1,32
 453 -249 453 -249 434 -249 c 0,33,34
 348 -249 348 -249 323 -193 c 0,35,36
 322 -192 322 -192 322 -183 c 0,37,38
 322 -160 322 -160 343 -160 c 0,39,40
 344 -160 344 -160 345 -160 c 0,41,42
 354 -160 354 -160 373 -179 c 1,43,44
 390 -199 390 -199 434 -200 c 0,45,46
 441 -200 441 -200 451 -198 c 128,-1,47
 461 -196 461 -196 469.5 -192 c 128,-1,48
 478 -188 478 -188 483.5 -182.5 c 128,-1,49
 489 -177 489 -177 489 -171 c 0,50,51
 489 -155 489 -155 466 -140 c 1,52,53
 440 -126 440 -126 428 -126 c 0,54,55
 422 -126 422 -126 414 -130.5 c 128,-1,56
 406 -135 406 -135 396 -135 c 0,57,58
 375 -135 375 -135 375 -114 c 0,59,60
 375 -106 375 -106 376 -104 c 2,61,-1
 380 -84 l 2,62,63
 382 -74 382 -74 383 -62 c 2,64,-1
 386 -18 l 1,65,66
 259 -6 259 -6 176 110 c 1,67,68
 101 212 101 212 101 350 c 0,69,70
 101 448 101 448 119 532 c 1,71,72
 10 594 10 594 10 736 c 0,73,74
 10 834 10 834 91 900 c 0,75,76
 167 962 167 962 268 963 c 0,77,78
 294 963 294 963 294 938 c 256,79,80
 294 913 294 913 268 913 c 0,81,82
 186 913 186 913 127 866 c 1,83,84
 60 815 60 815 60 736 c 0,85,86
 60 636 60 636 130 584 c 1,87,88
 169 734 169 734 257 838 c 1,89,90
 360 963 360 963 498 963 c 0,91,92
 524 963 524 963 545 952 c 128,-1,93
 566 941 566 941 581.5 922.5 c 128,-1,94
 597 904 597 904 605 880.5 c 128,-1,95
 613 857 613 857 613 831 c 0,96,97
 613 687 613 687 489 592 c 0,98,99
 376 505 376 505 226 505 c 0,100,101
 186 505 186 505 165 512 c 1,102,103
 159 474 159 474 155.5 433.5 c 128,-1,104
 152 393 152 393 152 350 c 0,105,106
 152 226 152 226 221 133 c 0,107,108
 296 31 296 31 418 31 c 0,109,110
 488 31 488 31 544 73 c 0,111,112
 604 118 604 118 604 188 c 0,113,114
 604 217 604 217 585.5 239 c 128,-1,115
 567 261 567 261 541 261 c 0,116,117
 508 261 508 261 498 237 c 1,118,119
 490 213 490 213 473 213 c 0,120,121
 449 213 449 213 450 238 c 1,122,123
 450 271 450 271 477.5 290 c 128,-1,124
 505 309 505 309 541 309 c 0,125,126
 565 309 565 309 585 299.5 c 128,-1,127
 605 290 605 290 620.5 273.5 c 128,-1,128
 636 257 636 257 645 235 c 128,-1,129
 654 213 654 213 654 188 c 0,17,18
EndSplineSet
Validated: 33
EndChar

StartChar: Egrave
Encoding: 200 200 125
Width: 669
GlyphClass: 2
Flags: W
LayerCount: 3
Fore
SplineSet
432 588 m 0,0,1
 432 596 432 596 404 596 c 2,2,-1
 396 596 l 2,3,4
 389 596 389 596 382 595.5 c 128,-1,5
 375 595 375 595 368 594 c 2,6,-1
 338 589 l 1,7,8
 355 572 355 572 395 571 c 1,9,10
 432 572 432 572 432 588 c 0,0,1
538 851 m 0,11,12
 538 912 538 912 471 912 c 0,13,14
 383 912 383 912 311 841 c 0,15,16
 257 787 257 787 257 733 c 2,17,-1
 257 719 l 2,18,19
 257 709 257 709 258 706 c 1,20,21
 348 710 348 710 427 739 c 0,22,23
 538 780 538 780 538 851 c 0,11,12
637 200 m 0,24,25
 637 110 637 110 563 47 c 0,26,27
 491 -15 491 -15 400 -15 c 0,28,29
 263 -15 263 -15 170 96 c 1,30,31
 84 204 84 204 84 345 c 0,32,33
 84 431 84 431 126 500 c 128,-1,34
 168 569 168 569 245 607 c 1,35,36
 228 630 228 630 217 656 c 1,37,38
 178 659 178 659 145.5 669 c 128,-1,39
 113 679 113 679 85 694 c 0,40,41
 10 735 10 735 10 801 c 0,42,43
 10 869 10 869 99 918 c 0,44,45
 177 962 177 962 248 962 c 0,46,47
 272 962 272 962 272 939 c 0,48,49
 272 912 272 912 248 912 c 0,50,51
 200 912 200 912 135 881 c 1,52,53
 60 843 60 843 60 801 c 0,54,55
 60 778 60 778 78 761 c 1,56,57
 116 721 116 721 208 708 c 1,58,59
 207 711 207 711 207 720 c 2,60,-1
 207 733 l 2,61,62
 207 823 207 823 296 894 c 0,63,64
 380 962 380 962 471 962 c 0,65,66
 588 962 588 962 588 851 c 0,67,68
 588 797 588 797 554 763 c 0,69,70
 463 669 463 669 271 656 c 1,71,72
 278 641 278 641 290 628 c 1,73,74
 343 646 343 646 395 646 c 0,75,76
 427 646 427 646 454 634 c 1,77,78
 486 618 486 618 486 592 c 0,79,80
 486 575 486 575 478.5 562 c 128,-1,81
 471 549 471 549 458 539.5 c 128,-1,82
 445 530 445 530 429 525.5 c 128,-1,83
 413 521 413 521 395 521 c 0,84,85
 336 521 336 521 280 568 c 1,86,87
 212 537 212 537 172.5 478 c 128,-1,88
 133 419 133 419 133 345 c 0,89,90
 133 227 133 227 206 133 c 0,91,92
 285 33 285 33 400 33 c 0,93,94
 470 33 470 33 527 82 c 0,95,96
 586 134 586 134 587 200 c 0,97,98
 587 225 587 225 571 244 c 128,-1,99
 555 263 555 263 532 263 c 0,100,101
 493 263 493 263 482 240 c 1,102,103
 473 217 473 217 460 217 c 0,104,105
 430 217 430 217 430 251 c 0,106,107
 430 278 430 278 469 296 c 1,108,109
 501 312 501 312 532 312 c 0,110,111
 554 312 554 312 573 303 c 128,-1,112
 592 294 592 294 606.5 278.5 c 128,-1,113
 621 263 621 263 629 243 c 128,-1,114
 637 223 637 223 637 200 c 0,24,25
541 986 m 0,115,116
 541 961 541 961 518 961 c 0,117,118
 517 961 517 961 516 961 c 0,119,120
 497 961 497 961 424 1026 c 0,121,122
 350 1092 350 1092 350 1110 c 0,123,124
 350 1135 350 1135 377 1135 c 0,125,126
 387 1135 387 1135 395 1126 c 1,127,128
 404 1114 404 1114 412 1106 c 2,129,-1
 424 1095 l 2,130,131
 458 1064 458 1064 484.5 1042 c 128,-1,132
 511 1020 511 1020 530 1006 c 1,133,134
 541 995 541 995 541 986 c 0,115,116
EndSplineSet
Validated: 1
EndChar

StartChar: Eacute
Encoding: 201 201 126
Width: 669
GlyphClass: 2
Flags: W
LayerCount: 3
Fore
SplineSet
432 588 m 0,0,1
 432 596 432 596 404 596 c 2,2,-1
 396 596 l 2,3,4
 389 596 389 596 382 595.5 c 128,-1,5
 375 595 375 595 368 594 c 2,6,-1
 338 589 l 1,7,8
 355 572 355 572 395 571 c 1,9,10
 432 572 432 572 432 588 c 0,0,1
538 851 m 0,11,12
 538 912 538 912 471 912 c 0,13,14
 383 912 383 912 311 841 c 0,15,16
 257 787 257 787 257 733 c 2,17,-1
 257 719 l 2,18,19
 257 709 257 709 258 706 c 1,20,21
 348 710 348 710 427 739 c 0,22,23
 538 780 538 780 538 851 c 0,11,12
637 200 m 0,24,25
 637 110 637 110 563 47 c 0,26,27
 491 -15 491 -15 400 -15 c 0,28,29
 263 -15 263 -15 170 96 c 1,30,31
 84 204 84 204 84 345 c 0,32,33
 84 431 84 431 126 500 c 128,-1,34
 168 569 168 569 245 607 c 1,35,36
 228 630 228 630 217 656 c 1,37,38
 178 659 178 659 145.5 669 c 128,-1,39
 113 679 113 679 85 694 c 0,40,41
 10 735 10 735 10 801 c 0,42,43
 10 869 10 869 99 918 c 0,44,45
 177 962 177 962 248 962 c 0,46,47
 272 962 272 962 272 939 c 0,48,49
 272 912 272 912 248 912 c 0,50,51
 200 912 200 912 135 881 c 1,52,53
 60 843 60 843 60 801 c 0,54,55
 60 778 60 778 78 761 c 1,56,57
 116 721 116 721 208 708 c 1,58,59
 207 711 207 711 207 720 c 2,60,-1
 207 733 l 2,61,62
 207 823 207 823 296 894 c 0,63,64
 380 962 380 962 471 962 c 0,65,66
 588 962 588 962 588 851 c 0,67,68
 588 797 588 797 554 763 c 0,69,70
 463 669 463 669 271 656 c 1,71,72
 278 641 278 641 290 628 c 1,73,74
 343 646 343 646 395 646 c 0,75,76
 427 646 427 646 454 634 c 1,77,78
 486 618 486 618 486 592 c 0,79,80
 486 575 486 575 478.5 562 c 128,-1,81
 471 549 471 549 458 539.5 c 128,-1,82
 445 530 445 530 429 525.5 c 128,-1,83
 413 521 413 521 395 521 c 0,84,85
 336 521 336 521 280 568 c 1,86,87
 212 537 212 537 172.5 478 c 128,-1,88
 133 419 133 419 133 345 c 0,89,90
 133 227 133 227 206 133 c 0,91,92
 285 33 285 33 400 33 c 0,93,94
 470 33 470 33 527 82 c 0,95,96
 586 134 586 134 587 200 c 0,97,98
 587 225 587 225 571 244 c 128,-1,99
 555 263 555 263 532 263 c 0,100,101
 493 263 493 263 482 240 c 1,102,103
 473 217 473 217 460 217 c 0,104,105
 430 217 430 217 430 251 c 0,106,107
 430 278 430 278 469 296 c 1,108,109
 501 312 501 312 532 312 c 0,110,111
 554 312 554 312 573 303 c 128,-1,112
 592 294 592 294 606.5 278.5 c 128,-1,113
 621 263 621 263 629 243 c 128,-1,114
 637 223 637 223 637 200 c 0,24,25
540 1104 m 0,115,116
 540 1087 540 1087 467 1020 c 1,117,118
 394 955 394 955 375 955 c 0,119,120
 349 955 349 955 349 980 c 0,121,122
 349 986 349 986 355 995 c 1,123,124
 370 1008 370 1008 382 1018 c 128,-1,125
 394 1028 394 1028 402 1034 c 0,126,127
 427 1052 427 1052 443.5 1067 c 128,-1,128
 460 1082 460 1082 470 1092 c 1,129,130
 500 1129 500 1129 513 1129 c 2,131,132
 514 1129 l 256,133,134
 515 1129 515 1129 516 1129 c 0,135,136
 540 1129 540 1129 540 1104 c 0,115,116
EndSplineSet
Validated: 1
EndChar

StartChar: Ecircumflex
Encoding: 202 202 127
Width: 669
GlyphClass: 2
Flags: W
LayerCount: 3
Fore
SplineSet
432 588 m 0,0,1
 432 596 432 596 404 596 c 2,2,-1
 396 596 l 2,3,4
 389 596 389 596 382 595.5 c 128,-1,5
 375 595 375 595 368 594 c 2,6,-1
 338 589 l 1,7,8
 355 572 355 572 395 571 c 1,9,10
 432 572 432 572 432 588 c 0,0,1
538 851 m 0,11,12
 538 912 538 912 471 912 c 0,13,14
 383 912 383 912 311 841 c 0,15,16
 257 787 257 787 257 733 c 2,17,-1
 257 719 l 2,18,19
 257 709 257 709 258 706 c 1,20,21
 348 710 348 710 427 739 c 0,22,23
 538 780 538 780 538 851 c 0,11,12
637 200 m 0,24,25
 637 110 637 110 563 47 c 0,26,27
 491 -15 491 -15 400 -15 c 0,28,29
 263 -15 263 -15 170 96 c 1,30,31
 84 204 84 204 84 345 c 0,32,33
 84 431 84 431 126 500 c 128,-1,34
 168 569 168 569 245 607 c 1,35,36
 228 630 228 630 217 656 c 1,37,38
 178 659 178 659 145.5 669 c 128,-1,39
 113 679 113 679 85 694 c 0,40,41
 10 735 10 735 10 801 c 0,42,43
 10 869 10 869 99 918 c 0,44,45
 177 962 177 962 248 962 c 0,46,47
 272 962 272 962 272 939 c 0,48,49
 272 912 272 912 248 912 c 0,50,51
 200 912 200 912 135 881 c 1,52,53
 60 843 60 843 60 801 c 0,54,55
 60 778 60 778 78 761 c 1,56,57
 116 721 116 721 208 708 c 1,58,59
 207 711 207 711 207 720 c 2,60,-1
 207 733 l 2,61,62
 207 823 207 823 296 894 c 0,63,64
 380 962 380 962 471 962 c 0,65,66
 588 962 588 962 588 851 c 0,67,68
 588 797 588 797 554 763 c 0,69,70
 463 669 463 669 271 656 c 1,71,72
 278 641 278 641 290 628 c 1,73,74
 343 646 343 646 395 646 c 0,75,76
 427 646 427 646 454 634 c 1,77,78
 486 618 486 618 486 592 c 0,79,80
 486 575 486 575 478.5 562 c 128,-1,81
 471 549 471 549 458 539.5 c 128,-1,82
 445 530 445 530 429 525.5 c 128,-1,83
 413 521 413 521 395 521 c 0,84,85
 336 521 336 521 280 568 c 1,86,87
 212 537 212 537 172.5 478 c 128,-1,88
 133 419 133 419 133 345 c 0,89,90
 133 227 133 227 206 133 c 0,91,92
 285 33 285 33 400 33 c 0,93,94
 470 33 470 33 527 82 c 0,95,96
 586 134 586 134 587 200 c 0,97,98
 587 225 587 225 571 244 c 128,-1,99
 555 263 555 263 532 263 c 0,100,101
 493 263 493 263 482 240 c 1,102,103
 473 217 473 217 460 217 c 0,104,105
 430 217 430 217 430 251 c 0,106,107
 430 278 430 278 469 296 c 1,108,109
 501 312 501 312 532 312 c 0,110,111
 554 312 554 312 573 303 c 128,-1,112
 592 294 592 294 606.5 278.5 c 128,-1,113
 621 263 621 263 629 243 c 128,-1,114
 637 223 637 223 637 200 c 0,24,25
524 993 m 0,115,116
 524 969 524 969 503 969 c 0,117,118
 502 969 502 969 501 969 c 0,119,120
 488 969 488 969 439 1026 c 1,121,122
 393 1083 393 1083 392 1083 c 0,123,124
 388 1076 388 1076 374.5 1059.5 c 128,-1,125
 361 1043 361 1043 338 1018 c 0,126,127
 293 969 293 969 281 969 c 0,128,129
 255 969 255 969 255 993 c 0,130,131
 255 1007 255 1007 292 1040 c 0,132,133
 304 1050 304 1050 317 1065.5 c 128,-1,134
 330 1081 330 1081 344 1102 c 1,135,136
 375 1143 375 1143 392 1143 c 0,137,138
 399 1143 399 1143 408 1136 c 0,139,140
 416 1129 416 1129 422 1120 c 2,141,-1
 434 1104 l 1,142,143
 460 1071 460 1071 481 1047 c 128,-1,144
 502 1023 502 1023 518 1008 c 1,145,146
 524 1001 524 1001 524 993 c 0,115,116
EndSplineSet
Validated: 1
EndChar

StartChar: Edieresis
Encoding: 203 203 128
Width: 669
GlyphClass: 2
Flags: W
LayerCount: 3
Fore
SplineSet
432 588 m 0,0,1
 432 596 432 596 404 596 c 2,2,-1
 396 596 l 2,3,4
 389 596 389 596 382 595.5 c 128,-1,5
 375 595 375 595 368 594 c 2,6,-1
 338 589 l 1,7,8
 355 572 355 572 395 571 c 1,9,10
 432 572 432 572 432 588 c 0,0,1
538 851 m 0,11,12
 538 912 538 912 471 912 c 0,13,14
 383 912 383 912 311 841 c 0,15,16
 257 787 257 787 257 733 c 2,17,-1
 257 719 l 2,18,19
 257 709 257 709 258 706 c 1,20,21
 348 710 348 710 427 739 c 0,22,23
 538 780 538 780 538 851 c 0,11,12
637 200 m 0,24,25
 637 110 637 110 563 47 c 0,26,27
 491 -15 491 -15 400 -15 c 0,28,29
 263 -15 263 -15 170 96 c 1,30,31
 84 204 84 204 84 345 c 0,32,33
 84 431 84 431 126 500 c 128,-1,34
 168 569 168 569 245 607 c 1,35,36
 228 630 228 630 217 656 c 1,37,38
 178 659 178 659 145.5 669 c 128,-1,39
 113 679 113 679 85 694 c 0,40,41
 10 735 10 735 10 801 c 0,42,43
 10 869 10 869 99 918 c 0,44,45
 177 962 177 962 248 962 c 0,46,47
 272 962 272 962 272 939 c 0,48,49
 272 912 272 912 248 912 c 0,50,51
 200 912 200 912 135 881 c 1,52,53
 60 843 60 843 60 801 c 0,54,55
 60 778 60 778 78 761 c 1,56,57
 116 721 116 721 208 708 c 1,58,59
 207 711 207 711 207 720 c 2,60,-1
 207 733 l 2,61,62
 207 823 207 823 296 894 c 0,63,64
 380 962 380 962 471 962 c 0,65,66
 588 962 588 962 588 851 c 0,67,68
 588 797 588 797 554 763 c 0,69,70
 463 669 463 669 271 656 c 1,71,72
 278 641 278 641 290 628 c 1,73,74
 343 646 343 646 395 646 c 0,75,76
 427 646 427 646 454 634 c 1,77,78
 486 618 486 618 486 592 c 0,79,80
 486 575 486 575 478.5 562 c 128,-1,81
 471 549 471 549 458 539.5 c 128,-1,82
 445 530 445 530 429 525.5 c 128,-1,83
 413 521 413 521 395 521 c 0,84,85
 336 521 336 521 280 568 c 1,86,87
 212 537 212 537 172.5 478 c 128,-1,88
 133 419 133 419 133 345 c 0,89,90
 133 227 133 227 206 133 c 0,91,92
 285 33 285 33 400 33 c 0,93,94
 470 33 470 33 527 82 c 0,95,96
 586 134 586 134 587 200 c 0,97,98
 587 225 587 225 571 244 c 128,-1,99
 555 263 555 263 532 263 c 0,100,101
 493 263 493 263 482 240 c 1,102,103
 473 217 473 217 460 217 c 0,104,105
 430 217 430 217 430 251 c 0,106,107
 430 278 430 278 469 296 c 1,108,109
 501 312 501 312 532 312 c 0,110,111
 554 312 554 312 573 303 c 128,-1,112
 592 294 592 294 606.5 278.5 c 128,-1,113
 621 263 621 263 629 243 c 128,-1,114
 637 223 637 223 637 200 c 0,24,25
351 1030 m 0,115,116
 351 1007 351 1007 335 991 c 128,-1,117
 319 975 319 975 298 975 c 0,118,119
 276 975 276 975 259 991.5 c 128,-1,120
 242 1008 242 1008 242 1030 c 128,-1,121
 242 1052 242 1052 259 1067.5 c 128,-1,122
 276 1083 276 1083 298 1083 c 256,123,124
 320 1083 320 1083 335.5 1067.5 c 128,-1,125
 351 1052 351 1052 351 1030 c 0,115,116
488 1030 m 0,126,127
 488 1007 488 1007 472.5 991 c 128,-1,128
 457 975 457 975 434 975 c 0,129,130
 412 975 412 975 396 991.5 c 128,-1,131
 380 1008 380 1008 380 1030 c 128,-1,132
 380 1052 380 1052 396.5 1067.5 c 128,-1,133
 413 1083 413 1083 434 1083 c 0,134,135
 457 1083 457 1083 472.5 1067.5 c 128,-1,136
 488 1052 488 1052 488 1030 c 0,126,127
EndSplineSet
Validated: 1
EndChar

